<svg width="53" height="68" viewBox="0 0 53 68" fill="none" xmlns="http://www.w3.org/2000/svg">
<path d="M51.7437 4.89561C50.4597 1.36511 48.4052 0.319035 46.8644 0.0705925C44.5531 -0.308609 41.8951 0.842071 38.9675 3.47033L38.1072 4.28104H14.8918L14.0315 3.47033C11.1038 0.855147 8.45872 -0.308609 6.13461 0.0705925C4.6066 0.319035 2.51361 1.37818 1.25525 4.89561C-0.122129 8.65962 -0.372367 12.7551 0.536191 16.6639C1.40229 20.1721 2.99112 23.4527 5.19726 26.2878C8.9872 31.1186 13.6951 35.1211 19.0392 38.0561C19.7069 38.4223 20.6314 38.8538 21.2863 39.1545C21.7233 39.4715 22.1825 39.7556 22.6602 40.0045V41.7828H22.5575C22.0603 41.7828 21.5834 41.9839 21.2319 42.3419C20.8803 42.7 20.6828 43.1855 20.6828 43.6919C20.6847 44.172 20.8641 44.6337 21.1854 44.9851C21.5067 45.3365 21.9461 45.5517 22.4162 45.5879C20.5865 48.6525 19.5239 52.1279 19.3217 55.7086H19.0777C18.1457 55.7121 17.2528 56.0907 16.5937 56.7618C15.9346 57.433 15.5628 58.3423 15.5595 59.2914V68H37.478V59.1868C37.4747 58.2377 37.1029 57.3284 36.4438 56.6572C35.7848 55.9861 34.8918 55.6075 33.9598 55.604H33.6259C33.4237 52.0233 32.3611 48.5479 30.5314 45.4833C31.0152 45.4664 31.4738 45.2596 31.8112 44.9062C32.1487 44.5528 32.3388 44.0802 32.3419 43.5873C32.3419 43.0809 32.1444 42.5953 31.7928 42.2373C31.4412 41.8793 30.9644 41.6782 30.4672 41.6782H30.3645V39.8998C30.8421 39.651 31.3013 39.3669 31.7384 39.0499C32.3932 38.7492 33.3177 38.3177 33.9854 37.9515C39.3296 35.0165 44.0375 31.0139 47.8274 26.1832C50.0335 23.348 51.6224 20.0675 52.4885 16.5593C53.3681 12.6811 53.1091 8.62517 51.7437 4.89561ZM6.66107 20.7044C5.3719 18.5721 4.57494 16.1696 4.33027 13.6781C4.0856 11.1865 4.39961 8.67088 5.24862 6.32088C5.54395 5.47095 6.05757 4.42487 6.78947 4.30719C7.875 4.34687 8.91373 4.76721 9.72992 5.4971C9.70547 13.7579 11.2806 21.9426 14.3653 29.5829C11.2876 27.126 8.67664 24.1171 6.66107 20.7044ZM30.3131 19.9068L31.2248 25.294L26.4738 22.7442L21.7229 25.294L22.6345 19.9068L18.7824 16.0886L24.0983 15.304L26.4995 10.4659L28.875 15.304L34.1909 16.0886L30.3131 19.9068ZM46.2737 20.7044C44.2569 24.1124 41.646 27.1168 38.5695 29.5699C41.6618 21.9576 43.2543 13.8004 43.2562 5.56248C44.0724 4.83259 45.1111 4.41225 46.1967 4.37257C46.9157 4.49025 47.4807 5.53633 47.7375 6.38626C48.5744 8.72804 48.8809 11.2321 48.6341 13.7115C48.3873 16.1908 47.5936 18.5813 46.3122 20.7044H46.2737Z" fill="white"/>
</svg>
