<svg width="77" height="65" viewBox="0 0 77 65" fill="none" xmlns="http://www.w3.org/2000/svg">
<path d="M31.5256 56.6096C31.1757 57.5358 32.0812 58.4447 33.0142 58.0983L37.3669 56.4655L33.1616 52.2603L31.5256 56.6096Z" fill="white"/>
<path d="M49.3486 27.8344L52.5112 24.6719L64.952 37.1127L61.7895 40.2753L49.3486 27.8344Z" fill="white"/>
<path d="M75.9039 17.6818L71.9421 13.7201C70.7004 12.4784 68.687 12.4784 67.4453 13.7201L65.9258 15.2396C66.0012 15.3083 66.0904 15.3597 66.1625 15.4352L74.1922 23.4649C74.2677 23.5404 74.3157 23.6227 74.3843 23.7016L75.9073 22.1786C77.142 20.9369 77.1421 18.9235 75.9039 17.6818Z" fill="white"/>
<path d="M64.5062 17.0812C63.2885 15.8636 61.3162 15.8636 60.0951 17.0812L54.1577 23.0186L66.5951 35.456L72.5325 29.5186C73.7501 28.3009 73.7501 26.3286 72.5325 25.1075L64.5062 17.0812Z" fill="white"/>
<path d="M42.8003 54.4206L35.1994 46.8162L34.0605 49.8586L39.7647 55.5628L42.8003 54.4206Z" fill="white"/>
<path d="M36.6374 40.5465C35.4197 41.7641 35.4197 43.7364 36.6374 44.9575L44.6671 52.9872C45.8848 54.2049 47.8571 54.2049 49.0781 52.9872L60.1439 41.9215L47.7066 29.4841L36.6374 40.5465Z" fill="white"/>
<path d="M46.8754 56.2355C46.3334 56.2355 45.7983 56.1566 45.2838 55.9954L33.8308 60.2829C33.4398 60.4339 33.0179 60.5093 32.5925 60.5093C31.4503 60.5093 30.3802 59.9434 29.7319 59.0001C29.087 58.0602 28.943 56.8563 29.3546 55.7826L33.6353 44.3402C33.0659 42.4674 33.5461 40.3682 34.9627 38.9104L54.1438 19.7328L54.1404 3.86907C54.1404 1.73556 52.4082 0.00343006 50.2748 0.00343006L3.86564 0C1.73213 0 0 1.73222 0 3.86907V60.9629C0 63.0964 1.73222 64.8285 3.86564 64.8285H50.2748C52.4083 64.8285 54.1404 63.0963 54.1404 60.9629V51.2142L50.7104 54.6443C49.6882 55.6699 48.3264 56.2355 46.8754 56.2355ZM10.0094 13.2606H44.1313C44.7728 13.2606 45.2975 13.782 45.2975 14.4268C45.2975 15.0716 44.7762 15.593 44.1313 15.593H10.0094C9.36799 15.593 8.84321 15.0716 8.84321 14.4268C8.84321 13.782 9.36458 13.2606 10.0094 13.2606ZM10.0094 23.7872H44.1313C44.7728 23.7872 45.2975 24.3086 45.2975 24.9534C45.2975 25.5982 44.7762 26.1196 44.1313 26.1196H10.0094C9.36799 26.1196 8.84321 25.5982 8.84321 24.9534C8.84321 24.3086 9.36458 23.7872 10.0094 23.7872ZM8.84321 35.4799C8.84321 34.8351 9.36458 34.3137 10.0094 34.3137H33.43C34.0714 34.3137 34.5962 34.8351 34.5962 35.4799C34.5962 36.1248 34.0748 36.6461 33.43 36.6461H10.0094C9.36456 36.6461 8.84321 36.1248 8.84321 35.4799ZM27.0742 51.5666H17.323C16.6816 51.5666 16.1568 51.0453 16.1568 50.4005C16.1568 49.7556 16.6782 49.2343 17.323 49.2343H27.0716C27.713 49.2343 28.2378 49.7556 28.2378 50.4005C28.2412 51.0453 27.7156 51.5666 27.0742 51.5666Z" fill="white"/>
</svg>
