<svg width="54" height="67" viewBox="0 0 54 67" fill="none" xmlns="http://www.w3.org/2000/svg">
<path d="M47.9024 0H6.09764C2.73696 0.0193273 0.0196482 2.6993 0 6.01392V60.9861C0.0195964 64.3006 2.73687 66.9806 6.09764 67H47.9024C51.263 66.9807 53.9804 64.3007 54 60.9861V6.01392C53.9804 2.69938 51.2631 0.0193785 47.9024 0ZM34.8384 19.7553C34.8384 18.3347 36.0076 17.1784 37.4512 17.1784C38.8948 17.1784 40.064 18.3347 40.064 19.7553V26.6292C40.064 28.0498 38.8948 29.2061 37.4512 29.2061C36.0076 29.2061 34.8384 28.0498 34.8384 26.6292V19.7553ZM24.3872 12.8846C24.3872 11.4608 25.5564 10.3077 27 10.3077C28.4436 10.3077 29.6128 11.4608 29.6128 12.8846V26.6293C29.6128 28.0499 28.4436 29.2062 27 29.2062C25.5564 29.2062 24.3872 28.0499 24.3872 26.6293V12.8846ZM13.936 16.3216C13.936 14.8978 15.1052 13.7447 16.5488 13.7447C17.9924 13.7447 19.1616 14.8978 19.1616 16.3216V26.6293C19.1616 28.0499 17.9924 29.2062 16.5488 29.2062C15.1052 29.2062 13.936 28.0499 13.936 26.6293V16.3216ZM40.936 53.2553H13.064C11.6236 53.2553 10.4512 52.1022 10.4512 50.6784C10.4512 49.2578 11.6236 48.1015 13.064 48.1015H40.936C42.3764 48.1015 43.5488 49.2578 43.5488 50.6784C43.5488 52.1022 42.3764 53.2553 40.936 53.2553ZM40.936 42.9476H13.064C11.6236 42.9476 10.4512 41.7945 10.4512 40.3707C10.4512 38.9501 11.6236 37.7938 13.064 37.7938H40.936C42.3764 37.7938 43.5488 38.9501 43.5488 40.3707C43.5488 41.7945 42.3764 42.9476 40.936 42.9476Z" fill="white"/>
</svg>
