<svg width="70" height="68" viewBox="0 0 70 68" fill="none" xmlns="http://www.w3.org/2000/svg">
<path fill-rule="evenodd" clip-rule="evenodd" d="M1.63702 57.1181H4.42717V26.8244C4.42717 26.1566 4.83174 25.5803 5.4121 25.3309L20.63 17.104C21.4224 16.6773 22.4157 16.9655 22.8482 17.7524C22.9821 17.999 23.0463 18.265 23.0491 18.5283L23.0547 57.1148H25.6858V10.1354C25.6858 9.4676 26.0904 8.89127 26.6708 8.64187L41.8886 0.414973C42.6811 -0.0117357 43.6744 0.276433 44.1069 1.06335C44.2408 1.30996 44.305 1.57596 44.3078 1.83922L44.3133 57.1122H46.9445V34.6298C46.9445 33.962 47.3491 33.3884 47.9294 33.1363L63.1473 24.9122C63.9397 24.4827 64.933 24.7737 65.3655 25.5606C65.4994 25.8072 65.5636 26.0732 65.5664 26.3365L65.5692 57.1125H68.3594C69.2661 57.1125 70 57.8412 70 58.7418V65.5885C70 66.489 69.2662 67.2178 68.3594 67.2178H1.64065C0.733858 67.2178 0 66.4891 0 65.5885V58.7418C0 57.8413 0.733787 57.1125 1.64065 57.1125L1.63702 57.1181Z" fill="white"/>
</svg>
