<svg width="63" height="78" viewBox="0 0 63 78" fill="none" xmlns="http://www.w3.org/2000/svg">
<path d="M13.6326 9.832C13.6326 7.2382 15.7459 5.125 18.3396 5.125H43.4916V2.418C43.4916 1.086 42.4057 0 41.0736 0H11.9756C10.6436 0 9.55762 1.0859 9.55762 2.418V28.711H13.6318L13.6326 9.832Z" fill="white"/>
<path d="M15.9217 9.83222V28.7112H21.0233C21.6014 28.7112 22.1756 28.7737 22.7421 28.8597L24.0819 15.1837C24.3358 12.6017 26.6327 10.6915 29.2264 10.9571L49.8514 12.9805V9.82816C49.8514 8.49616 48.7655 7.41016 47.4334 7.41016H18.3394C17.0074 7.41406 15.9217 8.50012 15.9217 9.83222Z" fill="white"/>
<path d="M26.3638 15.4102L24.9888 29.4452C26.149 29.8788 27.2466 30.4921 28.2154 31.289L38.7584 39.9648C40.3717 41.2929 42.4068 42.0195 44.4928 42.0195H57.8518L60.137 18.7225C60.2659 17.3944 59.2932 16.2108 57.9651 16.078L29.0081 13.2382C27.68 13.121 26.4966 14.082 26.3638 15.4102ZM32.6177 19.6875L53.1687 21.7031C53.7976 21.7656 54.2585 22.3242 54.196 22.9531C54.1374 23.5429 53.6413 23.9843 53.0593 23.9843C53.0202 23.9843 52.9851 23.9843 52.946 23.9765L32.395 21.9609C31.7661 21.8984 31.3052 21.3398 31.3677 20.7109C31.4302 20.0859 31.9809 19.6211 32.6177 19.6875ZM31.6919 29.125L52.2429 31.1406C52.8718 31.2031 53.3327 31.7617 53.2702 32.3906C53.2116 32.9804 52.7155 33.4218 52.1335 33.4218C52.0944 33.4218 52.0593 33.4218 52.0202 33.414L31.4692 31.3984C30.8403 31.3359 30.3794 30.7773 30.4419 30.1484C30.5044 29.5195 31.0513 29.0507 31.6919 29.125Z" fill="white"/>
<path d="M60.7224 44.3042H44.4884C41.8712 44.3042 39.3204 43.3901 37.3009 41.7261L26.7579 33.0503C25.1446 31.7261 23.1095 30.9956 21.0235 30.9956H1.8945C0.851499 30.9956 0 31.8433 0 32.8901V75.9101C0 76.9531 0.847659 77.8046 1.8945 77.8046H60.7185C61.7615 77.8046 62.613 76.9569 62.613 75.9101V46.1991C62.613 45.1561 61.7653 44.3042 60.7224 44.3042ZM10.9214 57.5422L21.1284 48.1164C21.5932 47.6867 22.3159 47.7141 22.7456 48.1789C23.1753 48.6437 23.1479 49.3664 22.6831 49.7961L12.4761 59.2219C12.2573 59.425 11.98 59.5266 11.6988 59.5266C11.3902 59.5266 11.0855 59.4016 10.8589 59.1594C10.4292 58.6946 10.4566 57.968 10.9214 57.5422ZM32.8164 49.4211L12.5974 69.3311C12.3747 69.5499 12.0857 69.6592 11.7966 69.6592C11.4997 69.6592 11.2068 69.5459 10.9802 69.3194C10.5349 68.8702 10.5427 68.1436 10.9919 67.7022L31.2109 47.7882C31.664 47.3429 32.3867 47.3507 32.8281 47.7999C33.2734 48.253 33.2656 48.9758 32.8164 49.4211Z" fill="white"/>
</svg>
