<svg width="71" height="71" viewBox="0 0 71 71" fill="none" xmlns="http://www.w3.org/2000/svg">
<path fill-rule="evenodd" clip-rule="evenodd" d="M35.5 71C55.1065 71 71 55.1065 71 35.5C71 15.8935 55.1065 0 35.5 0C15.8935 0 0 15.8935 0 35.5C0 55.1065 15.8935 71 35.5 71ZM45.6484 45.6514C44.8217 46.4781 43.4558 46.4811 42.629 45.6514L35.5001 38.5195L28.3711 45.6485C26.3859 47.6337 23.3665 44.6114 25.3518 42.6291L32.4807 35.5001L25.3518 28.3712C23.3665 26.3859 26.3859 23.3666 28.3711 25.3518L35.5001 32.4808L42.629 25.3518C44.6143 23.3666 47.6336 26.3889 45.6484 28.3712L38.5194 35.5001L45.6484 42.6291C46.4781 43.4588 46.4781 44.8217 45.6484 45.6514ZM47.7107 47.7077C45.7432 49.6752 42.5373 49.6752 40.5727 47.7077L35.5001 42.638L30.4304 47.7077C27.2807 50.8574 21.8172 48.647 21.8172 44.1373C21.8172 42.8455 22.3091 41.5506 23.2899 40.5669L28.3625 35.5001L23.2928 30.4304C20.1432 27.2808 22.3535 21.8173 26.8632 21.8173C28.1551 21.8173 29.45 22.3092 30.4336 23.2899L35.5004 28.3626L40.5701 23.2929C43.7197 20.1432 49.1832 22.3536 49.1832 26.8633C49.1832 28.1551 48.6913 29.45 47.7106 30.4337L42.6379 35.5005L47.7076 40.5702C49.6751 42.5376 49.6752 45.7432 47.7107 47.7077Z" fill="white"/>
</svg>
