<svg width="52" height="67" viewBox="0 0 52 67" fill="none" xmlns="http://www.w3.org/2000/svg">
<path d="M25.9883 30.3831C33.9017 30.3831 40.3169 23.5816 40.3169 15.1916C40.3169 6.8015 33.9017 0 25.9883 0C18.0748 0 11.6597 6.8015 11.6597 15.1916C11.6597 23.5816 18.0748 30.3831 25.9883 30.3831Z" fill="white"/>
<path d="M51.6874 49.0013C51.1049 43.947 49.6037 37.0129 47.4954 33.5213C46.0384 31.1095 43.0736 29.1103 38.2955 27.8867C35.1761 31.2866 30.815 33.3977 25.9885 33.3977C21.1626 33.3977 16.8022 31.2866 13.6828 27.8874C8.90616 29.1103 5.94143 31.1095 4.48436 33.5213C2.37536 37.0137 0.873478 43.947 0.292384 49.0005C0.144219 49.8714 -0.0357467 52.2724 0.00617307 52.6345C0.936357 60.5205 12.9261 66.7781 25.2592 66.9942C25.502 66.9993 25.7463 67 25.9899 67C26.2342 67 26.4778 66.9978 26.7206 66.9942C38.706 66.8359 51.0434 60.5205 51.9736 52.6345C52.0148 52.2724 51.7958 49.9293 51.6874 49.0013Z" fill="white"/>
</svg>
