<svg width="55" height="69" viewBox="0 0 55 69" fill="none" xmlns="http://www.w3.org/2000/svg">
<path d="M18.5517 50.6768C16.8337 50.6768 15.1872 49.6746 14.3997 48.1712L10.8204 41.0842L9.46027 40.4399L0.0824767 60.3409C-0.203868 60.9136 0.297235 61.5579 0.941511 61.4147L10.3193 59.625C10.6772 59.5535 10.9636 59.6966 11.1068 59.983L15.6883 68.287C15.9746 68.8597 16.7621 68.7881 17.0484 68.2154L26.4978 48.1712L19.9834 50.3188C19.4823 50.5336 19.0528 50.6768 18.5517 50.6768Z" fill="white"/>
<path d="M54.9178 60.3407L45.54 40.3682L44.1798 41.0124L40.6005 48.0995C39.8131 49.6744 38.2382 50.605 36.4485 50.605C35.9474 50.605 35.4463 50.5334 35.0168 50.3902L28.5024 48.2426L37.9518 68.2868C38.2382 68.8595 39.0256 68.8595 39.312 68.3584L43.8935 60.0544C44.0367 59.768 44.3946 59.6249 44.6809 59.6964L54.0587 61.4861C54.703 61.5577 55.2041 60.9134 54.9178 60.3407Z" fill="white"/>
<path d="M27.5 12.8076C21.1288 12.8076 15.9746 17.9618 15.9746 24.333C15.9746 30.7042 21.1288 35.93 27.5 35.93C33.8712 35.93 39.0254 30.7758 39.0254 24.4046C39.0254 18.0334 33.8712 12.8076 27.5 12.8076Z" fill="white"/>
<path d="M38.1663 46.8824L41.8888 39.5806C42.1035 39.2227 42.3899 38.9364 42.7478 38.7216L50.0496 34.9991C50.9086 34.5696 51.2666 33.5674 50.9802 32.7084L48.4747 24.9055C48.3315 24.5475 48.3315 24.118 48.4747 23.6885L50.9802 15.8856C51.2666 14.955 50.837 14.0244 50.0496 13.5948L42.7478 9.87237C42.3899 9.65761 42.1035 9.37126 41.8888 9.01333L38.1663 1.85471C37.7368 0.995676 36.7346 0.637745 35.8755 0.92409L28.0726 3.42961C27.7147 3.57278 27.2852 3.57278 26.8557 3.42961L19.1243 0.852504C18.1937 0.566159 17.2631 0.995676 16.8336 1.85471L13.1111 9.1565C12.8963 9.51444 12.61 9.80078 12.2521 10.0155L4.95027 13.738C4.09124 14.1675 3.66172 15.1697 4.01965 16.0288L6.52517 23.8317C6.66834 24.1896 6.66834 24.6191 6.52517 25.0486L4.01965 32.8515C3.73331 33.7822 4.16283 34.7128 4.95027 35.1423L12.2521 38.8648C12.61 39.0795 12.8963 39.3659 13.1111 39.7238L16.8336 47.0256C17.2631 47.8846 18.2653 48.2426 19.1243 47.9562L26.9272 45.4507C27.2852 45.3075 27.7147 45.3075 28.1442 45.4507L35.9471 47.9562C36.8061 48.0994 37.7368 47.7415 38.1663 46.8824ZM27.4999 38.65C19.6254 38.65 13.2543 32.2789 13.2543 24.4044C13.2543 16.5299 19.6254 10.1587 27.4999 10.1587C35.3744 10.1587 41.7456 16.5299 41.7456 24.4044C41.7456 32.2073 35.3744 38.65 27.4999 38.65Z" fill="white"/>
</svg>
