<svg width="68" height="67" viewBox="0 0 68 67" fill="none" xmlns="http://www.w3.org/2000/svg">
<path fill-rule="evenodd" clip-rule="evenodd" d="M33.6691 0C15.1688 0 0.169922 14.9989 0.169922 33.5009C0.169922 52.0011 15.1688 67 33.6691 67C52.171 67 67.1699 52.0011 67.1699 33.5009C67.1699 14.9989 52.171 0 33.6691 0ZM50.2901 48.2316L31.021 38.6004C29.6901 38.0827 28.7475 36.7893 28.7475 35.2779V20.1334C28.7475 18.1647 30.3449 16.5674 32.3127 16.5674C34.2813 16.5674 35.8787 18.1647 35.8787 20.1334V33.0896L53.4644 41.8795C55.2176 42.7548 55.9286 44.8903 55.0533 46.6427C54.178 48.395 52.0424 49.1069 50.2901 48.2316Z" fill="white"/>
</svg>
