<svg width="65" height="71" viewBox="0 0 65 71" fill="none" xmlns="http://www.w3.org/2000/svg">
<path d="M61.8303 0.0212402H21.8574C20.2603 0.0212402 18.9644 1.31727 18.9644 2.91426V3.81736H55.8799C58.662 3.81736 60.9245 6.07984 60.9245 8.86197V55.9839H61.8276C63.4247 55.9839 64.7206 54.6878 64.7206 53.0909V2.91158C64.7238 1.31452 63.4273 0.0212402 61.8303 0.0212402Z" fill="white"/>
<path d="M55.8798 5.96899H15.9101C14.313 5.96899 13.0171 7.26503 13.0171 8.86201V41.3728H14.744C16.6896 41.3728 18.3722 42.7607 18.7366 44.6746L19.0028 46.0688L19.7062 46.4808L21.053 46.0118C21.4807 45.8597 21.9338 45.7837 22.3901 45.7837C23.8383 45.7837 25.1849 46.5632 25.9074 47.818L27.6375 50.8155C28.6102 52.4981 28.249 54.6497 26.7756 55.9235L25.7046 56.8488V57.6694L26.7756 58.5947C27.761 59.4471 28.2015 60.6955 28.1223 61.9345H55.8868C57.4839 61.9345 58.7798 60.6385 58.7798 59.0415L58.7767 8.86221C58.7735 7.26198 57.4799 5.96899 55.8798 5.96899ZM22.3104 16.86H34.608C35.2037 16.86 35.6853 17.3416 35.6853 17.9373C35.6853 18.533 35.2037 19.0147 34.608 19.0147H22.3104C21.7147 19.0147 21.233 18.533 21.233 17.9373C21.233 17.3416 21.7147 16.86 22.3104 16.86ZM49.4787 51.0443H37.1778C36.5853 51.0443 36.1005 50.5626 36.1005 49.9669C36.1005 49.3712 36.5821 48.8896 37.1778 48.8896H49.4787C50.0712 48.8896 50.556 49.3712 50.556 49.9669C50.556 50.5626 50.0744 51.0443 49.4787 51.0443ZM49.4787 43.037H22.3104C21.7147 43.037 21.233 42.5553 21.233 41.9596C21.233 41.3639 21.7147 40.8823 22.3104 40.8823H49.4787C50.0712 40.8823 50.556 41.3639 50.556 41.9596C50.556 42.5553 50.0744 43.037 49.4787 43.037ZM49.4787 35.0296H22.3104C21.7147 35.0296 21.233 34.548 21.233 33.9523C21.233 33.3566 21.7147 32.875 22.3104 32.875H49.4787C50.0712 32.875 50.556 33.3566 50.556 33.9523C50.556 34.548 50.0744 35.0296 49.4787 35.0296ZM49.4787 27.0192H22.3104C21.7147 27.0192 21.233 26.5375 21.233 25.9418C21.233 25.3461 21.7147 24.8645 22.3104 24.8645H49.4787C50.0712 24.8645 50.556 25.3461 50.556 25.9418C50.556 26.5375 50.0744 27.0192 49.4787 27.0192Z" fill="white"/>
<path d="M13.0128 54.3076C11.3841 54.3076 10.0596 55.6321 10.0596 57.2577C10.0596 58.8864 11.3841 60.2109 13.0128 60.2109C14.6415 60.2109 15.966 58.8864 15.966 57.2577C15.966 55.629 14.6383 54.3076 13.0128 54.3076Z" fill="white"/>
<path d="M23.5464 58.6547V55.8599L25.3652 54.2882C26.056 53.6894 26.2303 52.6848 25.7708 51.8896L24.0407 48.892C23.5813 48.0998 22.6275 47.7449 21.7593 48.0427L19.4746 48.8349L17.0696 47.428L16.6197 45.0705C16.4486 44.1706 15.6627 43.5178 14.7438 43.5178L11.2836 43.521C10.3678 43.521 9.5788 44.1737 9.40772 45.0737L8.95776 47.4312L6.55275 48.8381L4.26813 48.0459C3.40307 47.7449 2.44612 48.1029 1.98666 48.8951L0.256559 51.8927C-0.202906 52.6849 -0.0317942 53.6926 0.662153 54.2914L2.481 55.8631V58.6579L0.662153 60.2295C-0.0286225 60.8284 -0.202898 61.8329 0.256559 62.6282L1.98666 65.6258C2.44612 66.418 3.39991 66.7729 4.26813 66.475L6.55275 65.6829L8.95776 67.0898L9.40772 69.4473C9.57883 70.3472 10.3647 71 11.2836 71L14.7438 70.9905C15.6595 70.9905 16.4486 70.3377 16.6197 69.4378L17.0696 67.0803L19.4746 65.6734L21.7593 66.4655C22.6243 66.7666 23.5813 66.4085 24.0407 65.6163L25.7708 62.6187C26.2303 61.8265 26.0592 60.8189 25.3652 60.22L23.5464 58.6547ZM13.0139 62.3652C10.1969 62.3652 7.90913 60.0774 7.90913 57.2573C7.90913 54.4434 10.1969 52.1525 13.0139 52.1525C15.8309 52.1525 18.1187 54.4403 18.1187 57.2573C18.1187 60.0743 15.8278 62.3652 13.0139 62.3652Z" fill="white"/>
</svg>
