<svg width="121" height="121" viewBox="0 0 121 121" fill="none" xmlns="http://www.w3.org/2000/svg">
<rect width="121" height="121" rx="20" fill="#F1F7FF"/>
<path d="M90.7298 37.099H87.7189V34.8364C87.7156 30.5106 84.2006 27.0033 79.8611 27H32.8611C28.5217 27.0033 25.0033 30.5106 25 34.8364V75.5123C25.0033 79.8381 28.5217 83.342 32.8611 83.3453H35.131V86.3467C35.131 88.2268 35.8787 90.0336 37.2173 91.3646C38.5525 92.6957 40.3617 93.4444 42.2511 93.4444H90.7294C92.6154 93.4444 94.428 92.6957 95.7632 91.3646C97.0984 90.0336 97.8495 88.2268 97.8495 86.3467V55.1741C97.8495 54.1925 97.0517 53.3972 96.0703 53.3972C95.0856 53.3972 94.2878 54.1925 94.2878 55.1741V86.3467C94.2878 87.2884 93.914 88.1902 93.2463 88.8557C92.5787 89.5212 91.6741 89.8939 90.7294 89.8939H42.2511C40.2849 89.8939 38.6893 88.3067 38.6893 86.3467V53.3272H50.5564C50.8702 53.3272 51.1773 53.2441 51.4477 53.0877L56.832 49.9731H96.071C96.5417 49.9731 96.9956 49.7868 97.3295 49.454C97.6634 49.1213 97.8502 48.6687 97.8502 48.1995V44.1965C97.8502 42.3131 97.0992 40.5096 95.764 39.1786C94.4287 37.8442 92.6158 37.099 90.7298 37.099ZM35.1314 44.1967V79.7981H32.8616C30.4849 79.7981 28.5622 77.8781 28.5622 75.5123V34.8364C28.5622 32.4672 30.4849 30.5505 32.8616 30.5505H79.8616C80.9998 30.5505 82.0947 30.9997 82.8992 31.805C83.707 32.607 84.161 33.6985 84.161 34.8364V37.0991H42.2516C38.3193 37.0991 35.1314 40.2769 35.1314 44.1967ZM94.2916 46.4228H56.3677C56.0573 46.4228 55.7502 46.506 55.4798 46.6624L50.0854 49.7769H38.6892V44.1966C38.6892 42.2367 40.2848 40.6461 42.251 40.6461H90.7293C91.674 40.6461 92.5787 41.0221 93.2462 41.6877C93.9138 42.3532 94.2877 43.2549 94.2877 44.1966L94.2916 46.4228ZM66.489 67.8452C68.9258 67.8652 71.1322 66.4177 72.0802 64.1815C73.0249 61.9454 72.5242 59.3599 70.8084 57.6363C69.0927 55.9126 66.5023 55.3902 64.2491 56.3185C61.9993 57.2436 60.5305 59.4365 60.5338 61.8622C60.5405 65.1465 63.1976 67.8153 66.489 67.8452ZM66.489 59.4232C67.4837 59.3999 68.395 59.9822 68.7889 60.8907C69.1861 61.8024 68.9892 62.8606 68.2948 63.5693C67.5972 64.2781 66.5423 64.4977 65.6211 64.1217C64.6998 63.749 64.0955 62.8539 64.0955 61.8623C64.0955 60.5346 65.1604 59.4532 66.489 59.4232ZM79.5139 76.6297C79.5139 74.5367 76.6999 72.4337 72.5708 71.3689V71.3655C69.0157 74.2072 63.9621 74.2072 60.4106 71.3655C56.2814 72.4304 53.4674 74.5334 53.4674 76.6264C53.4674 79.4648 58.8083 82.626 66.489 82.626C67.4736 82.626 68.2715 83.4213 68.2715 84.4029C68.2715 85.3811 67.4737 86.1764 66.489 86.1764C57.1855 86.1764 49.9056 81.987 49.9056 76.6297C49.9056 72.5834 54.0716 69.0695 60.5242 67.6955L60.5276 67.6922C61.1151 67.5657 61.7259 67.7421 62.1565 68.1647C64.5532 70.5439 68.4287 70.5439 70.8259 68.1647C71.2531 67.7421 71.8674 67.5657 72.4548 67.6922C78.9073 69.0964 83.0734 72.5837 83.0734 76.6298C83.0734 80.8791 78.6238 84.4462 71.6977 85.7174V85.714C71.2237 85.8239 70.7263 85.7373 70.319 85.4711C69.9118 85.2049 69.6314 84.7856 69.5446 84.3065C69.4545 83.8306 69.568 83.3382 69.855 82.9455C70.1388 82.5495 70.5761 82.2933 71.0567 82.2267C75.9537 81.3316 79.5153 78.9724 79.5153 76.6298L79.5139 76.6297Z" fill="#2639ED"/>
</svg>
