<svg width="121" height="121" viewBox="0 0 121 121" fill="none" xmlns="http://www.w3.org/2000/svg">
<rect width="121" height="121" rx="20" fill="#FFF2F8"/>
<path fill-rule="evenodd" clip-rule="evenodd" d="M28.8069 29H91.1931C94.392 29 97 31.618 97 34.8219V72.9932C97 74.5292 96.3255 76.1393 95.2913 77.1021L95.2946 77.1053C94.2443 78.1583 92.7893 78.8152 91.1931 78.8152H28.8069C25.6112 78.812 23 76.1972 23 72.99V34.8187C23 31.6147 25.6176 29 28.8069 29ZM56.4862 39.5236C52.9693 41.5587 52.5133 46.4243 55.4777 49.1066L51.3922 56.7318C49.9405 56.3583 48.3443 56.5321 46.9406 57.3436L46.9439 57.3468C44.095 58.9987 43.1282 62.631 44.7695 65.4808L44.7727 65.4776C46.4203 68.3338 50.0433 69.303 52.8857 67.6576L52.8825 67.6543C54.286 66.8397 55.2336 65.5452 55.6351 64.0994L64.2651 64.3666C65.1066 68.2983 69.5357 70.3174 73.0497 68.2823L73.0465 68.279C75.8954 66.6271 76.8621 62.9948 75.2209 60.1451L75.2177 60.1483C72.5808 55.5757 65.7556 56.471 64.352 61.5265L55.7318 61.2625C55.6066 60.6667 55.3818 60.0807 55.0638 59.5236L55.0606 59.5268C54.7394 58.973 54.3475 58.49 53.8979 58.081L57.9833 50.4526C59.435 50.8261 61.0313 50.6522 62.4349 49.8408L62.4317 49.8375C65.2805 48.1856 66.2473 44.5533 64.6061 41.7036L64.6029 41.7068C62.9552 38.8473 59.3319 37.8781 56.4862 39.5236ZM60.2634 41.6811C57.5847 40.963 55.4071 43.861 56.7689 46.2375L56.7721 46.2342C58.1372 48.6075 61.7344 48.1792 62.4538 45.4872C62.9003 43.8256 61.9239 42.1255 60.2634 41.6811ZM70.8881 60.1258C66.944 59.0663 65.3317 65.0686 69.2822 66.1313C73.2263 67.194 74.829 61.1852 70.8881 60.1258ZM50.7215 59.5011C46.7741 58.4416 45.1683 64.4472 49.1156 65.5066C53.0629 66.5693 54.6656 60.5605 50.7215 59.5011ZM45.3642 83.6231H74.6394C78.7345 83.6231 80.9121 88.6465 77.9443 91.6218C77.0997 92.4686 75.9273 92.9968 74.6394 92.9968L45.3642 93C41.2403 93 39.1044 87.9637 42.0593 85.0013C42.9071 84.1512 44.0763 83.6231 45.3642 83.6231ZM74.637 86.476H45.3642C42.9585 86.476 42.9585 90.1437 45.3642 90.1437H74.6394C77.0515 90.1437 77.033 86.476 74.637 86.476ZM91.194 31.8533H28.8079C27.1699 31.8533 25.8466 33.1993 25.8466 34.8223V72.9936C25.8466 74.623 27.1827 75.9625 28.8079 75.9625H91.194C92.0066 75.9625 92.7485 75.6276 93.285 75.0899L93.2882 75.0931C93.8245 74.5553 94.1554 73.8115 94.1554 72.9936V34.819C94.1554 33.1896 92.8193 31.8533 91.194 31.8533Z" fill="#FF007A"/>
</svg>
