<svg width="121" height="121" viewBox="0 0 121 121" fill="none" xmlns="http://www.w3.org/2000/svg">
<rect width="121" height="121" rx="20" fill="#FFF7E3"/>
<path fill-rule="evenodd" clip-rule="evenodd" d="M52.0087 75.0346H42.722C42.4241 75.0009 42.123 75.0567 41.8564 75.1949C41.5899 75.3331 41.3697 75.5476 41.2235 75.8115C41.1521 75.9783 41.1152 76.1582 41.1152 76.3399C41.1152 76.5216 41.1521 76.7015 41.2235 76.8683C41.3695 77.1324 41.5896 77.3472 41.8562 77.4855C42.1228 77.6239 42.424 77.6798 42.722 77.6461H52.0087C52.3067 77.6799 52.6079 77.6241 52.8745 77.4857C53.1412 77.3473 53.3612 77.1325 53.5071 76.8683C53.5786 76.7015 53.6154 76.5216 53.6154 76.3399C53.6154 76.1582 53.5786 75.9783 53.5071 75.8115C53.361 75.5475 53.1409 75.333 52.8743 75.1948C52.6077 75.0565 52.3066 75.0008 52.0087 75.0346ZM43.4676 72.7671H51.2639C51.5618 72.8013 51.8631 72.7457 52.1297 72.6075C52.3964 72.4692 52.6165 72.2544 52.7623 71.9903C52.8337 71.8234 52.8706 71.6436 52.8706 71.4618C52.8706 71.2801 52.8337 71.1003 52.7623 70.9334C52.6165 70.6692 52.3964 70.4545 52.1297 70.3162C51.8631 70.178 51.5618 70.1224 51.2639 70.1565H43.4676C43.1697 70.1225 42.8685 70.1781 42.6019 70.3164C42.3352 70.4546 42.1151 70.6693 41.9692 70.9334C41.8978 71.1003 41.8609 71.2801 41.8609 71.4618C41.8609 71.6436 41.8978 71.8234 41.9692 71.9903C42.1151 72.2544 42.3352 72.4691 42.6019 72.6073C42.8685 72.7455 43.1697 72.8011 43.4676 72.7671ZM43.8599 79.9127C43.5619 79.8789 43.2607 79.9346 42.994 80.073C42.7274 80.2114 42.5073 80.4262 42.3614 80.6904C42.2901 80.8572 42.2534 81.0368 42.2534 81.2184C42.2534 81.4 42.2901 81.5796 42.3614 81.7464C42.5073 82.0106 42.7274 82.2254 42.994 82.3638C43.2607 82.5022 43.5619 82.5579 43.8599 82.5241H50.8716C51.1696 82.5578 51.4708 82.502 51.7374 82.3636C52.004 82.2252 52.2241 82.0105 52.3701 81.7464C52.4414 81.5796 52.4782 81.4 52.4782 81.2184C52.4782 81.0368 52.4414 80.8572 52.3701 80.6904C52.2241 80.4263 52.004 80.2116 51.7374 80.0732C51.4708 79.9348 51.1696 79.879 50.8716 79.9127H43.8599ZM45.3583 84.7907C45.0603 84.7567 44.759 84.8124 44.4923 84.9508C44.2256 85.0892 44.0056 85.3041 43.8599 85.5685C43.7886 85.7352 43.7518 85.9149 43.7518 86.0965C43.7518 86.278 43.7886 86.4577 43.8599 86.6244C44.0056 86.8888 44.2256 87.1037 44.4923 87.2421C44.759 87.3806 45.0603 87.4362 45.3583 87.4022H49.3653C49.6632 87.436 49.9643 87.3803 50.2309 87.242C50.4975 87.1038 50.7176 86.8893 50.8637 86.6253C50.9351 86.4585 50.972 86.2786 50.972 86.0969C50.972 85.9152 50.9351 85.7353 50.8637 85.5685C50.7178 85.3043 50.4977 85.0895 50.2311 84.9511C49.9645 84.8127 49.6633 84.7569 49.3653 84.7907H45.3618H45.3583ZM29.3471 69.169H23.6328C23.5307 69.1688 23.4326 69.209 23.3596 69.281C23.3236 69.3166 23.2951 69.3591 23.2755 69.4059C23.256 69.4528 23.2459 69.5031 23.2459 69.5539V87.2146C23.2466 87.3173 23.2873 87.4156 23.3592 87.4882C23.431 87.5609 23.5284 87.6021 23.6302 87.6031H29.3471C29.4489 87.6019 29.5462 87.5606 29.6182 87.488C29.6902 87.4154 29.7312 87.3173 29.7323 87.2146V69.5566C29.7309 69.4541 29.6899 69.3562 29.6179 69.2837C29.546 69.2113 29.4488 69.1702 29.3471 69.169ZM27.3445 85.5623C27.1916 85.8139 26.9472 85.9953 26.6635 86.0677C26.3797 86.1401 26.0792 86.0977 25.826 85.9496C25.5728 85.8015 25.3871 85.5595 25.3085 85.2752C25.2299 84.9909 25.2647 84.6869 25.4054 84.4281L25.4812 84.2965C25.635 84.0471 25.8791 83.8678 26.1618 83.7967C26.4444 83.7256 26.7434 83.7682 26.9954 83.9155C27.2474 84.0628 27.4327 84.3032 27.512 84.5859C27.5913 84.8685 27.5585 85.1712 27.4203 85.4298L27.3445 85.5623ZM54.9209 48.3315L53.9866 46.0276L53.0928 48.2444C53.0254 48.4615 52.8946 48.6532 52.7176 48.7943C52.5406 48.9354 52.3255 49.0194 52.1004 49.0355L49.6491 49.2186L51.5283 50.8185C51.6871 50.9539 51.8054 51.1313 51.87 51.3306C51.9346 51.53 51.943 51.7435 51.8941 51.9474L51.3062 54.3668L53.3793 53.0682C53.5571 52.9524 53.7639 52.8897 53.9756 52.8875C54.1873 52.8853 54.3952 52.9437 54.5754 53.0558L56.6732 54.3668L56.0994 52.006C56.0371 51.795 56.0373 51.5702 56.0999 51.3592C56.1626 51.1482 56.2849 50.9603 56.452 50.8185L58.3312 49.2186L55.8799 49.0355C55.6714 49.0207 55.4711 48.9472 55.3019 48.8234C55.1327 48.6996 55.0013 48.5304 54.9227 48.335L54.9209 48.3315ZM55.0232 42.6206L56.7287 46.8293L61.2293 47.1644C61.456 47.1798 61.6728 47.2642 61.8509 47.4065C62.029 47.5487 62.1602 47.7421 62.227 47.9611C62.2939 48.1801 62.2933 48.4144 62.2253 48.633C62.1573 48.8517 62.0252 49.0444 61.8463 49.1857L58.4325 52.0967L59.5079 56.5197C59.5608 56.7401 59.5467 56.9715 59.4673 57.1837C59.388 57.396 59.2472 57.5792 59.0632 57.7096C58.8792 57.84 58.6605 57.9116 58.4357 57.915C58.2108 57.9183 57.9901 57.8534 57.8023 57.7285L53.991 55.349L50.1524 57.749C49.9636 57.8661 49.7445 57.9241 49.5229 57.9155C49.3014 57.907 49.0873 57.8323 48.9079 57.7009C48.7285 57.5695 48.5919 57.3873 48.5153 57.1775C48.4387 56.9677 48.4256 56.7397 48.4777 56.5223L49.553 52.0994L46.0987 49.1572C45.9285 49.0118 45.8052 48.8186 45.7445 48.6022C45.6837 48.3858 45.6883 48.156 45.7577 47.9422C45.827 47.7285 45.9579 47.5404 46.1338 47.402C46.3096 47.2636 46.5223 47.1812 46.7448 47.1653L51.2454 46.8302L52.9509 42.6215C53.0347 42.4137 53.1781 42.2358 53.3627 42.1106C53.5472 41.9853 53.7646 41.9184 53.9871 41.9184C54.2095 41.9184 54.4269 41.9853 54.6115 42.1106C54.796 42.2358 54.9394 42.4137 55.0232 42.6215V42.6206ZM73.5737 48.3315L72.6394 46.0276L71.7413 48.2444C71.6738 48.4615 71.543 48.6532 71.366 48.7943C71.189 48.9354 70.9739 49.0194 70.7488 49.0355L68.2975 49.2186L70.1767 50.8185C70.3354 50.9541 70.4535 51.1314 70.5181 51.3307C70.5827 51.53 70.5912 51.7435 70.5425 51.9474L69.9537 54.3668L72.0321 53.0682C72.21 52.9524 72.4167 52.8897 72.6284 52.8875C72.8401 52.8853 73.0481 52.9437 73.2282 53.0558L75.326 54.3668L74.7522 52.006C74.6899 51.795 74.6901 51.5702 74.7527 51.3592C74.8154 51.1482 74.9377 50.9603 75.1048 50.8185L76.984 49.2186L74.5327 49.0355C74.3242 49.0207 74.1239 48.9472 73.9547 48.8234C73.7855 48.6996 73.6541 48.5304 73.5755 48.335L73.5737 48.3315ZM73.676 42.6206L75.3816 46.8293L79.8821 47.1644C80.1085 47.1806 80.3246 47.2656 80.5021 47.4082C80.6796 47.5507 80.8101 47.7442 80.8765 47.963C80.9428 48.1818 80.9418 48.4158 80.8737 48.634C80.8055 48.8523 80.6734 49.0446 80.4947 49.1857L77.081 52.0967L78.1554 56.5197C78.2088 56.7402 78.195 56.9718 78.1158 57.1843C78.0367 57.3969 77.8958 57.5803 77.7116 57.7109C77.5274 57.8414 77.3085 57.9129 77.0834 57.9161C76.8583 57.9192 76.6375 57.8539 76.4499 57.7285L72.6394 55.349L68.8008 57.749C68.612 57.8661 68.3929 57.9241 68.1713 57.9155C67.9498 57.907 67.7357 57.8323 67.5563 57.7009C67.3769 57.5695 67.2403 57.3873 67.1637 57.1775C67.0871 56.9677 67.074 56.7397 67.1261 56.5223L68.2014 52.0994L64.7515 49.1572C64.5814 49.0118 64.458 48.8186 64.3973 48.6022C64.3365 48.3858 64.3411 48.156 64.4105 47.9422C64.4798 47.7285 64.6107 47.5404 64.7866 47.402C64.9624 47.2636 65.1751 47.1812 65.3976 47.1653L69.8982 46.8302L71.6029 42.6206C71.6867 42.4128 71.83 42.2349 72.0146 42.1097C72.1991 41.9844 72.4165 41.9175 72.639 41.9175C72.8614 41.9175 73.0788 41.9844 73.2634 42.1097C73.448 42.2349 73.5922 42.4128 73.676 42.6206ZM77.4388 25.7953H85.4325C87.7029 25.8014 89.8785 26.7137 91.484 28.3326C93.0894 29.9515 93.994 32.1455 94 34.4351V91.3603C93.9944 93.6499 93.09 95.8442 91.4845 97.4633C89.879 99.0823 87.703 99.9944 85.4325 100H41.1936C38.9232 99.9941 36.7475 99.082 35.1422 97.463C33.5368 95.8439 32.6325 93.6498 32.6269 91.3603V89.1781C32.4166 89.0923 32.2107 88.9959 32.0099 88.8893C31.8613 88.8093 31.7144 88.7239 31.5692 88.6333C31.4651 88.7988 31.3434 88.9523 31.2061 89.091C30.9621 89.338 30.6721 89.5339 30.3527 89.6675C30.0334 89.8011 29.6911 89.8698 29.3454 89.8697H23.6328C22.9348 89.8687 22.2657 89.5887 21.7722 89.091C21.2786 88.5933 21.0009 87.9185 21 87.2146V69.5566C21 69.208 21.0682 68.8628 21.2007 68.5408C21.3332 68.2188 21.5274 67.9264 21.7721 67.6802H21.7765C22.02 67.4338 22.3093 67.2381 22.6278 67.1045C22.9463 66.9709 23.2879 66.902 23.6328 66.9015H29.3471C29.9337 66.9021 30.5033 67.0995 30.9662 67.4628C31.429 67.8261 31.7588 68.3345 31.9033 68.9077C32.0036 68.8667 32.1011 68.8189 32.195 68.7646C32.3449 68.6621 32.4897 68.5569 32.6296 68.449V34.4351C32.6356 32.1457 33.5401 29.9518 35.1453 28.3329C36.7505 26.714 38.926 25.8017 41.1962 25.7953H49.1899V24.8176C49.1899 24.517 49.3083 24.2288 49.519 24.0162C49.7298 23.8037 50.0156 23.6843 50.3137 23.6843H56.5392C57.0128 22.6513 57.7905 21.7907 58.7666 21.2195C60.1519 20.4204 61.7202 20 63.3161 20C64.912 20 66.4803 20.4204 67.8656 21.2195C68.8415 21.7909 69.6192 22.6515 70.093 23.6843H76.3176C76.6157 23.6843 76.9015 23.8037 77.1123 24.0162C77.3231 24.2288 77.4415 24.517 77.4415 24.8176V25.7953H77.4388ZM37.3056 59.724V34.4351C37.3079 33.3959 37.7183 32.4 38.4469 31.6653C39.1755 30.9305 40.1631 30.5166 41.1936 30.5143H49.1872V28.0628H41.1936C39.5194 28.0687 37.9156 28.7419 36.7318 29.9357C35.548 31.1294 34.8804 32.7468 34.8746 34.4351V65.8429C35.7117 64.2829 36.3874 62.6403 36.8913 60.9408C37.0253 60.5444 37.1557 60.1409 37.3056 59.724ZM39.5153 60.204C39.6184 59.9089 39.7216 59.6218 39.8229 59.348C40.2478 58.2085 40.7299 57.6592 41.1821 57.549C41.3616 57.5109 41.5487 57.5373 41.711 57.6236C41.9952 57.775 42.2408 57.9907 42.4284 58.2538C42.8898 58.954 43.1883 59.7502 43.3019 60.583C43.4154 61.4158 43.341 62.2637 43.0842 63.0634L41.6343 68.2722C40.8817 68.6223 40.2792 69.2337 39.9366 69.9948C39.6806 70.5602 39.577 71.1837 39.6365 71.8023C39.6959 72.421 39.9162 73.0129 40.2751 73.5182C39.8063 73.8702 39.4336 74.3362 39.1918 74.8728C38.9818 75.3327 38.873 75.8331 38.873 76.3394C38.873 76.8458 38.9818 77.3462 39.1918 77.8061C39.4787 78.445 39.9507 78.9815 40.5457 79.3447C40.2367 79.8391 40.0551 80.4035 40.0172 80.9867C39.9794 81.5698 40.0865 82.1533 40.3289 82.6841C40.6607 83.4214 41.2375 84.0188 41.9595 84.373C41.9137 84.4565 41.8714 84.541 41.8317 84.6272C41.6332 85.0609 41.525 85.5311 41.5136 86.0087C41.5022 86.4862 41.588 86.9611 41.7656 87.404H38.5308C38.4981 87.404 38.4646 87.404 38.432 87.404C38.3994 87.404 38.3659 87.404 38.3333 87.404H35.0033C34.322 87.3897 33.6536 87.2134 33.0527 86.8893C32.6348 86.6802 32.2684 86.3799 31.98 86.0102V71.3289C32.128 71.2641 32.3325 71.1752 32.5282 71.0925C32.8448 70.9703 33.1499 70.8194 33.4396 70.6419C36.7494 68.4002 37.8274 65.1994 39.0164 61.6644C39.1636 61.2288 39.3117 60.7871 39.4571 60.3595C39.4793 60.3083 39.4975 60.2554 39.5118 60.2013L39.5153 60.204ZM51.4358 31.6467V32.6022H75.1912V25.958H69.2697C69.007 25.9578 68.7527 25.8644 68.5513 25.6943C68.3499 25.5242 68.2142 25.2881 68.1679 25.0274C68.0646 24.6301 67.8802 24.2589 67.6266 23.9375C67.373 23.6161 67.0557 23.3516 66.6951 23.1608C65.6604 22.5819 64.4967 22.2782 63.3135 22.2782C62.1303 22.2782 60.9665 22.5819 59.9319 23.1608C59.5836 23.3474 59.2755 23.6018 59.0253 23.9092C58.775 24.2166 58.5877 24.571 58.474 24.9518C58.443 25.2286 58.312 25.4842 58.106 25.6698C57.9 25.8554 57.6334 25.958 57.3572 25.958H51.4358V31.6467ZM85.5762 84.7587H81.0165C80.5824 84.7608 80.1666 84.9357 79.8596 85.2453C79.5526 85.5549 79.3792 85.9742 79.3771 86.412V91.3194L85.5762 84.7587ZM77.1285 93.0145H41.1936C40.7592 93.0123 40.3433 92.8374 40.0363 92.5276C39.7292 92.2178 39.5559 91.7983 39.5541 91.3603V89.6652H45.1494C45.219 89.6652 45.2904 89.6652 45.3618 89.6652H49.3688C50.0986 89.7092 50.8247 89.5322 51.4541 89.157C52.0834 88.7818 52.5872 88.2255 52.9007 87.5595C53.1108 87.0996 53.2195 86.5993 53.2195 86.0929C53.2195 85.5865 53.1108 85.0862 52.9007 84.6263C52.8619 84.5374 52.8196 84.4556 52.7738 84.3721C53.4954 84.0176 54.0718 83.4203 54.4035 82.6832C54.6138 82.2234 54.7226 81.723 54.7226 81.2166C54.7226 80.7102 54.6138 80.2099 54.4035 79.75C54.34 79.6102 54.2678 79.4746 54.1876 79.3438C54.7821 78.9803 55.2538 78.4439 55.5406 77.8052C55.7512 77.3454 55.8603 76.845 55.8603 76.3386C55.8603 75.8321 55.7512 75.3317 55.5406 74.8719C55.2994 74.3352 54.927 73.8691 54.4582 73.5173C54.5889 73.332 54.7019 73.1347 54.7958 72.928C55.0058 72.4681 55.1146 71.9677 55.1146 71.4614C55.1146 70.955 55.0058 70.4547 54.7958 69.9948C54.4821 69.3289 53.9783 68.7726 53.349 68.3974C52.7197 68.0222 51.9936 67.8452 51.2639 67.8891H44.0688L45.2411 63.6741C45.5885 62.5347 45.6752 61.3306 45.4946 60.1525C45.314 58.9744 44.8708 57.853 44.1983 56.8725C43.7951 56.325 43.2693 55.8812 42.6638 55.5775C42.0409 55.268 41.3301 55.1884 40.655 55.3526C40.2575 55.452 39.8834 55.6297 39.5541 55.8752V34.4351C39.5559 33.9972 39.7293 33.5777 40.0363 33.2681C40.3434 32.9584 40.7593 32.7837 41.1936 32.7818H49.1872V33.7346C49.1872 34.0352 49.3056 34.3235 49.5164 34.536C49.7272 34.7485 50.013 34.8679 50.3111 34.8679H76.3132C76.6113 34.8679 76.8971 34.7485 77.1079 34.536C77.3186 34.3235 77.4371 34.0352 77.4371 33.7346V32.7818H85.4325C85.8668 32.7837 86.2828 32.9584 86.59 33.268C86.8972 33.5776 87.0708 33.9971 87.0728 34.4351V82.4895H81.0165C79.9861 82.4918 78.9985 82.9057 78.2699 83.6404C77.5413 84.3752 77.1309 85.3711 77.1285 86.4102V93.0127V93.0145ZM78.2533 95.281H78.3414H78.3582H78.3705H78.3855H78.3943H78.4101H78.4216H78.4419H78.4507H78.4666H78.4754H78.4895H78.5071H78.5124H78.5238L78.5432 95.2757H78.5503L78.5706 95.2695H78.5785L78.5988 95.2633L78.6208 95.2562L78.6543 95.2064H78.664L78.6843 95.1984L78.7037 95.1895H78.7081L78.7239 95.1824L78.7372 95.1762L78.7477 95.1708L78.7654 95.161H78.7715L78.7848 95.1539L78.7953 95.1477L78.8086 95.1397H78.8138L78.8279 95.1308L78.8456 95.1193H78.85L78.865 95.1086H78.8711L78.887 95.0971L78.8949 95.0908H78.8993L78.9108 95.0811L78.924 95.0704L78.9311 95.0642L78.9425 95.0544L78.9513 95.0473L78.9681 95.0322L78.9848 95.0171L78.9963 95.0055H79.0007L79.0113 94.9948L79.0166 94.9886C79.028 94.9771 79.0386 94.9655 79.0492 94.9531L79.0633 94.9353L88.9529 84.4636C89.069 84.3577 89.1617 84.2283 89.225 84.0839C89.2883 83.9395 89.3209 83.7833 89.3205 83.6254V34.4351C89.3184 33.3959 88.9081 32.3998 88.1794 31.665C87.4507 30.9302 86.463 30.5164 85.4325 30.5143H77.4388V28.0628H85.4325C87.1068 28.0682 88.7109 28.7413 89.8948 29.9352C91.0787 31.129 91.7461 32.7467 91.7515 34.4351V91.3603C91.7466 93.0488 91.0793 94.6667 89.8953 95.8607C88.7113 97.0547 87.1069 97.7276 85.4325 97.7325H41.1936C39.5193 97.7271 37.9152 97.054 36.7313 95.8602C35.5474 94.6663 34.8799 93.0486 34.8746 91.3603V89.6715H35.0033H37.3056V91.3603C37.3077 92.3995 37.718 93.3955 38.4466 94.1303C39.1753 94.8652 40.163 95.2789 41.1936 95.281H78.2533ZM78.0285 65.4385H58.7252C58.4325 65.4467 58.1545 65.5698 57.9503 65.7815C57.7462 65.9932 57.632 66.2769 57.632 66.5722C57.632 66.8675 57.7462 67.1512 57.9503 67.3629C58.1545 67.5746 58.4325 67.6977 58.7252 67.706H78.0285C78.1788 67.7102 78.3284 67.684 78.4685 67.6289C78.6085 67.5739 78.7363 67.491 78.8441 67.3854C78.9518 67.2797 79.0375 67.1532 79.096 67.0136C79.1545 66.8739 79.1847 66.7238 79.1847 66.5722C79.1847 66.4206 79.1545 66.2705 79.096 66.1309C79.0375 65.9912 78.9518 65.8648 78.8441 65.7591C78.7363 65.6534 78.6085 65.5706 78.4685 65.5155C78.3284 65.4604 78.1788 65.4342 78.0285 65.4385ZM78.0285 71.4338H58.7252C58.4325 71.4421 58.1545 71.5652 57.9503 71.7769C57.7462 71.9886 57.632 72.2723 57.632 72.5676C57.632 72.8629 57.7462 73.1465 57.9503 73.3583C58.1545 73.57 58.4325 73.693 58.7252 73.7013H78.0285C78.1788 73.7056 78.3284 73.6794 78.4685 73.6243C78.6085 73.5692 78.7363 73.4864 78.8441 73.3807C78.9518 73.275 79.0375 73.1486 79.096 73.0089C79.1545 72.8693 79.1847 72.7192 79.1847 72.5676C79.1847 72.416 79.1545 72.2659 79.096 72.1262C79.0375 71.9866 78.9518 71.8601 78.8441 71.7544C78.7363 71.6487 78.6085 71.5659 78.4685 71.5108C78.3284 71.4558 78.1788 71.4296 78.0285 71.4338ZM78.0285 77.4301H58.7252C58.4325 77.4383 58.1545 77.5614 57.9503 77.7731C57.7462 77.9849 57.632 78.2685 57.632 78.5638C57.632 78.8591 57.7462 79.1428 57.9503 79.3545C58.1545 79.5662 58.4325 79.6893 58.7252 79.6976H78.0285C78.1788 79.7018 78.3284 79.6756 78.4685 79.6206C78.6085 79.5655 78.7363 79.4827 78.8441 79.377C78.9518 79.2713 79.0375 79.1448 79.096 79.0052C79.1545 78.8655 79.1847 78.7154 79.1847 78.5638C79.1847 78.4122 79.1545 78.2621 79.096 78.1225C79.0375 77.9828 78.9518 77.8564 78.8441 77.7507C78.7363 77.645 78.6085 77.5622 78.4685 77.5071C78.3284 77.452 78.1788 77.4258 78.0285 77.4301Z" fill="#FF9900"/>
</svg>
