<svg xmlns="http://www.w3.org/2000/svg" xmlns:xlink="http://www.w3.org/1999/xlink" version="1.1" x="0px" y="0px" viewBox="0 0 100 125" style="enable-background:new 0 0 100 100;" xml:space="preserve"><path d="M23.1608582,77.6092606c2.3664837-1.5472488,3.9345551-4.2187729,3.9345551-7.251091  c0-4.7746124-3.8845196-8.6590271-8.659029-8.6590271c-4.7747145,0-8.659234,3.8844147-8.659234,8.6590271  c0,3.032341,1.5680714,5.7038727,3.9346571,7.251091C6.8347011,79.6505661,1.8026499,86.0247421,1.8026499,93.555397  c0,0.5786285,0.46904,1.0477676,1.0477685,1.0477676h31.1719322c0.5787277,0,1.0477676-0.4691391,1.0477676-1.0477676  C35.070118,86.0247192,30.0379639,79.6505203,23.1608582,77.6092606z M11.8726873,70.3581696  c0-3.6190948,2.9443932-6.563488,6.5636969-6.563488c3.6190987,0,6.5634918,2.9443932,6.5634918,6.563488  c0,3.6192017-2.9443932,6.5635986-6.5634918,6.5635986C14.8170805,76.9217682,11.8726873,73.9773712,11.8726873,70.3581696z   M3.9354317,92.5076294c0.5388229-7.5291977,6.836894-13.4903259,14.5009527-13.4903259s13.9621296,5.9611282,14.5009518,13.4903259  H3.9354317z M86.2880936,77.6092377c2.366478-1.547226,3.9345551-4.21875,3.9345551-7.2510681  c0-4.7746124-3.8845215-8.6590271-8.6592407-8.6590271c-4.7745056,0-8.6590271,3.8844147-8.6590271,8.6590271  c0,3.032341,1.5680771,5.7038956,3.9346619,7.2511215c-6.8771057,2.0413055-11.9091568,8.4154739-11.9091568,15.946106  c0,0.5786285,0.4690399,1.0477676,1.0477676,1.0477676h31.1719284c0.5787277,0,1.0477676-0.4691391,1.0477676-1.0477676  C98.1973495,86.0246887,93.1651993,79.6504898,86.2880936,77.6092377z M74.9999161,70.3581696  c0-3.6190948,2.944397-6.563488,6.5634918-6.563488c3.6193085,0,6.5636978,2.9443932,6.5636978,6.563488  c0,3.6192017-2.9443893,6.5635986-6.5636978,6.5635986C77.944313,76.9217682,74.9999161,73.9773712,74.9999161,70.3581696z   M67.0626678,92.5076294c0.5388184-7.5291977,6.8368912-13.4903259,14.500946-13.4903259  s13.9621277,5.9611282,14.5009537,13.4903259H67.0626678z M74.5298538,61.9310036  c0.2032089,0,0.4070358-0.0590401,0.584259-0.1781425c0.3779678-0.2539597,0.548439-0.7228966,0.4221725-1.1603203  l-2.2322388-7.7307701c4.2817307-0.6583366,7.5711517-4.3674774,7.5711517-8.8305206V14.3311062  c0-4.9263535-4.0079193-8.9342728-8.9342728-8.9342728H28.0588684c-4.9263535,0-8.9342728,4.0079193-8.9342728,8.9342728V44.03125  c0,4.4630432,3.2894211,8.172184,7.5711498,8.8305206l-2.2322369,7.7307701  c-0.1262646,0.4374237,0.0442028,0.9063606,0.4221764,1.1603203c0.3777695,0.2539635,0.876688,0.234726,1.2337894-0.0472717  l11.0709438-8.7400665h25.6189613l11.0709457,8.7400665C74.0702286,61.8553886,74.2996368,61.9310036,74.5298538,61.9310036z   M63.8223572,51.0953979c-0.1849937-0.1460114-0.413784-0.2254143-0.6493301-0.2254143H36.826767  c-0.2355423,0-0.4643326,0.0794029-0.6493301,0.2254143l-8.7955246,6.943615l1.6835918-5.8305664  c0.0914745-0.3163757,0.0286503-0.6573105-0.169239-0.9204788c-0.1978893-0.2631721-0.5081272-0.417984-0.8373966-0.417984  c-3.7709427,0-6.8387356-3.067894-6.8387356-6.8387337V14.3311062c0-3.7708406,3.0677929-6.8387361,6.8387356-6.8387361h43.8820572  c3.7709427,0,6.8387375,3.0678954,6.8387375,6.8387361V44.03125c0,3.7708397-3.0677948,6.8387337-6.8387375,6.8387337  c-0.3292694,0-0.6395035,0.1548119-0.8373947,0.417984c-0.1978912,0.2631683-0.2605133,0.6041031-0.1692429,0.9204788  l1.6835938,5.8305664L63.8223572,51.0953979z M50,11.2700672c-6.9138412,0-12.5386391,5.6247978-12.5386391,12.5385342  c0,3.0685081,1.1204185,6.0217018,3.1549721,8.3156395c0.793808,0.8949013,1.1795578,1.9114609,1.1795578,3.1075935  c0,1.7276955,1.4056892,3.1332817,3.1332779,3.1332817h10.1414566c1.7275925,0,3.1332779-1.4055862,3.1332779-3.1332817  c0-1.1960297,0.3859558-2.2124863,1.1795578-3.1075935c2.0345535-2.2938347,3.1549721-5.2470284,3.1549721-8.3156395  C62.5384331,16.894865,56.9136353,11.2700672,50,11.2700672z M57.8156967,30.733799  c-1.1329002,1.2775803-1.7073288,2.7909126-1.7073288,4.4980354c0,0.5721817-0.4655609,1.0377426-1.0377426,1.0377426H44.9291687  c-0.5721779,0-1.0377426-0.4655609-1.0377426-1.0377426c0-1.7073288-0.5744286-3.2207603-1.7075348-4.4980354  C40.4898643,28.8235664,39.5569,26.3641739,39.5569,23.8086014c0-5.7583256,4.6846695-10.4429979,10.4431-10.4429979  c5.7582245,0,10.442894,4.6846724,10.442894,10.4429979C60.442894,26.3642769,59.5099297,28.8236675,57.8156967,30.733799z   M56.1382446,40.1278c0,0.5786247-0.4690399,1.0477676-1.0477676,1.0477676h-10.18116  c-0.5787277,0-1.0477676-0.4691429-1.0477676-1.0477676s0.4690399-1.0477676,1.0477676-1.0477676h10.18116  C55.6692047,39.0800323,56.1382446,39.5491753,56.1382446,40.1278z M48.9776077,16.6155281  c0.1631012,0.5550919-0.1545067,1.1375046-0.7097015,1.3006039c-2.3503151,0.6907692-4.0629654,2.7079296-4.3633804,5.1391811  c-0.0654869,0.5306377-0.5171318,0.9193554-1.038559,0.9193554c-0.0427704,0-0.0861549-0.0026608-0.1297455-0.0079803  c-0.5742264-0.0710106-0.9822807-0.5940762-0.9112701-1.1684055c0.4027367-3.2606678,2.6998444-5.9661407,5.8519478-6.8925562  C48.2320938,15.7416029,48.8143044,16.0603333,48.9776077,16.6155281z M56.1382446,42.9382553  c0,0.5786247-0.4690399,1.0477676-1.0477676,1.0477676h-10.18116c-0.5787277,0-1.0477676-0.4691429-1.0477676-1.0477676  s0.4690399-1.0477676,1.0477676-1.0477676h10.18116C55.6692047,41.8904877,56.1382446,42.3596306,56.1382446,42.9382553z   M54.151989,45.7486076c0,0.5786247-0.4690437,1.0477676-1.0477715,1.0477676h-6.2084351  c-0.5787277,0-1.0477715-0.4691429-1.0477715-1.0477676s0.4690437-1.0477676,1.0477715-1.0477676h6.2084351  C53.6829453,44.70084,54.151989,45.1699829,54.151989,45.7486076z"/><text x="0" y="115" fill="#000000" font-size="5px" font-weight="bold" font-family="'Helvetica Neue', Helvetica, Arial-Unicode, Arial, Sans-serif">Created by miftakhudin</text><text x="0" y="120" fill="#000000" font-size="5px" font-weight="bold" font-family="'Helvetica Neue', Helvetica, Arial-Unicode, Arial, Sans-serif">from the Noun Project</text></svg>