<svg width="114" height="113" viewBox="0 0 114 113" fill="none" xmlns="http://www.w3.org/2000/svg">
<circle cx="56.7684" cy="56.5211" r="55.7734" stroke="#474E58" stroke-width="1.16667"/>
<path d="M57.4434 51.6634V58.5335C57.4434 61.5142 57.1253 64.086 56.4892 66.2488C55.8531 68.3934 54.9352 70.1564 53.7357 71.5377C52.5543 72.9008 51.1458 73.9095 49.51 74.5638C47.8743 75.2181 46.0568 75.5452 44.0575 75.5452C42.4581 75.5452 40.9678 75.3453 39.5865 74.9455C38.2052 74.5275 36.9602 73.8822 35.8516 73.0098C34.7611 72.1375 33.816 71.0379 33.0163 69.7111C32.2348 68.3662 31.635 66.7668 31.217 64.9129C30.7989 63.0591 30.5899 60.9326 30.5899 58.5335V51.6634C30.5899 48.6827 30.908 46.1291 31.5441 44.0027C32.1984 41.858 33.1162 40.1042 34.2976 38.741C35.4972 37.3779 36.9148 36.3783 38.5505 35.7422C40.1863 35.0879 42.0038 34.7607 44.003 34.7607C45.6024 34.7607 47.0837 34.9698 48.4468 35.3878C49.8281 35.7876 51.0731 36.4147 52.1817 37.2689C53.2904 38.1231 54.2355 39.2227 55.017 40.5676C55.7985 41.8944 56.3983 43.4847 56.8163 45.3385C57.2343 47.1742 57.4434 49.2825 57.4434 51.6634ZM49.5645 59.5695V50.6002C49.5645 49.1644 49.4827 47.9103 49.3192 46.838C49.1738 45.7657 48.9466 44.8569 48.6376 44.1117C48.3286 43.3484 47.947 42.7304 47.4926 42.2579C47.0382 41.7853 46.5202 41.44 45.9386 41.2219C45.357 41.0038 44.7118 40.8948 44.003 40.8948C43.1124 40.8948 42.3218 41.0674 41.6312 41.4128C40.9587 41.7581 40.3862 42.3124 39.9137 43.0758C39.4411 43.8209 39.0776 44.8206 38.8232 46.0746C38.5869 47.3105 38.4688 48.819 38.4688 50.6002V59.5695C38.4688 61.0053 38.5415 62.2685 38.6868 63.359C38.8504 64.4495 39.0867 65.3855 39.3957 66.167C39.7228 66.9303 40.1045 67.5574 40.5407 68.0481C40.9951 68.5206 41.513 68.866 42.0946 69.0841C42.6944 69.3022 43.3487 69.4112 44.0575 69.4112C44.9299 69.4112 45.7024 69.2386 46.3748 68.8932C47.0655 68.5297 47.6471 67.9663 48.1196 67.203C48.6104 66.4214 48.9739 65.4036 49.2101 64.1496C49.4464 62.8955 49.5645 61.3688 49.5645 59.5695ZM81.925 35.2242V75H74.0734V44.2753L64.6406 47.2742V41.0856L81.0798 35.2242H81.925Z" fill="white"/>
</svg>
