<svg width="114" height="113" viewBox="0 0 114 113" fill="none" xmlns="http://www.w3.org/2000/svg">
<circle cx="56.8275" cy="56.5211" r="55.7734" stroke="#474E58" stroke-width="1.16667"/>
<path d="M52.4434 51.6634V58.5335C52.4434 61.5142 52.1253 64.086 51.4892 66.2488C50.8531 68.3934 49.9352 70.1564 48.7357 71.5377C47.5543 72.9008 46.1458 73.9095 44.51 74.5638C42.8743 75.2181 41.0568 75.5452 39.0575 75.5452C37.4581 75.5452 35.9678 75.3453 34.5865 74.9455C33.2052 74.5275 31.9602 73.8822 30.8516 73.0098C29.7611 72.1375 28.816 71.0379 28.0163 69.7111C27.2348 68.3662 26.635 66.7668 26.217 64.9129C25.7989 63.0591 25.5899 60.9326 25.5899 58.5335V51.6634C25.5899 48.6827 25.908 46.1291 26.5441 44.0027C27.1984 41.858 28.1162 40.1042 29.2976 38.741C30.4972 37.3779 31.9148 36.3783 33.5505 35.7422C35.1863 35.0879 37.0038 34.7607 39.003 34.7607C40.6024 34.7607 42.0837 34.9698 43.4468 35.3878C44.8281 35.7876 46.0731 36.4147 47.1817 37.2689C48.2904 38.1231 49.2355 39.2227 50.017 40.5676C50.7985 41.8944 51.3983 43.4847 51.8163 45.3385C52.2343 47.1742 52.4434 49.2825 52.4434 51.6634ZM44.5645 59.5695V50.6002C44.5645 49.1644 44.4827 47.9103 44.3192 46.838C44.1738 45.7657 43.9466 44.8569 43.6376 44.1117C43.3286 43.3484 42.947 42.7304 42.4926 42.2579C42.0382 41.7853 41.5202 41.44 40.9386 41.2219C40.357 41.0038 39.7118 40.8948 39.003 40.8948C38.1124 40.8948 37.3218 41.0674 36.6312 41.4128C35.9587 41.7581 35.3862 42.3124 34.9137 43.0758C34.4411 43.8209 34.0776 44.8206 33.8232 46.0746C33.5869 47.3105 33.4688 48.819 33.4688 50.6002V59.5695C33.4688 61.0053 33.5415 62.2685 33.6868 63.359C33.8504 64.4495 34.0867 65.3855 34.3957 66.167C34.7228 66.9303 35.1045 67.5574 35.5407 68.0481C35.9951 68.5206 36.513 68.866 37.0946 69.0841C37.6944 69.3022 38.3487 69.4112 39.0575 69.4112C39.9299 69.4112 40.7024 69.2386 41.3748 68.8932C42.0655 68.5297 42.6471 67.9663 43.1196 67.203C43.6104 66.4214 43.9739 65.4036 44.2101 64.1496C44.4464 62.8955 44.5645 61.3688 44.5645 59.5695ZM84.9401 68.866V75H57.7868V69.7656L70.6274 55.9981C71.9178 54.5623 72.9356 53.2992 73.6807 52.2087C74.4259 51.1 74.9621 50.1095 75.2892 49.2371C75.6345 48.3465 75.8072 47.5014 75.8072 46.7017C75.8072 45.5021 75.6073 44.4752 75.2074 43.621C74.8076 42.7486 74.2169 42.0761 73.4354 41.6036C72.672 41.131 71.7269 40.8948 70.6001 40.8948C69.4006 40.8948 68.3646 41.1856 67.4922 41.7672C66.638 42.3488 65.9837 43.1576 65.5293 44.1935C65.0931 45.2295 64.875 46.4018 64.875 47.7104H56.9962C56.9962 45.3476 57.5596 43.1848 58.6864 41.2219C59.8133 39.2409 61.4036 37.6687 63.4574 36.5055C65.5111 35.3242 67.9466 34.7335 70.7637 34.7335C73.5444 34.7335 75.889 35.1879 77.7974 36.0966C79.7239 36.9872 81.1779 38.2776 82.1593 39.9679C83.159 41.6399 83.6588 43.6392 83.6588 45.9656C83.6588 47.2742 83.4498 48.5555 83.0317 49.8096C82.6137 51.0455 82.0139 52.2814 81.2324 53.5173C80.4691 54.735 79.5422 55.9709 78.4517 57.2249C77.3612 58.479 76.1525 59.7785 74.8258 61.1235L67.9284 68.866H84.9401Z" fill="white"/>
</svg>
