<svg width="113" height="113" viewBox="0 0 113 113" fill="none" xmlns="http://www.w3.org/2000/svg">
<circle cx="56.3568" cy="56.3568" r="55.7734" stroke="#474E58" stroke-width="1.16667"/>
<path d="M52.4434 52.6634V59.5335C52.4434 62.5142 52.1253 65.086 51.4892 67.2488C50.8531 69.3934 49.9352 71.1564 48.7357 72.5377C47.5543 73.9008 46.1458 74.9095 44.51 75.5638C42.8743 76.2181 41.0568 76.5452 39.0575 76.5452C37.4581 76.5452 35.9678 76.3453 34.5865 75.9455C33.2052 75.5275 31.9602 74.8822 30.8516 74.0098C29.7611 73.1375 28.816 72.0379 28.0163 70.7111C27.2348 69.3662 26.635 67.7668 26.217 65.9129C25.7989 64.0591 25.5899 61.9326 25.5899 59.5335V52.6634C25.5899 49.6827 25.908 47.1291 26.5441 45.0027C27.1984 42.858 28.1162 41.1042 29.2976 39.741C30.4972 38.3779 31.9148 37.3783 33.5505 36.7422C35.1863 36.0879 37.0038 35.7607 39.003 35.7607C40.6024 35.7607 42.0837 35.9698 43.4468 36.3878C44.8281 36.7876 46.0731 37.4147 47.1817 38.2689C48.2904 39.1231 49.2355 40.2227 50.017 41.5676C50.7985 42.8944 51.3983 44.4847 51.8163 46.3385C52.2343 48.1742 52.4434 50.2825 52.4434 52.6634ZM44.5645 60.5695V51.6002C44.5645 50.1644 44.4827 48.9103 44.3192 47.838C44.1738 46.7657 43.9466 45.8569 43.6376 45.1117C43.3286 44.3484 42.947 43.7304 42.4926 43.2579C42.0382 42.7853 41.5202 42.44 40.9386 42.2219C40.357 42.0038 39.7118 41.8948 39.003 41.8948C38.1124 41.8948 37.3218 42.0674 36.6312 42.4128C35.9587 42.7581 35.3862 43.3124 34.9137 44.0758C34.4411 44.8209 34.0776 45.8206 33.8232 47.0746C33.5869 48.3105 33.4688 49.819 33.4688 51.6002V60.5695C33.4688 62.0053 33.5415 63.2685 33.6868 64.359C33.8504 65.4495 34.0867 66.3855 34.3957 67.167C34.7228 67.9303 35.1045 68.5574 35.5407 69.0481C35.9951 69.5206 36.513 69.866 37.0946 70.0841C37.6944 70.3022 38.3487 70.4112 39.0575 70.4112C39.9299 70.4112 40.7024 70.2386 41.3748 69.8932C42.0655 69.5297 42.6471 68.9663 43.1196 68.203C43.6104 67.4214 43.9739 66.4036 44.2101 65.1496C44.4464 63.8955 44.5645 62.3688 44.5645 60.5695ZM65.8292 52.7452H70.0276C71.3725 52.7452 72.4812 52.518 73.3536 52.0636C74.226 51.5911 74.8712 50.9368 75.2892 50.1007C75.7254 49.2465 75.9435 48.256 75.9435 47.1291C75.9435 46.1114 75.7436 45.2117 75.3438 44.4302C74.9621 43.6305 74.3714 43.0125 73.5717 42.5763C72.772 42.122 71.7633 41.8948 70.5456 41.8948C69.5823 41.8948 68.6917 42.0856 67.8739 42.4673C67.056 42.849 66.4017 43.3851 65.911 44.0758C65.4202 44.7664 65.1749 45.6025 65.1749 46.5839H57.2961C57.2961 44.4029 57.8777 42.5036 59.0409 40.8861C60.2222 39.2685 61.8034 38.0053 63.7845 37.0966C65.7656 36.1879 67.9466 35.7335 70.3275 35.7335C73.0174 35.7335 75.371 36.1697 77.3884 37.0421C79.4058 37.8963 80.978 39.1594 82.1048 40.8315C83.2317 42.5036 83.7951 44.5756 83.7951 47.0474C83.7951 48.3014 83.5043 49.5192 82.9227 50.7005C82.3411 51.8637 81.505 52.9179 80.4146 53.863C79.3422 54.7899 78.0336 55.535 76.4888 56.0985C74.9439 56.6437 73.2082 56.9163 71.2817 56.9163H65.8292V52.7452ZM65.8292 58.7157V54.6536H71.2817C73.4445 54.6536 75.3438 54.8989 76.9795 55.3896C78.6152 55.8804 79.9874 56.5892 81.0961 57.5161C82.2048 58.4249 83.0408 59.5063 83.6042 60.7603C84.1677 61.9962 84.4494 63.3684 84.4494 64.877C84.4494 66.7308 84.095 68.3847 83.3862 69.8387C82.6773 71.2745 81.6777 72.4922 80.3873 73.4919C79.115 74.4915 77.6247 75.2548 75.9163 75.7819C74.2078 76.2908 72.3449 76.5452 70.3275 76.5452C68.6554 76.5452 67.0106 76.3181 65.393 75.8637C63.7936 75.3911 62.3396 74.6914 61.031 73.7645C59.7406 72.8194 58.7046 71.638 57.9231 70.2204C57.1597 68.7846 56.7781 67.0852 56.7781 65.1223H64.6569C64.6569 66.1401 64.9114 67.0489 65.4202 67.8486C65.9291 68.6482 66.6289 69.2753 67.5195 69.7297C68.4282 70.184 69.4369 70.4112 70.5456 70.4112C71.7996 70.4112 72.872 70.184 73.7625 69.7297C74.6713 69.2571 75.3619 68.6028 75.8345 67.7668C76.3252 66.9125 76.5706 65.922 76.5706 64.7952C76.5706 63.3412 76.307 62.178 75.7799 61.3056C75.2529 60.415 74.4986 59.7607 73.5172 59.3427C72.5357 58.9247 71.3725 58.7157 70.0276 58.7157H65.8292Z" fill="white"/>
</svg>
