<svg width="114" height="113" viewBox="0 0 114 113" fill="none" xmlns="http://www.w3.org/2000/svg">
<path d="M63.219 71.4294H48.9811C48.8204 71.4294 48.6897 71.5602 48.6897 71.7209V72.9907C48.6897 73.1514 48.8204 73.2821 48.9811 73.2821H63.219C63.3796 73.2821 63.5104 73.1514 63.5104 72.9907V71.7209C63.5104 71.5602 63.3796 71.4294 63.219 71.4294Z" fill="white"/>
<path d="M51.4162 79.7661C51.2555 79.7661 51.1248 79.8968 51.1248 80.0575V81.3274C51.1248 81.4881 51.2555 81.6188 51.4162 81.6188H64.0927C64.2534 81.6188 64.3842 81.4881 64.3842 81.3274V80.0575C64.3842 79.8968 64.2534 79.7661 64.0927 79.7661H51.4162Z" fill="white"/>
<path d="M63.5104 63.3842C63.5104 63.2235 63.3796 63.0928 63.219 63.0928H48.9811C48.8204 63.0928 48.6897 63.2235 48.6897 63.3842V64.654C48.6897 64.8147 48.8204 64.9455 48.9811 64.9455H63.219C63.3796 64.9455 63.5104 64.8147 63.5104 64.654V63.3842Z" fill="white"/>
<path d="M63.5104 67.4328V66.163C63.5104 66.0023 63.3796 65.8716 63.219 65.8716H48.9811C48.8204 65.8716 48.6897 66.0023 48.6897 66.163V67.4328C48.6897 67.5935 48.8204 67.7243 48.9811 67.7243H63.219C63.3796 67.7243 63.5104 67.5935 63.5104 67.4328Z" fill="white"/>
<path d="M63.9736 74.2083H49.7357C49.5751 74.2083 49.4443 74.339 49.4443 74.4997V75.7695C49.4443 75.9302 49.5751 76.0609 49.7357 76.0609H63.9736C64.1343 76.0609 64.265 75.9302 64.265 75.7695V74.4997C64.2649 74.339 64.1342 74.2083 63.9736 74.2083Z" fill="white"/>
<path d="M56.7685 59.1958L78.6828 37.2817C78.8635 37.1008 79.157 37.1008 79.3377 37.2817L83.6137 41.5576L84.9664 27.9478L71.3566 29.3007L75.6325 33.5767C75.7194 33.6635 75.7682 33.7814 75.7682 33.9042C75.7682 34.0271 75.7194 34.1448 75.6325 34.2318L57.1132 52.751C57.0264 52.8378 56.9085 52.8866 56.7858 52.8866C56.663 52.8866 56.5452 52.8378 56.4583 52.751L47.1968 43.4894L30.3564 73.2821H30.542L47.8269 50.9915C47.9084 50.8865 48.0311 50.8214 48.1637 50.8131C48.2965 50.8045 48.4263 50.8537 48.5203 50.9478L56.7685 59.1958Z" fill="white"/>
<path d="M44.727 76.9871H30.4891C30.3285 76.9871 30.1978 77.1178 30.1978 77.2785V78.5483C30.1978 78.709 30.3285 78.8397 30.4891 78.8397H44.727C44.8877 78.8397 45.0184 78.709 45.0184 78.5483V77.2785C45.0184 77.1178 44.8877 76.9871 44.727 76.9871Z" fill="white"/>
<path d="M43.046 82.5449H28.8083C28.6476 82.5449 28.5168 82.6756 28.5168 82.8364V84.1062C28.5168 84.2669 28.6476 84.3976 28.8083 84.3976H43.0461C43.2068 84.3976 43.3375 84.2669 43.3375 84.1062V82.8364C43.3374 82.6756 43.2067 82.5449 43.046 82.5449Z" fill="white"/>
<path d="M29.4433 81.6186H42.1198C42.2805 81.6186 42.4113 81.4878 42.4113 81.3271V80.0573C42.4113 79.8966 42.2805 79.7659 42.1198 79.7659H29.4433C29.2826 79.7659 29.1519 79.8966 29.1519 80.0573V81.3271C29.1519 81.4878 29.2826 81.6186 29.4433 81.6186Z" fill="white"/>
<path d="M64.7278 68.6506H50.4899C50.3292 68.6506 50.1985 68.7814 50.1985 68.9421V70.2119C50.1985 70.3726 50.3292 70.5033 50.4899 70.5033H64.7278C64.8884 70.5033 65.0191 70.3726 65.0191 70.2119V68.9421C65.0191 68.7814 64.8884 68.6506 64.7278 68.6506Z" fill="white"/>
<path d="M29.5628 76.0609H43.8007C43.9614 76.0609 44.0921 75.9302 44.0921 75.7695V74.4997C44.0921 74.339 43.9614 74.2083 43.8007 74.2083H29.5628C29.4022 74.2083 29.2715 74.339 29.2715 74.4997V75.7695C29.2716 75.9302 29.4023 76.0609 29.5628 76.0609Z" fill="white"/>
<path d="M63.3386 78.5483V77.2785C63.3386 77.1178 63.2079 76.9871 63.0472 76.9871H48.8094C48.6488 76.9871 48.5181 77.1178 48.5181 77.2785V78.5483C48.5181 78.709 48.6488 78.8397 48.8094 78.8397H63.0473C63.2079 78.8397 63.3386 78.709 63.3386 78.5483Z" fill="white"/>
<path d="M64.7278 82.5449H50.4899C50.3292 82.5449 50.1985 82.6756 50.1985 82.8364V84.1062C50.1985 84.2669 50.3292 84.3976 50.4899 84.3976H64.7278C64.8884 84.3976 65.0191 84.2669 65.0191 84.1062V82.8364C65.0191 82.6756 64.8884 82.5449 64.7278 82.5449Z" fill="white"/>
<path d="M64.556 61.8752V60.6054C64.556 60.4447 64.4253 60.314 64.2647 60.314H50.0268C49.8661 60.314 49.7354 60.4447 49.7354 60.6054V61.8752C49.7354 62.0359 49.8661 62.1666 50.0268 62.1666H64.2647C64.4253 62.1666 64.556 62.0359 64.556 61.8752Z" fill="white"/>
<path d="M71.4172 79.7661C71.2565 79.7661 71.1257 79.8968 71.1257 80.0575V81.3274C71.1257 81.4881 71.2565 81.6188 71.4172 81.6188H84.0937C84.2544 81.6188 84.3851 81.4881 84.3851 81.3274V80.0575C84.3851 79.8968 84.2544 79.7661 84.0937 79.7661H71.4172Z" fill="white"/>
<path d="M83.9744 74.2083H69.7365C69.5758 74.2083 69.4451 74.339 69.4451 74.4997V75.7695C69.4451 75.9302 69.5758 76.0609 69.7365 76.0609H83.9744C84.135 76.0609 84.2657 75.9302 84.2657 75.7695V74.4997C84.2656 74.339 84.1349 74.2083 83.9744 74.2083Z" fill="white"/>
<path d="M83.2197 71.4294H68.9817C68.8212 71.4294 68.6904 71.5602 68.6904 71.7209V72.9907C68.6904 73.1514 68.8212 73.2821 68.9817 73.2821H83.2197C83.3804 73.2821 83.5111 73.1514 83.5111 72.9907V71.7209C83.5111 71.5602 83.3804 71.4294 83.2197 71.4294Z" fill="white"/>
<path d="M84.7286 82.5449H70.4909C70.3302 82.5449 70.1995 82.6756 70.1995 82.8364V84.1062C70.1995 84.2669 70.3302 84.3976 70.4909 84.3976H84.7287C84.8894 84.3976 85.0201 84.2669 85.0201 84.1062V82.8364C85.02 82.6756 84.8893 82.5449 84.7286 82.5449Z" fill="white"/>
<path d="M84.8485 56.3175V55.0477C84.8485 54.8871 84.7178 54.7563 84.5571 54.7563H70.3192C70.1586 54.7563 70.0278 54.8871 70.0278 55.0477V56.3175C70.0278 56.4782 70.1586 56.6089 70.3192 56.6089H84.5571C84.7178 56.6089 84.8485 56.4782 84.8485 56.3175Z" fill="white"/>
<path d="M83.3393 78.5483V77.2785C83.3393 77.1178 83.2086 76.9871 83.048 76.9871H68.8102C68.6495 76.9871 68.5188 77.1178 68.5188 77.2785V78.5483C68.5188 78.709 68.6495 78.8397 68.8102 78.8397H83.0481C83.2086 78.8397 83.3393 78.709 83.3393 78.5483Z" fill="white"/>
<path d="M84.5569 61.8752V60.6054C84.5569 60.4447 84.4261 60.314 84.2654 60.314H70.0278C69.867 60.314 69.7363 60.4447 69.7363 60.6054V61.8752C69.7363 62.0359 69.867 62.1666 70.0278 62.1666H84.2656C84.4261 62.1666 84.5569 62.0359 84.5569 61.8752Z" fill="white"/>
<path d="M84.7286 68.6506H70.4909C70.3302 68.6506 70.1995 68.7814 70.1995 68.9421V70.2119C70.1995 70.3726 70.3302 70.5033 70.4909 70.5033H84.7287C84.8894 70.5033 85.0201 70.3726 85.0201 70.2119V68.9421C85.02 68.7814 84.8893 68.6506 84.7286 68.6506Z" fill="white"/>
<path d="M83.5111 63.3842C83.5111 63.2235 83.3804 63.0928 83.2197 63.0928H68.9817C68.8212 63.0928 68.6904 63.2235 68.6904 63.3842V64.654C68.6904 64.8147 68.8212 64.9455 68.9817 64.9455H83.2197C83.3804 64.9455 83.5111 64.8147 83.5111 64.654V63.3842Z" fill="white"/>
<path d="M83.6308 53.8301C83.7915 53.8301 83.9222 53.6994 83.9222 53.5388V52.2689C83.9222 52.1083 83.7915 51.9775 83.6308 51.9775H69.3929C69.2323 51.9775 69.1016 52.1083 69.1016 52.2689V53.5388C69.1016 53.6994 69.2323 53.8301 69.3929 53.8301H83.6308Z" fill="white"/>
<path d="M68.5188 57.8266V59.0964C68.5188 59.2571 68.6495 59.3878 68.8102 59.3878H83.0481C83.2087 59.3878 83.3395 59.2571 83.3395 59.0964V57.8266C83.3395 57.6659 83.2087 57.5352 83.0481 57.5352H68.8102C68.6495 57.5353 68.5188 57.666 68.5188 57.8266Z" fill="white"/>
<path d="M83.5111 67.4328V66.163C83.5111 66.0023 83.3804 65.8716 83.2197 65.8716H68.9817C68.8212 65.8716 68.6904 66.0023 68.6904 66.163V67.4328C68.6904 67.5935 68.8212 67.7243 68.9817 67.7243H83.2197C83.3804 67.7243 83.5111 67.5935 83.5111 67.4328Z" fill="white"/>
<circle cx="56.7684" cy="56.6089" r="55.7734" stroke="#474E58" stroke-width="1.16667"/>
</svg>
