<svg width="114" height="113" viewBox="0 0 114 113" fill="none" xmlns="http://www.w3.org/2000/svg">
<circle cx="56.8275" cy="56.6089" r="55.7734" stroke="#474E58" stroke-width="1.16667"/>
<path d="M29.0093 56.1399H25.5093V73.6399H29.0093V56.1399Z" fill="white"/>
<path d="M90.8433 56.1399H87.3433V73.6399H90.8433V56.1399Z" fill="white"/>
<path d="M69.9245 58.0979L62.2607 54.2479C61.4747 53.8691 60.5899 53.7461 59.7305 53.8962C58.8711 54.0462 58.0802 54.4618 57.4692 55.0844L50.4482 62.4787C50.2911 62.6692 50.1737 62.8891 50.1027 63.1255C50.0318 63.3619 50.0087 63.6101 50.0349 63.8556C50.0611 64.101 50.136 64.3388 50.2552 64.5549C50.3745 64.771 50.5357 64.9612 50.7293 65.1142C51.077 65.3741 51.5064 65.5005 51.9394 65.4703C52.3724 65.4401 52.7801 65.2553 53.0883 64.9497L59.0267 59.4314C59.4174 59.0666 59.9219 58.8475 60.4552 58.8109C60.9885 58.7744 61.5181 58.9226 61.955 59.2307C62.501 59.6332 74.478 68.4871 79.1225 72.4491C81.0216 71.7993 83.0042 71.4257 85.0095 71.3396V58.4736H71.4995C70.952 58.4758 70.412 58.347 69.9245 58.0979Z" fill="white"/>
<path d="M42.9275 78.4538L45.5829 75.0985C45.8683 74.7332 45.9982 74.2701 45.9442 73.8096C45.8903 73.3492 45.6569 72.9286 45.2947 72.6392C44.9242 72.3628 44.4619 72.239 44.0028 72.2933C43.5438 72.3475 43.1231 72.5757 42.8272 72.9308L40.1812 76.2757C40.0382 76.456 39.9321 76.6627 39.869 76.8841C39.8058 77.1054 39.7869 77.337 39.8133 77.5656C39.8397 77.7943 39.9108 78.0155 40.0227 78.2166C40.1346 78.4178 40.285 78.5949 40.4653 78.7379C40.6456 78.881 40.8524 78.9871 41.0737 79.0502C41.295 79.1133 41.5266 79.1322 41.7553 79.1058C41.9839 79.0795 42.2051 79.0083 42.4062 78.8964C42.6074 78.7846 42.7845 78.6342 42.9275 78.4538Z" fill="white"/>
<path d="M62.8429 45.64C63.4873 45.64 64.0096 45.1176 64.0096 44.4733C64.0096 43.829 63.4873 43.3066 62.8429 43.3066C62.1986 43.3066 61.6763 43.829 61.6763 44.4733C61.6763 45.1176 62.1986 45.64 62.8429 45.64Z" fill="white"/>
<path d="M53.5099 36.3067C54.1543 36.3067 54.6766 35.7844 54.6766 35.1401C54.6766 34.4957 54.1543 33.9734 53.5099 33.9734C52.8656 33.9734 52.3433 34.4957 52.3433 35.1401C52.3433 35.7844 52.8656 36.3067 53.5099 36.3067Z" fill="white"/>
<path d="M54.2014 89.5977C54.5682 89.884 55.0333 90.0138 55.4954 89.959C55.9575 89.9041 56.3792 89.669 56.6689 89.3048L58.5892 86.8712C58.7321 86.6908 58.838 86.484 58.9008 86.2626C58.9636 86.0413 58.9822 85.8097 58.9554 85.5812C58.9287 85.3526 58.8571 85.1316 58.7448 84.9307C58.6325 84.7299 58.4817 84.5532 58.3011 84.4107C57.9322 84.1342 57.4711 84.0103 57.0133 84.0648C56.5556 84.1194 56.1364 84.3481 55.8429 84.7035L53.9121 87.136C53.6257 87.5015 53.4954 87.9653 53.5496 88.4264C53.6038 88.8876 53.8381 89.3086 54.2014 89.5977Z" fill="white"/>
<path d="M49.6189 85.9801C49.9854 86.262 50.4474 86.3898 50.9066 86.3365C51.3659 86.2831 51.7862 86.0527 52.0783 85.6942L54.7313 82.3319C54.8741 82.1514 54.9799 81.9446 55.0426 81.7232C55.1053 81.5018 55.1238 81.2702 55.0969 81.0416C55.0701 80.8131 54.9984 80.5921 54.886 80.3913C54.7736 80.1905 54.6227 80.0138 54.4419 79.8714C54.0762 79.5991 53.6206 79.4762 53.1675 79.5275C52.7145 79.5789 52.298 79.8007 52.0024 80.1479L49.3284 83.5219C49.0439 83.8875 48.9148 84.3505 48.9692 84.8106C49.0236 85.2707 49.257 85.6908 49.6189 85.9801Z" fill="white"/>
<path d="M50.5927 75.3481C50.2273 75.0647 49.7654 74.9358 49.3061 74.989C48.8468 75.0423 48.4266 75.2734 48.1357 75.6328L44.7593 79.9051C44.4773 80.2716 44.3497 80.7338 44.4038 81.1931C44.4578 81.6523 44.6893 82.0723 45.0487 82.3633C45.4125 82.6484 45.8743 82.7779 46.3333 82.7237C46.7923 82.6695 47.2113 82.4359 47.4987 82.0739L50.882 77.8028C51.1618 77.4361 51.2881 76.975 51.2341 76.5169C51.1801 76.0588 50.9501 75.6397 50.5927 75.3481Z" fill="white"/>
<path d="M50.1725 52.675L51.2004 52.1582C52.148 51.6987 53.1923 51.4742 54.245 51.5036C55.2978 51.5331 56.3279 51.8156 57.2484 52.3274C58.2199 51.7708 59.3195 51.4765 60.4392 51.4734C61.4406 51.4714 62.4281 51.7082 63.3197 52.164L65.3229 53.1709C68.2682 51.5977 70.612 49.0966 71.9908 46.0554C73.3695 43.0142 73.7061 39.6031 72.9484 36.3511C72.1906 33.0991 70.3809 30.1881 67.7999 28.0696C65.2188 25.9511 62.0108 24.7436 58.6735 24.6343C55.3362 24.5251 52.0561 25.5203 49.3421 27.4655C46.6281 29.4107 44.6318 32.1972 43.6631 35.3926C42.6943 38.5881 42.8072 42.014 43.9841 45.1388C45.1611 48.2636 47.3364 50.9127 50.1725 52.675ZM66.3425 44.4734C66.3425 45.1656 66.1373 45.8423 65.7527 46.4179C65.3681 46.9934 64.8215 47.442 64.1819 47.7069C63.5424 47.9719 62.8386 48.0412 62.1597 47.9061C61.4808 47.7711 60.8571 47.4377 60.3677 46.9482C59.8782 46.4588 59.5448 45.8351 59.4098 45.1562C59.2747 44.4773 59.344 43.7735 59.609 43.134C59.8739 42.4944 60.3225 41.9478 60.898 41.5632C61.4736 41.1786 62.1503 40.9734 62.8425 40.9734C63.7708 40.9734 64.661 41.3421 65.3174 41.9985C65.9738 42.6549 66.3425 43.5451 66.3425 44.4734ZM63.1844 33.1485C63.4044 32.936 63.6991 32.8184 64.005 32.8211C64.3109 32.8237 64.6035 32.9464 64.8198 33.1627C65.0361 33.3791 65.1588 33.6717 65.1615 33.9776C65.1641 34.2835 65.0465 34.5782 64.834 34.7982L53.1674 46.4649C52.9473 46.6774 52.6526 46.795 52.3467 46.7923C52.0408 46.7897 51.7482 46.667 51.5319 46.4507C51.3156 46.2343 51.1929 45.9417 51.1902 45.6358C51.1876 45.3299 51.3052 45.0352 51.5177 44.8152L63.1844 33.1485ZM53.5092 31.64C54.2014 31.64 54.8781 31.8453 55.4537 32.2299C56.0293 32.6145 56.4779 33.1611 56.7428 33.8006C57.0077 34.4402 57.077 35.1439 56.9419 35.8229C56.8069 36.5018 56.4736 37.1254 55.9841 37.6149C55.4946 38.1044 54.8709 38.4377 54.192 38.5728C53.5131 38.7078 52.8093 38.6385 52.1698 38.3736C51.5303 38.1087 50.9836 37.6601 50.5991 37.0845C50.2145 36.509 50.0092 35.8323 50.0092 35.14C50.0092 34.2118 50.3779 33.3215 51.0343 32.6652C51.6907 32.0088 52.5809 31.64 53.5092 31.64Z" fill="white"/>
<path d="M31.3428 58.4735V71.3523C34.1353 71.6265 36.8679 72.3351 39.4418 73.4523L40.9993 71.4807C41.6753 70.6345 42.6581 70.0894 43.7338 69.964C44.8096 69.8386 45.8914 70.143 46.7439 70.811C47.4094 71.3428 47.8907 72.0706 48.1194 72.8912C48.4166 72.7807 48.7254 72.7047 49.0399 72.6648C50.1156 72.5404 51.1967 72.8483 52.0454 73.5208C52.894 74.1934 53.4408 75.1755 53.5654 76.2512C53.5977 76.5616 53.5949 76.8747 53.5573 77.1845C54.4058 77.2173 55.2223 77.5169 55.8906 78.0408C56.4354 78.4746 56.8607 79.0401 57.126 79.684C57.3914 80.3279 57.4882 81.0288 57.4073 81.7205C58.2643 81.7503 59.0894 82.0537 59.7616 82.5862C60.4693 83.1514 60.969 83.9358 61.1821 84.8161C61.3952 85.6964 61.3096 86.6225 60.9388 87.4488C62.3306 88.6412 63.1473 89.3948 63.1869 89.4322C63.3478 89.5971 63.5396 89.7287 63.7513 89.8195C63.9631 89.9104 64.1906 89.9586 64.421 89.9614C64.6514 89.9643 64.8801 89.9218 65.094 89.8363C65.3079 89.7508 65.5029 89.624 65.6679 89.4631C65.8328 89.3022 65.9644 89.1104 66.0552 88.8987C66.146 88.687 66.1943 88.4594 66.1971 88.229C66.2 87.9987 66.1575 87.77 66.072 87.556C65.9865 87.3421 65.8596 87.1471 65.6988 86.9822C65.4863 86.7621 65.3687 86.4674 65.3713 86.1615C65.374 85.8556 65.4967 85.563 65.713 85.3467C65.9293 85.1304 66.2219 85.0077 66.5278 85.005C66.8337 85.0024 67.1284 85.12 67.3484 85.3325C67.6823 85.6232 68.1139 85.7766 68.5564 85.7618C68.9988 85.747 69.4192 85.565 69.7328 85.2526C70.0464 84.9401 70.23 84.5204 70.2465 84.078C70.263 83.6356 70.1112 83.2034 69.8218 82.8685C69.6077 82.6497 69.4881 82.3556 69.4889 82.0495C69.4897 81.7434 69.6107 81.4499 69.826 81.2322C70.0412 81.0145 70.3333 80.8902 70.6394 80.8859C70.9455 80.8817 71.2409 80.9979 71.4621 81.2095C71.6247 81.3727 71.8178 81.5022 72.0304 81.5908C72.243 81.6793 72.471 81.7251 72.7013 81.7255C72.9316 81.726 73.1598 81.681 73.3727 81.5933C73.5857 81.5055 73.7793 81.3767 73.9424 81.2142C74.1056 81.0516 74.2352 80.8585 74.3237 80.6459C74.4122 80.4333 74.458 80.2053 74.4585 79.975C74.4589 79.7446 74.414 79.5165 74.3262 79.3035C74.2385 79.0906 74.1097 78.897 73.9471 78.7338C73.7284 78.5151 73.6055 78.2184 73.6055 77.909C73.6055 77.5996 73.7284 77.303 73.9471 77.0842C74.1659 76.8655 74.4626 76.7426 74.7719 76.7426C75.0813 76.7426 75.378 76.8655 75.5968 77.0842C75.9259 77.4126 76.3719 77.597 76.8369 77.597C77.3019 77.597 77.7479 77.4126 78.0771 77.0842C78.4024 76.7688 78.5903 76.338 78.6001 75.8851C78.61 75.4322 78.4409 74.9936 78.1296 74.6645C74.0334 71.0548 60.7206 61.2152 60.5864 61.116L54.7111 66.6192C53.9406 67.3631 52.912 67.7797 51.8409 67.7816C50.7699 67.7836 49.7398 67.3706 48.9666 66.6295C48.1935 65.8883 47.7374 64.8765 47.6941 63.8064C47.6507 62.7362 48.0236 61.6909 48.7343 60.8897L55.2676 54.0063C54.2723 53.6986 53.197 53.7821 52.2611 54.2397L44.5728 58.1072C44.0881 58.3515 43.5522 58.4771 43.0094 58.4735H31.3428Z" fill="white"/>
</svg>
