<svg width="114" height="113" viewBox="0 0 114 113" fill="none" xmlns="http://www.w3.org/2000/svg">
<path fill-rule="evenodd" clip-rule="evenodd" d="M43.0113 29.9407C35.7102 29.9407 29.7812 35.8696 29.7812 43.1708C29.7812 50.4719 35.7102 56.4009 43.0113 56.4009C50.3125 56.4009 56.2414 50.4719 56.2414 43.1708C56.2414 35.8696 50.3125 29.9407 43.0113 29.9407ZM41.1213 38.6347V43.1708C41.1213 43.6716 41.3198 44.1536 41.6751 44.507L43.9431 46.775C44.6802 47.5121 45.8785 47.5121 46.6156 46.775C47.3527 46.0379 47.3527 44.8396 46.6156 44.1025L44.9014 42.3883V38.6347C44.9014 37.5915 44.0546 36.7447 43.0113 36.7447C41.9681 36.7447 41.1213 37.5915 41.1213 38.6347Z" fill="white"/>
<path fill-rule="evenodd" clip-rule="evenodd" d="M73.2516 60.1809C65.9505 60.1809 60.0215 66.1099 60.0215 73.411C60.0215 80.7121 65.9505 86.6411 73.2516 86.6411C80.5527 86.6411 86.4817 80.7121 86.4817 73.411C86.4817 66.1099 80.5527 60.1809 73.2516 60.1809ZM71.3616 67.6672C70.0764 68.3458 69.2013 69.6952 69.2013 71.2488V71.2526C69.2013 73.4885 71.0138 75.301 73.2497 75.301H73.2535C73.4009 75.301 73.5219 75.422 73.5219 75.5694V75.5732C73.5219 75.7206 73.4009 75.8416 73.2535 75.8416H71.0913C70.048 75.8416 69.2013 76.6883 69.2013 77.7316C69.2013 78.7749 70.048 79.6216 71.0913 79.6216H71.3616V79.8918C71.3616 80.9332 72.2083 81.7818 73.2516 81.7818C74.2949 81.7818 75.1416 80.9332 75.1416 79.8918V79.1548C76.4268 78.4762 77.3019 77.1268 77.3019 75.5732V75.5694C77.3019 73.3335 75.4894 71.521 73.2535 71.521H73.2497C73.1023 71.521 72.9813 71.4 72.9813 71.2526V71.2488C72.9813 71.1014 73.1023 70.9804 73.2497 70.9804H75.4119C76.4552 70.9804 77.3019 70.1337 77.3019 69.0904C77.3019 68.0471 76.4552 67.2004 75.4119 67.2004H75.1416V66.9302C75.1416 65.8888 74.2949 65.0402 73.2516 65.0402C72.2083 65.0402 71.3616 65.8888 71.3616 66.9302V67.6672Z" fill="white"/>
<path fill-rule="evenodd" clip-rule="evenodd" d="M71.3616 49.9481L70.8078 49.3943C70.0707 48.6572 68.8724 48.6572 68.1353 49.3943C67.3982 50.1314 67.3982 51.3297 68.1353 52.0668L71.9153 55.8469C72.6524 56.5858 73.8507 56.5858 74.5878 55.8469L78.3678 52.0668C79.105 51.3297 79.105 50.1314 78.3678 49.3943C77.6307 48.6572 76.4325 48.6572 75.6954 49.3943L75.1416 49.9481V45.4385C75.1416 43.1422 73.2799 41.2805 70.9835 41.2805C67.6741 41.2805 61.9115 41.2805 61.9115 41.2805C60.8682 41.2805 60.0215 42.1272 60.0215 43.1705C60.0215 44.2138 60.8682 45.0605 61.9115 45.0605H70.9835C71.1914 45.0605 71.3616 45.2306 71.3616 45.4385V49.9481Z" fill="white"/>
<path fill-rule="evenodd" clip-rule="evenodd" d="M43.0115 66.6332V71.1427C43.0115 73.4391 44.8732 75.3008 47.1696 75.3008C50.479 75.3008 56.2416 75.3008 56.2416 75.3008C57.2849 75.3008 58.1316 74.454 58.1316 73.4107C58.1316 72.3675 57.2849 71.5207 56.2416 71.5207H47.1696C46.9617 71.5207 46.7915 71.3506 46.7915 71.1427V66.6332L47.3453 67.1869C48.0824 67.924 49.2807 67.924 50.0178 67.1869C50.7549 66.4498 50.7549 65.2516 50.0178 64.5144L46.2378 60.7344C45.5007 59.9954 44.3024 59.9954 43.5653 60.7344L39.7853 64.5144C39.0481 65.2516 39.0481 66.4498 39.7853 67.1869C40.5224 67.924 41.7206 67.924 42.4577 67.1869L43.0115 66.6332Z" fill="white"/>
<circle cx="56.886" cy="56.6089" r="55.7734" stroke="#474E58" stroke-width="1.16667"/>
</svg>
