<svg width="83" height="88" viewBox="0 0 83 88" fill="none" xmlns="http://www.w3.org/2000/svg">
<path d="M78.9848 18.7579V17.1954C78.9848 16.3322 78.2855 15.6329 77.4223 15.6329H50.8633C50.0039 15.6329 49.3008 16.3322 49.3008 17.1954V20.2228C49.2617 23.8517 45.6719 25.7735 42.4414 24.5079C34.9961 23.2345 34.9883 34.582 42.4414 33.3127C45.6836 32.051 49.2578 33.965 49.3047 37.5979V40.6252C49.3047 41.4884 50.0039 42.1877 50.8672 42.1877H55.457C59.0898 42.2345 61.0039 45.7971 59.7461 49.0471C58.5508 53.7385 64.7578 56.7659 67.7227 52.9377C68.8946 51.5393 68.8282 49.6525 68.2891 48.008C67.4961 45.1603 69.875 42.1057 72.836 42.1838H77.4258C78.2851 42.1838 78.9883 41.4845 78.9883 40.6213V26.5623C79.0312 24.5076 82.0625 24.5037 82.1133 26.5623V40.6213C82.1133 43.2072 80.0117 45.3088 77.4258 45.3088H72.836C71.8516 45.2853 71.0508 46.297 71.3204 47.2502C73.1915 52.2502 69.5743 57.8631 64.1485 57.8051C58.7227 57.8716 55.1055 52.2388 56.9766 47.2502C57.2422 46.3009 56.4453 45.2814 55.461 45.3088H50.8712C48.2853 45.3088 46.1837 43.2072 46.1837 40.6213V37.594C46.211 36.6096 45.1915 35.8167 44.2423 36.0784L43.2032 36.3362C38.5665 37.6448 33.543 33.7385 33.6837 28.9065C33.5548 24.0706 38.5431 20.1721 43.2032 21.4768L44.2384 21.7346C45.1915 21.9924 46.2032 21.2072 46.1798 20.219V17.1917C46.1798 16.3284 45.4806 15.6292 44.6173 15.6292H40.0275C36.3986 15.5862 34.4767 12.0159 35.7384 8.76977C36.9376 4.07837 30.7189 1.05097 27.7618 4.87917C26.5938 6.27757 26.6485 8.16437 27.1954 9.80887C27.9883 12.6566 25.6095 15.7112 22.6485 15.6331H18.0587C17.1993 15.6331 16.4962 16.3323 16.4962 17.1956C16.4923 19.5042 16.879 22.387 14.6954 23.9183C13.2423 25.1175 11.3321 25.0745 9.63676 24.512C4.93756 23.3128 1.92586 29.5393 5.74616 32.4886C7.13676 33.6448 9.02346 33.6136 10.6564 33.055C13.5314 32.2738 16.5744 34.6214 16.5002 37.598V40.6292C16.5002 41.4925 17.1994 42.1917 18.0627 42.1917H40.4027C42.4574 42.2308 42.4574 45.2737 40.4027 45.3167H18.0627C15.4768 45.3167 13.3752 43.2151 13.3752 40.6292V37.598C13.3986 36.6058 12.3791 35.8168 11.4182 36.0863L10.4065 36.3481C2.43766 38.3208 -2.63654 27.9458 3.82446 22.8751C5.98466 21.129 8.85176 20.8946 11.4339 21.7423C12.387 22.0001 13.4027 21.2149 13.3753 20.2267V17.1994C13.3753 14.6135 15.4769 12.5119 18.0628 12.5119H22.6526C23.6369 12.5353 24.4338 11.5236 24.1682 10.5704C21.2112 2.22275 31.758 -3.90255 37.3792 2.96105C38.8401 4.83605 39.348 7.23055 38.7737 9.53525L38.5159 10.5744C38.2502 11.5236 39.0471 12.5432 40.0314 12.5158C42.5783 12.672 45.8635 11.8829 47.7463 13.7346C48.5783 12.9846 49.6643 12.5158 50.8713 12.5158H77.4303C80.0162 12.5158 82.1178 14.6174 82.1178 17.2033V18.7658C82.1178 19.629 81.4185 20.3283 80.5553 20.3283C79.692 20.3283 78.9928 19.629 78.9928 18.7658L78.9848 18.7579ZM70.1762 62.07L55.6492 66.2848C56.2624 62.4996 53.1336 58.9918 49.3211 59.027H39.2001C38.3876 59.027 37.5985 58.7965 36.9149 58.3629L31.911 55.1871C29.7899 53.8433 27.3407 53.1285 24.829 53.1285H7.12196C5.08676 53.1637 5.05166 56.2144 7.12196 56.2535H24.829C26.747 56.2535 28.6181 56.7965 30.2392 57.8277L35.2431 61.0035C36.4306 61.7574 37.7978 62.1558 39.204 62.1558H49.325C53.6531 62.2691 53.6648 68.6206 49.325 68.7339H34.837C33.9737 68.7339 33.2745 69.4331 33.2745 70.2964C33.2745 71.1597 33.9737 71.8589 34.837 71.8589H49.325C51.0203 71.8589 52.5516 71.187 53.7 70.1089L71.048 65.0777C72.3449 64.7027 73.7042 65.4058 74.1535 66.6754C74.587 67.9059 74.0245 69.2574 72.8449 69.816L45.6179 82.711C40.4343 85.1602 34.3799 84.9063 29.4269 82.0157L18.6179 75.711C17.7116 75.1836 16.6765 74.9024 15.6296 74.9024H7.12566C5.09446 74.9258 5.05536 77.9922 7.12566 78.0274H15.6296C16.1257 78.0274 16.6139 78.1602 17.0437 78.4102L27.8527 84.7149C31.0363 86.5743 34.6027 87.5079 38.1807 87.5079C41.1729 87.5079 44.169 86.8517 46.9541 85.5352L74.1811 72.6402C80.3764 69.5972 76.853 60.2612 70.1772 62.0812L70.1762 62.07Z" fill="white"/>
</svg>
