<svg width="71" height="90" viewBox="0 0 71 90" fill="none" xmlns="http://www.w3.org/2000/svg">
<path fill-rule="evenodd" clip-rule="evenodd" d="M36.0739 0.0440872C40.9645 1.42299 45.3122 5.45029 48.4019 11.0131H48.4058C51.5308 16.8295 53.1949 23.3181 53.2417 29.9231L61.4019 34.7239C65.5894 37.1887 70.6636 38.8137 70.6636 44.388V56.7C70.6636 57.0633 70.4878 57.407 70.1831 57.618C69.8823 57.825 69.4995 57.8719 69.1558 57.743L53.2498 53.0594V58.9813C53.2498 59.5945 52.7498 60.0946 52.1365 60.0946H47.8006L49.9881 68.2899C50.0741 68.6219 50.0037 68.9813 49.7928 69.2547C49.5819 69.5281 49.2576 69.6883 48.91 69.6883H22.09C21.7306 69.6883 21.3947 69.5203 21.1837 69.2313C20.9728 68.9422 20.9181 68.5672 21.0275 68.2274L23.1994 60.0946H18.8635C18.2502 60.0946 17.7502 59.5946 17.7502 58.9813V53.0594L1.8442 57.743C1.50045 57.8719 1.11764 57.825 0.816895 57.618C0.512205 57.407 0.336426 57.0633 0.336426 56.7V44.388C0.336426 38.8099 5.40673 37.1888 9.59813 34.7239L17.7583 29.9231C17.8325 23.3411 19.5513 16.8841 22.7661 11.1421C25.9966 5.50539 30.5161 1.42329 35.4501 0.0400875C35.6532 -0.0145995 35.872 -0.0145995 36.0751 0.0479005L36.0739 0.0440872ZM33.1012 71.8411H37.902H37.8981C41.0153 71.8489 43.5387 74.3723 43.5465 77.4895V78.9192C43.5465 83.2864 40.0543 88.263 35.9098 89.9032C35.6442 90.0126 35.3473 90.0126 35.0856 89.9032C30.9645 88.2821 27.4567 83.286 27.4567 78.9232L27.4527 77.4896C27.4606 74.3724 29.984 71.8489 33.1012 71.8411ZM37.902 74.0716L33.1012 74.0677C31.2145 74.0755 29.6871 75.6029 29.6832 77.4896V78.9193C29.6832 82.2552 32.4098 86.2123 35.4996 87.6654C38.5894 86.2123 41.316 82.2552 41.316 78.9193V77.4896C41.3121 75.6029 39.7848 74.0755 37.898 74.0677L37.902 74.0716ZM45.4997 60.0946H25.4997L23.5309 67.4579L47.4649 67.4618L45.4997 60.0946ZM17.7497 50.743V32.501L10.7185 36.6377C9.95286 37.0869 9.25368 37.4658 8.56228 37.8369C5.43728 39.5244 2.56228 41.0752 2.56228 44.3877V55.2117L17.7497 50.743ZM53.2497 32.501V50.743L68.4377 55.2118V44.3878C68.4377 41.0753 65.5666 39.5245 62.4377 37.837C61.7463 37.4659 61.0432 37.0831 60.2815 36.6378L53.2497 32.501ZM35.4997 18.642C31.9216 18.642 28.6989 20.7943 27.3317 24.099C25.9606 27.4037 26.7184 31.2045 29.2458 33.7357C31.777 36.263 35.5778 37.0209 38.8825 35.6498C42.1872 34.2826 44.3434 31.06 44.3434 27.4818C44.3434 25.138 43.4098 22.888 41.7536 21.2318C40.0934 19.5716 37.8434 18.642 35.4997 18.642ZM40.1755 22.8061C38.2849 20.9155 35.4411 20.3491 32.9685 21.3725C30.4958 22.3959 28.8865 24.8061 28.8865 27.4819C28.8865 30.1577 30.4959 32.5717 32.9685 33.5952C35.4412 34.6186 38.2849 34.0522 40.1755 32.1616C42.7575 29.5757 42.7575 25.3882 40.1755 22.8061ZM46.4646 12.0911C43.7146 7.14969 39.9412 3.55989 35.7496 2.26689C31.5074 3.56769 27.5777 7.21999 24.6986 12.2435H24.6947C21.5736 17.8412 19.9486 24.1455 19.9799 30.5555V57.8645H51.0189V30.5555C51.0736 24.118 49.5037 17.7671 46.4646 12.0911Z" fill="white"/>
</svg>
