<svg width="107" height="79" viewBox="0 0 107 79" fill="none" xmlns="http://www.w3.org/2000/svg">
<path d="M94.9925 54.7152C95.6868 53.9094 96.3583 53.0709 97.0035 52.216C97.6652 51.3382 98.2777 50.467 98.8377 49.6121C98.8738 49.5564 98.9131 49.504 98.9524 49.4516C100.973 46.3105 101.982 42.8288 101.982 39.3438C101.982 35.7999 100.937 32.2592 98.8476 29.0755C98.317 28.2698 97.7307 27.428 97.0822 26.5633C96.4533 25.7248 95.7589 24.8568 94.9925 23.9692C93.1779 21.8631 91.2422 19.9339 89.2049 18.1783C79.0185 9.40361 66.2641 5.01788 53.5 5.01788C40.7359 5.01788 27.9815 9.40361 17.7951 18.1783C15.7578 19.9339 13.8221 21.8631 12.0075 23.9692C11.2444 24.8568 10.5467 25.7248 9.91784 26.5633C9.26931 27.428 8.67975 28.2665 8.15241 29.0755C6.06272 32.2592 5.01788 35.7999 5.01788 39.3438C5.01788 42.8845 6.06272 46.4285 8.15241 49.6121L8.15569 49.6154L8.16224 49.6121C8.72233 50.467 9.33482 51.3415 9.99645 52.2193C10.6417 53.0742 11.3131 53.9127 12.0075 54.7184C13.8221 56.8245 15.7578 58.7537 17.7951 60.5093C27.9815 69.284 40.7359 73.6698 53.5 73.6698C66.2641 73.6698 79.0185 69.284 89.2049 60.5093C91.2422 58.7537 93.1779 56.8245 94.9925 54.7184V54.7152ZM73.2767 41.7741C72.6347 41.8233 72.0124 41.8495 71.413 41.8495C64.6264 41.8495 58.4622 39.1276 53.9618 34.7157C50.1755 31.0047 47.5683 26.0916 46.7527 20.589C43.9654 21.5913 41.463 23.1995 39.4126 25.2532C35.8064 28.8593 33.5792 33.8412 33.5792 39.3438C33.5792 44.8464 35.8097 49.8283 39.4126 53.4345C43.0188 57.0407 48.0006 59.2679 53.5033 59.2679C59.0059 59.2679 63.9877 57.0374 67.5939 53.4345C70.6597 50.3687 72.7297 46.3073 73.2833 41.7774L73.2767 41.7741ZM51.6461 19.5016C52.2357 24.038 54.3516 28.0962 57.4665 31.1488C61.0563 34.6666 65.9759 36.8316 71.413 36.8316C72.0747 36.8316 72.6904 36.8054 73.2571 36.7563C72.6773 32.2854 70.6204 28.2829 67.5874 25.2499C63.9812 21.6437 58.9993 19.4164 53.4967 19.4164C52.8711 19.4164 52.2521 19.4459 51.6429 19.5016H51.6461ZM53.5 14.4018C60.3848 14.4018 66.6211 17.1924 71.1346 21.7059C75.6481 26.2194 78.4387 32.4524 78.4387 39.3405C78.4387 46.2254 75.6448 52.4617 71.1346 56.9752C66.6211 61.4886 60.3848 64.2793 53.5 64.2793C46.6152 64.2793 40.3788 61.4886 35.8654 56.9752C31.3519 52.4617 28.5613 46.2287 28.5613 39.3405C28.5613 32.4557 31.3519 26.2194 35.8654 21.7059C40.3788 17.1924 46.6152 14.4018 53.5 14.4018ZM100.999 55.2327C100.341 56.1072 99.6009 57.0243 98.7722 57.9873C96.8005 60.2767 94.6944 62.3795 92.477 64.2891C81.3341 73.8859 67.4138 78.6844 53.5 78.6844C39.5862 78.6844 25.6658 73.8859 14.523 64.2891C12.3056 62.3795 10.1995 60.28 8.22775 57.9873C7.39908 57.0276 6.66212 56.1072 6.00049 55.2327C5.2537 54.2435 4.57898 53.2805 3.96976 52.3503L3.97631 52.3471C1.32653 48.3085 0 43.8245 0 39.3405C0 34.8566 1.32653 30.3693 3.97958 26.3307C4.5757 25.4202 5.22423 24.4965 5.92188 23.5663C6.63919 22.6099 7.4089 21.6502 8.22775 20.6971C10.1995 18.4076 12.3089 16.3048 14.523 14.3953C25.6658 4.79843 39.5862 0 53.5 0C67.4105 0 81.3341 4.79843 92.477 14.3953C94.6944 16.3048 96.8005 18.4043 98.7722 20.6971C99.5911 21.6502 100.361 22.6099 101.078 23.5663C101.776 24.4965 102.424 25.4235 103.02 26.3307C105.67 30.3693 107 34.8566 107 39.3405C107 43.759 105.713 48.1775 103.138 52.1702C103.106 52.2324 103.07 52.2914 103.03 52.3503C102.421 53.2773 101.746 54.2435 100.999 55.2327Z" fill="white"/>
</svg>
