<svg width="59" height="87" viewBox="0 0 59 87" fill="none" xmlns="http://www.w3.org/2000/svg">
<path fill-rule="evenodd" clip-rule="evenodd" d="M22.8845 86.2315C20.2182 85.703 17.6801 84.9019 15.2704 83.8281C10.6012 81.7135 6.88889 78.6927 4.13333 74.7656C1.37778 70.8385 0 66.2318 0 60.9453C0 56.1875 1.10988 52.0716 3.32963 48.5977C5.54938 45.1237 8.68765 42.4049 12.7444 40.4414C9.3 38.5534 6.62099 36.2122 4.70741 33.418C2.87037 30.5482 1.95185 26.9609 1.95185 22.6562C1.95185 18.7292 3.02346 15.0286 5.16667 11.5547C7.38642 8.08073 10.6778 5.28646 15.0407 3.17188C19.4037 1.05729 24.7235 0 31 0C37.2765 0 42.5963 1.09505 46.9593 3.28515C51.3222 5.39973 54.5753 8.19401 56.7185 11.668C57.685 13.2345 58.4335 14.8471 58.9642 16.5058L40.135 52.894C39.8704 52.5419 39.5809 52.2048 39.2667 51.8828C37.3531 49.8438 34.5593 48.8242 30.8852 48.8242C27.2877 48.8242 24.379 49.806 22.1593 51.7695C20.0161 53.7331 18.9444 56.4518 18.9444 59.9258C18.9444 63.1732 19.9778 65.8542 22.0444 67.9687C24.1511 70.0472 27.0342 71.1042 30.6938 71.1397L22.8845 86.2315ZM23.9963 32.7383C22.0827 30.9258 21.1259 28.5846 21.1259 25.7148C21.1259 22.6185 22.0444 20.2018 23.8815 18.4648C25.7951 16.7279 28.1679 15.8594 31 15.8594C33.9852 15.8594 36.358 16.7279 38.1185 18.4648C39.9556 20.2018 40.8741 22.5807 40.8741 25.6016C40.8741 28.4714 39.9173 30.8125 38.0037 32.625C36.0901 34.4375 33.7556 35.3437 31 35.3437C28.2444 35.3437 25.9099 34.4753 23.9963 32.7383Z" fill="url(#paint0_linear_291_39)"/>
<defs>
<linearGradient id="paint0_linear_291_39" x1="-0.757313" y1="42.4373" x2="54.5266" y2="42.4373" gradientUnits="userSpaceOnUse">
<stop stop-color="#DD00AB"/>
<stop offset="1" stop-color="#7E2AC0"/>
</linearGradient>
</defs>
</svg>
