<svg width="451" height="103" viewBox="0 0 451 103" fill="none" xmlns="http://www.w3.org/2000/svg">
<path d="M8.1032 78.0529C2.70106 70.0898 -3.8147e-06 59.3641 -3.8147e-06 45.8756C-3.8147e-06 32.3872 2.70106 21.702 8.1032 13.8202C13.5872 5.85714 22.3861 1.87561 34.5 1.87561C46.6139 1.87561 55.3719 5.85714 60.774 13.8202C66.258 21.702 69 32.3872 69 45.8756C69 59.3641 66.258 70.0898 60.774 78.0529C55.3719 85.9347 46.6139 89.8756 34.5 89.8756C22.3861 89.8756 13.5872 85.9347 8.1032 78.0529ZM45.6726 64.0363C47.4733 59.7297 48.3737 53.6762 48.3737 45.8756C48.3737 38.0751 47.4733 32.0621 45.6726 27.8368C43.8719 23.5303 40.1477 21.377 34.5 21.377C28.8523 21.377 25.1281 23.5303 23.3274 27.8368C21.5267 32.0621 20.6263 38.0751 20.6263 45.8756C20.6263 53.6762 21.5267 59.7297 23.3274 64.0363C25.1281 68.2616 28.8523 70.3742 34.5 70.3742C40.1477 70.3742 43.8719 68.2616 45.6726 64.0363Z" fill="url(#paint0_linear_291_38)"/>
<line x1="83.7536" y1="101.859" x2="135.899" y2="0.651594" stroke="url(#paint1_linear_291_38)" stroke-width="2"/>
<path d="M8.1032 78.0529C2.70106 70.0898 -3.8147e-06 59.3641 -3.8147e-06 45.8756C-3.8147e-06 32.3872 2.70106 21.702 8.1032 13.8202C13.5872 5.85714 22.3861 1.87561 34.5 1.87561C46.6139 1.87561 55.3719 5.85714 60.774 13.8202C66.258 21.702 69 32.3872 69 45.8756C69 59.3641 66.258 70.0898 60.774 78.0529C55.3719 85.9347 46.6139 89.8756 34.5 89.8756C22.3861 89.8756 13.5872 85.9347 8.1032 78.0529ZM45.6726 64.0363C47.4733 59.7297 48.3737 53.6762 48.3737 45.8756C48.3737 38.0751 47.4733 32.0621 45.6726 27.8368C43.8719 23.5303 40.1477 21.377 34.5 21.377C28.8523 21.377 25.1281 23.5303 23.3274 27.8368C21.5267 32.0621 20.6263 38.0751 20.6263 45.8756C20.6263 53.6762 21.5267 59.7297 23.3274 64.0363C25.1281 68.2616 28.8523 70.3742 34.5 70.3742C40.1477 70.3742 43.8719 68.2616 45.6726 64.0363Z" fill="url(#paint2_linear_291_38)"/>
<line x1="83.7536" y1="101.859" x2="135.899" y2="0.651594" stroke="url(#paint3_linear_291_38)" stroke-width="2"/>
<path d="M145.685 48.392C143.333 48.392 141.139 48.0047 139.102 47.2302C137.094 46.4269 135.329 45.3082 133.809 43.8738C132.289 42.4395 131.098 40.7613 130.238 38.8393C129.406 36.8886 128.99 34.7801 128.99 32.5139C128.99 30.219 129.406 28.1105 130.238 26.1885C131.098 24.2665 132.274 22.6027 133.766 21.197C135.286 19.7914 137.051 18.7013 139.059 17.9267C141.067 17.1235 143.247 16.7219 145.599 16.7219C147.98 16.7219 150.16 17.0948 152.14 17.8407C154.119 18.5865 155.84 19.6192 157.303 20.9388L151.58 26.7049C150.892 25.959 150.046 25.3709 149.042 24.9406C148.066 24.5103 146.919 24.2952 145.599 24.2952C144.452 24.2952 143.39 24.4816 142.415 24.8546C141.468 25.2275 140.651 25.7725 139.962 26.4897C139.274 27.2069 138.729 28.0818 138.327 29.1145C137.954 30.1186 137.768 31.2517 137.768 32.5139C137.768 33.8048 137.954 34.9666 138.327 35.9993C138.729 37.0034 139.274 37.864 139.962 38.5811C140.651 39.2983 141.468 39.8577 142.415 40.2593C143.39 40.6322 144.452 40.8187 145.599 40.8187C146.89 40.8187 148.038 40.6179 149.042 40.2163C150.074 39.8147 150.964 39.2266 151.71 38.452L157.476 44.2181C155.955 45.5376 154.248 46.5704 152.355 47.3162C150.462 48.0334 148.238 48.392 145.685 48.392ZM175.677 48.478C173.267 48.478 171.044 48.0764 169.007 47.2732C166.999 46.47 165.235 45.3512 163.715 43.9169C162.223 42.4825 161.061 40.79 160.229 38.8393C159.397 36.8886 158.981 34.7801 158.981 32.5139C158.981 30.219 159.383 28.1105 160.186 26.1885C161.018 24.2665 162.18 22.5883 163.672 21.154C165.163 19.7196 166.913 18.6152 168.921 17.8407C170.958 17.0374 173.181 16.6358 175.591 16.6358C178.001 16.6358 180.209 17.0374 182.217 17.8407C184.254 18.6152 186.018 19.7196 187.51 21.154C189.002 22.5883 190.149 24.2808 190.953 26.2315C191.784 28.1535 192.2 30.262 192.2 32.5569C192.2 34.8232 191.784 36.9316 190.953 38.8823C190.149 40.8043 189.002 42.4969 187.51 43.9599C186.018 45.3942 184.269 46.513 182.261 47.3162C180.252 48.0908 178.058 48.478 175.677 48.478ZM175.591 40.9048C177.197 40.9048 178.589 40.5605 179.765 39.872C180.941 39.1836 181.845 38.2082 182.476 36.946C183.107 35.6838 183.422 34.2064 183.422 32.5139C183.422 31.2517 183.236 30.1186 182.863 29.1145C182.519 28.0818 182.002 27.2069 181.314 26.4897C180.625 25.7438 179.793 25.1845 178.818 24.8115C177.871 24.4099 176.796 24.2091 175.591 24.2091C173.984 24.2091 172.593 24.5534 171.417 25.2418C170.241 25.9016 169.337 26.8626 168.706 28.1248C168.075 29.3584 167.759 30.8214 167.759 32.5139C167.759 33.8048 167.932 34.9666 168.276 35.9993C168.649 37.0321 169.179 37.9213 169.868 38.6672C170.556 39.3844 171.374 39.9437 172.321 40.3454C173.296 40.7183 174.386 40.9048 175.591 40.9048ZM197.035 47.8756V17.2383H203.059L205.641 23.6927V47.8756H197.035ZM218.12 47.8756L200.349 25.543L203.059 17.2383L220.831 39.5708L218.12 47.8756ZM218.12 47.8756L215.968 41.0769V17.2383H224.574V47.8756H218.12ZM240.243 48.392C237.633 48.392 235.352 48.019 233.402 47.2732C231.48 46.4987 229.701 45.2795 228.066 43.6156L233.445 38.2369C234.563 39.2983 235.74 40.1159 236.973 40.6896C238.207 41.2346 239.526 41.5072 240.932 41.5072C242.108 41.5072 242.997 41.3351 243.6 40.9908C244.202 40.6179 244.503 40.1159 244.503 39.4848C244.503 38.8537 244.245 38.3373 243.729 37.9357C243.213 37.5054 242.524 37.1325 241.663 36.8169C240.832 36.4727 239.899 36.1284 238.866 35.7842C237.862 35.4399 236.858 35.024 235.854 34.5363C234.85 34.0486 233.918 33.4606 233.057 32.7721C232.226 32.0549 231.551 31.18 231.035 30.1472C230.519 29.0858 230.26 27.7949 230.26 26.2745C230.26 24.2952 230.734 22.5883 231.68 21.154C232.627 19.7196 233.961 18.6296 235.682 17.8837C237.403 17.1092 239.426 16.7219 241.749 16.7219C244.044 16.7219 246.167 17.0948 248.118 17.8407C250.097 18.5578 251.732 19.5906 253.023 20.9388L247.602 26.3176C246.655 25.3996 245.708 24.7255 244.762 24.2952C243.815 23.8362 242.782 23.6067 241.663 23.6067C240.774 23.6067 240.057 23.7501 239.512 24.037C238.996 24.3239 238.737 24.7542 238.737 25.3279C238.737 25.9303 238.996 26.4323 239.512 26.8339C240.028 27.2069 240.702 27.5511 241.534 27.8667C242.395 28.1822 243.327 28.5121 244.331 28.8563C245.364 29.2006 246.382 29.6165 247.386 30.1042C248.39 30.5632 249.308 31.1656 250.14 31.9115C251.001 32.6286 251.689 33.5323 252.206 34.6224C252.722 35.7125 252.98 37.0321 252.98 38.5811C252.98 41.708 251.862 44.132 249.624 45.8532C247.415 47.5457 244.288 48.392 240.243 48.392ZM271.229 48.392C268.533 48.392 266.18 47.8469 264.172 46.7568C262.164 45.6381 260.601 44.1033 259.482 42.1526C258.363 40.2019 257.804 37.9644 257.804 35.4399V17.2383H266.41V36.2145C266.41 37.1898 266.625 38.0217 267.055 38.7102C267.485 39.3987 268.059 39.9294 268.776 40.3023C269.522 40.6466 270.34 40.8187 271.229 40.8187C272.147 40.8187 272.95 40.6466 273.639 40.3023C274.356 39.9294 274.915 39.413 275.317 38.7533C275.719 38.0648 275.919 37.2329 275.919 36.2575V17.2383H284.568V35.483C284.568 38.0074 284.009 40.245 282.89 42.1957C281.8 44.1177 280.251 45.6381 278.243 46.7568C276.264 47.8469 273.926 48.392 271.229 48.392ZM290.372 47.8756V17.2383H298.978V47.8756H290.372ZM297.386 47.8756V40.5605H311.715V47.8756H297.386ZM320.997 47.8756V17.2383H329.603V47.8756H320.997ZM311.832 24.5533V17.2383H338.811V24.5533H311.832ZM343.337 47.8756V17.2383H351.943V47.8756H343.337ZM358.327 47.8756V17.2383H364.351L366.933 23.6927V47.8756H358.327ZM379.412 47.8756L361.64 25.543L364.351 17.2383L382.123 39.5708L379.412 47.8756ZM379.412 47.8756L377.26 41.0769V17.2383H385.866V47.8756H379.412ZM407.33 48.392C404.949 48.392 402.74 48.0047 400.704 47.2302C398.696 46.4269 396.931 45.3082 395.411 43.8738C393.919 42.4395 392.757 40.7613 391.926 38.8393C391.094 36.9173 390.678 34.8232 390.678 32.5569C390.678 30.262 391.108 28.1535 391.969 26.2315C392.858 24.3095 394.077 22.6457 395.626 21.24C397.204 19.8057 399.025 18.7013 401.091 17.9267C403.156 17.1235 405.365 16.7219 407.718 16.7219C410.558 16.7219 413.096 17.2096 415.334 18.1849C417.6 19.1603 419.436 20.4798 420.842 22.1437L415.033 27.9527C413.971 26.7192 412.867 25.8012 411.719 25.1988C410.572 24.5964 409.195 24.2952 407.588 24.2952C406.068 24.2952 404.691 24.6394 403.458 25.3279C402.224 25.9877 401.234 26.9343 400.489 28.1679C399.771 29.4014 399.413 30.8501 399.413 32.5139C399.413 34.1777 399.743 35.6407 400.402 36.903C401.091 38.1365 402.038 39.0975 403.242 39.786C404.447 40.4745 405.853 40.8187 407.459 40.8187C409.008 40.8187 410.314 40.5175 411.375 39.9151C412.436 39.3126 413.24 38.452 413.785 37.3333C414.359 36.2145 414.645 34.8949 414.645 33.3745L420.54 37.1181L406.298 36.6878V29.803H423.294V31.0939C423.294 34.7658 422.62 37.8926 421.272 40.4745C419.952 43.0563 418.088 45.0213 415.678 46.3696C413.297 47.7178 410.514 48.392 407.33 48.392ZM437.116 48.392C434.505 48.392 432.225 48.019 430.274 47.2732C428.352 46.4987 426.573 45.2795 424.938 43.6156L430.317 38.2369C431.436 39.2983 432.612 40.1159 433.845 40.6896C435.079 41.2346 436.399 41.5072 437.804 41.5072C438.98 41.5072 439.87 41.3351 440.472 40.9908C441.075 40.6179 441.376 40.1159 441.376 39.4848C441.376 38.8537 441.118 38.3373 440.601 37.9357C440.085 37.5054 439.396 37.1325 438.536 36.8169C437.704 36.4727 436.772 36.1284 435.739 35.7842C434.735 35.4399 433.731 35.024 432.727 34.5363C431.723 34.0486 430.79 33.4606 429.93 32.7721C429.098 32.0549 428.424 31.18 427.907 30.1472C427.391 29.0858 427.133 27.7949 427.133 26.2745C427.133 24.2952 427.606 22.5883 428.553 21.154C429.499 19.7196 430.833 18.6296 432.555 17.8837C434.276 17.1092 436.298 16.7219 438.622 16.7219C440.917 16.7219 443.04 17.0948 444.99 17.8407C446.97 18.5578 448.605 19.5906 449.896 20.9388L444.474 26.3176C443.527 25.3996 442.581 24.7255 441.634 24.2952C440.687 23.8362 439.655 23.6067 438.536 23.6067C437.646 23.6067 436.929 23.7501 436.384 24.037C435.868 24.3239 435.61 24.7542 435.61 25.3279C435.61 25.9303 435.868 26.4323 436.384 26.8339C436.901 27.2069 437.575 27.5511 438.407 27.8667C439.267 28.1822 440.2 28.5121 441.204 28.8563C442.236 29.2006 443.255 29.6165 444.259 30.1042C445.263 30.5632 446.181 31.1656 447.013 31.9115C447.873 32.6286 448.562 33.5323 449.078 34.6224C449.594 35.7125 449.853 37.0321 449.853 38.5811C449.853 41.708 448.734 44.132 446.496 45.8532C444.287 47.5457 441.161 48.392 437.116 48.392Z" fill="url(#paint4_linear_291_38)"/>
<path d="M133.182 85.2161C133.069 85.8808 132.453 86.3996 131.804 86.3996C131.14 86.3996 130.718 85.8808 130.832 85.2161C130.945 84.5515 131.561 84.0327 132.226 84.0327C132.874 84.0327 133.296 84.5515 133.182 85.2161ZM138.714 85.2161C138.601 85.8808 137.985 86.3996 137.336 86.3996C136.671 86.3996 136.25 85.8808 136.363 85.2161C136.477 84.5515 137.093 84.0327 137.758 84.0327C138.406 84.0327 138.828 84.5515 138.714 85.2161ZM144.246 85.2161C144.132 85.8808 143.516 86.3996 142.868 86.3996C142.203 86.3996 141.782 85.8808 141.895 85.2161C142.009 84.5515 142.625 84.0327 143.289 84.0327C143.938 84.0327 144.359 84.5515 144.246 85.2161ZM154.152 86.2861L156.275 74.2893H158.123L157.394 78.3909C158.14 77.6452 159.226 77.2075 160.377 77.2075C162.371 77.2075 163.7 78.5206 163.263 81.0173L162.322 86.2861H160.49L161.382 81.2929C161.658 79.6555 160.928 78.8124 159.583 78.8124C158.221 78.8124 157.167 79.6555 156.891 81.2929V81.2604L156 86.2861H154.152ZM171.392 78.7638C170.111 78.7638 168.927 79.6392 168.522 81.1145H173.483C173.71 79.6392 172.77 78.7638 171.392 78.7638ZM174.715 83.6274C173.937 85.1837 172.316 86.432 170.127 86.432C167.566 86.432 165.977 84.6163 166.479 81.8116C166.982 79.007 169.106 77.2075 171.748 77.2075C174.293 77.2075 175.785 78.9746 175.331 81.5685C175.282 81.8441 175.201 82.1359 175.104 82.4439H168.279C168.101 83.9516 169.025 84.8757 170.403 84.8757C171.537 84.8757 172.267 84.3245 172.721 83.6274H174.715ZM177.928 86.2861L180.052 74.2893H181.9L179.776 86.2861H177.928ZM187.018 78.6665C187.715 77.9208 188.931 77.2075 190.39 77.2075C192.74 77.2075 194.264 79.0232 193.778 81.7792C193.292 84.5352 191.119 86.432 188.768 86.432C187.293 86.432 186.369 85.6863 185.899 84.9892L184.926 90.5337H183.078L185.396 77.3534H187.245L187.018 78.6665ZM191.897 81.7792C192.238 79.85 191.103 78.8124 189.709 78.8124C188.331 78.8124 186.807 79.8986 186.466 81.8116C186.126 83.7409 187.261 84.8271 188.639 84.8271C190.033 84.8271 191.557 83.7084 191.897 81.7792ZM203.436 83.8219C203.436 85.4431 201.847 86.432 199.723 86.432C197.713 86.432 196.189 85.2486 196.432 83.5463H198.232C198.151 84.3569 198.751 84.973 199.837 84.973C200.81 84.973 201.62 84.6487 201.62 83.8868C201.62 82.298 197.178 82.7195 197.178 79.8338C197.178 78.2612 198.621 77.2075 200.712 77.2075C202.739 77.2075 204.149 78.3585 203.939 80.077H202.188C202.269 79.2339 201.669 78.6665 200.599 78.6665C199.675 78.6665 199.043 79.088 199.043 79.7527C199.043 81.4388 203.436 81.0497 203.436 83.8219ZM213.374 81.8116C213.86 79.0232 216 77.2075 218.561 77.2075C220.75 77.2075 221.982 78.2937 222.16 80.1742H220.166C220.004 79.315 219.388 78.7638 218.286 78.7638C216.794 78.7638 215.611 79.8662 215.27 81.8116C214.93 83.7733 215.724 84.8757 217.216 84.8757C218.318 84.8757 219.08 84.3893 219.583 83.4653H221.577C220.766 85.2161 219.129 86.432 216.94 86.432C214.379 86.432 212.871 84.6163 213.374 81.8116ZM233.924 80.9848C233.924 84.0489 231.525 86.432 228.444 86.432C226.158 86.432 224.635 84.9081 224.635 82.6709C224.635 79.6392 226.937 77.2075 230.049 77.2075C232.335 77.2075 233.924 78.7314 233.924 80.9848ZM226.548 82.5898C226.548 84.0975 227.472 84.8757 228.671 84.8757C230.584 84.8757 232.011 83.0762 232.011 81.0983C232.011 79.542 230.99 78.7638 229.79 78.7638C227.845 78.7638 226.548 80.5795 226.548 82.5898ZM242.836 86.2861L243.727 81.2929C244.003 79.6555 243.273 78.8124 241.928 78.8124C240.566 78.8124 239.512 79.6555 239.237 81.2929V81.2442L238.345 86.2861H236.497L238.069 77.3534H239.917L239.739 78.3909C240.469 77.6452 241.539 77.2075 242.609 77.2075C244.7 77.2075 246.046 78.5206 245.608 81.0173L244.668 86.2861H242.836ZM249.165 77.3534H251.143L252.391 84.6325L256.201 77.3534H258.195L253.218 86.2861H250.981L249.165 77.3534ZM264.699 78.7638C263.418 78.7638 262.235 79.6392 261.829 81.1145H266.79C267.017 79.6392 266.077 78.7638 264.699 78.7638ZM268.022 83.6274C267.244 85.1837 265.623 86.432 263.434 86.432C260.873 86.432 259.284 84.6163 259.787 81.8116C260.289 79.007 262.413 77.2075 265.055 77.2075C267.601 77.2075 269.092 78.9746 268.638 81.5685C268.59 81.8441 268.509 82.1359 268.411 82.4439H261.586C261.408 83.9516 262.332 84.8757 263.71 84.8757C264.845 84.8757 265.574 84.3245 266.028 83.6274H268.022ZM273.083 86.2861H271.235L272.808 77.3534H274.656L274.38 78.9259C275.077 77.8884 276.083 77.2075 277.363 77.2075L277.023 79.1205H276.553C275.191 79.1205 274.251 79.6879 273.926 81.5198L273.083 86.2861ZM279.808 83.8057L280.683 78.8611H279.63L279.889 77.3534H280.959L281.348 75.1323H283.212L282.823 77.3534H284.98L284.72 78.8611H282.548L281.672 83.8057C281.559 84.4704 281.77 84.746 282.548 84.746H283.683L283.407 86.2861H281.948C280.359 86.2861 279.5 85.6214 279.808 83.8057ZM293.213 86.2861L294.786 77.3534H296.634L295.061 86.2861H293.213ZM295.937 76.1699C295.272 76.1699 294.851 75.6511 294.964 74.9864C295.078 74.3217 295.694 73.803 296.358 73.803C297.007 73.803 297.428 74.3217 297.315 74.9864C297.201 75.6511 296.585 76.1699 295.937 76.1699ZM299.287 81.7792C299.774 79.0232 301.962 77.2075 304.329 77.2075C305.496 77.2075 306.631 77.7587 307.166 78.6017L307.928 74.2893H309.793L307.669 86.2861H305.804L306.048 84.9405C305.334 85.7511 304.151 86.432 302.692 86.432C300.341 86.432 298.801 84.5352 299.287 81.7792ZM306.599 81.8116C306.939 79.8986 305.821 78.8124 304.426 78.8124C303.048 78.8124 301.525 79.85 301.184 81.7792C300.844 83.7084 301.978 84.8271 303.356 84.8271C304.751 84.8271 306.258 83.7409 306.599 81.8116ZM316.808 78.7638C315.527 78.7638 314.344 79.6392 313.939 81.1145H318.899C319.126 79.6392 318.186 78.7638 316.808 78.7638ZM320.132 83.6274C319.353 85.1837 317.732 86.432 315.544 86.432C312.982 86.432 311.393 84.6163 311.896 81.8116C312.398 79.007 314.522 77.2075 317.165 77.2075C319.71 77.2075 321.201 78.9746 320.748 81.5685C320.699 81.8441 320.618 82.1359 320.521 82.4439H313.695C313.517 83.9516 314.441 84.8757 315.819 84.8757C316.954 84.8757 317.684 84.3245 318.137 83.6274H320.132ZM323.523 81.7792C324.009 79.0232 326.198 77.2075 328.549 77.2075C330.056 77.2075 330.964 77.9208 331.386 78.6503L331.613 77.3534H333.477L331.904 86.2861H330.04L330.283 84.9568C329.586 85.7187 328.386 86.432 326.895 86.432C324.577 86.432 323.036 84.5352 323.523 81.7792ZM330.834 81.8116C331.175 79.8986 330.056 78.8124 328.662 78.8124C327.284 78.8124 325.76 79.85 325.42 81.7792C325.079 83.7084 326.214 84.8271 327.592 84.8271C328.986 84.8271 330.494 83.7409 330.834 81.8116ZM342.957 83.8219C342.957 85.4431 341.368 86.432 339.244 86.432C337.234 86.432 335.71 85.2486 335.953 83.5463H337.753C337.672 84.3569 338.271 84.973 339.358 84.973C340.33 84.973 341.141 84.6487 341.141 83.8868C341.141 82.298 336.699 82.7195 336.699 79.8338C336.699 78.2612 338.142 77.2075 340.233 77.2075C342.26 77.2075 343.67 78.3585 343.459 80.077H341.708C341.789 79.2339 341.19 78.6665 340.12 78.6665C339.195 78.6665 338.563 79.088 338.563 79.7527C338.563 81.4388 342.957 81.0497 342.957 83.8219ZM353.445 83.8057L354.321 78.8611H353.267L353.527 77.3534H354.597L354.986 75.1323H356.85L356.461 77.3534H358.617L358.358 78.8611H356.185L355.31 83.8057C355.196 84.4704 355.407 84.746 356.185 84.746H357.32L357.045 86.2861H355.585C353.997 86.2861 353.137 85.6214 353.445 83.8057ZM369.756 80.9848C369.756 84.0489 367.356 86.432 364.276 86.432C361.99 86.432 360.466 84.9081 360.466 82.6709C360.466 79.6392 362.768 77.2075 365.881 77.2075C368.167 77.2075 369.756 78.7314 369.756 80.9848ZM362.379 82.5898C362.379 84.0975 363.303 84.8757 364.503 84.8757C366.416 84.8757 367.843 83.0762 367.843 81.0983C367.843 79.542 366.821 78.7638 365.622 78.7638C363.676 78.7638 362.379 80.5795 362.379 82.5898ZM378.989 81.7792C379.475 79.0232 381.663 77.2075 384.014 77.2075C385.522 77.2075 386.43 77.9208 386.851 78.6503L387.078 77.3534H388.943L387.37 86.2861H385.506L385.749 84.9568C385.052 85.7187 383.852 86.432 382.361 86.432C380.042 86.432 378.502 84.5352 378.989 81.7792ZM386.3 81.8116C386.641 79.8986 385.522 78.8124 384.128 78.8124C382.75 78.8124 381.226 79.85 380.885 81.7792C380.545 83.7084 381.68 84.8271 383.058 84.8271C384.452 84.8271 385.96 83.7409 386.3 81.8116ZM391.597 81.8116C392.083 79.0232 394.223 77.2075 396.785 77.2075C398.974 77.2075 400.206 78.2937 400.384 80.1742H398.39C398.228 79.315 397.612 78.7638 396.509 78.7638C395.018 78.7638 393.834 79.8662 393.494 81.8116C393.153 83.7733 393.948 84.8757 395.439 84.8757C396.542 84.8757 397.304 84.3893 397.806 83.4653H399.8C398.99 85.2161 397.352 86.432 395.164 86.432C392.602 86.432 391.095 84.6163 391.597 81.8116ZM403.49 83.8057L404.366 78.8611H403.312L403.571 77.3534H404.641L405.03 75.1323H406.895L406.506 77.3534H408.662L408.403 78.8611H406.23L405.355 83.8057C405.241 84.4704 405.452 84.746 406.23 84.746H407.365L407.089 86.2861H405.63C404.042 86.2861 403.182 85.6214 403.49 83.8057ZM410.414 86.2861L411.986 77.3534H413.835L412.262 86.2861H410.414ZM413.138 76.1699C412.473 76.1699 412.051 75.6511 412.165 74.9864C412.278 74.3217 412.894 73.803 413.559 73.803C414.208 73.803 414.629 74.3217 414.516 74.9864C414.402 75.6511 413.786 76.1699 413.138 76.1699ZM425.696 80.9848C425.696 84.0489 423.297 86.432 420.217 86.432C417.931 86.432 416.407 84.9081 416.407 82.6709C416.407 79.6392 418.709 77.2075 421.822 77.2075C424.108 77.2075 425.696 78.7314 425.696 80.9848ZM418.32 82.5898C418.32 84.0975 419.244 84.8757 420.444 84.8757C422.357 84.8757 423.783 83.0762 423.783 81.0983C423.783 79.542 422.762 78.7638 421.562 78.7638C419.617 78.7638 418.32 80.5795 418.32 82.5898ZM434.608 86.2861L435.5 81.2929C435.775 79.6555 435.046 78.8124 433.7 78.8124C432.338 78.8124 431.285 79.6555 431.009 81.2929V81.2442L430.117 86.2861H428.269L429.842 77.3534H431.69L431.512 78.3909C432.241 77.6452 433.311 77.2075 434.381 77.2075C436.472 77.2075 437.818 78.5206 437.38 81.0173L436.44 86.2861H434.608ZM442.526 85.2161C442.413 85.8808 441.797 86.3996 441.148 86.3996C440.483 86.3996 440.062 85.8808 440.175 85.2161C440.289 84.5515 440.905 84.0327 441.57 84.0327C442.218 84.0327 442.64 84.5515 442.526 85.2161Z" fill="#7064E9"/>
<line opacity="0.2" x1="130.702" y1="61.2067" x2="437.378" y2="61.2067" stroke="white" stroke-width="1.35099"/>
<path d="M145.685 48.392C143.333 48.392 141.139 48.0047 139.102 47.2302C137.094 46.4269 135.329 45.3082 133.809 43.8738C132.289 42.4395 131.098 40.7613 130.238 38.8393C129.406 36.8886 128.99 34.7801 128.99 32.5139C128.99 30.219 129.406 28.1105 130.238 26.1885C131.098 24.2665 132.274 22.6027 133.766 21.197C135.286 19.7914 137.051 18.7013 139.059 17.9267C141.067 17.1235 143.247 16.7219 145.599 16.7219C147.98 16.7219 150.16 17.0948 152.14 17.8407C154.119 18.5865 155.84 19.6192 157.303 20.9388L151.58 26.7049C150.892 25.959 150.046 25.3709 149.042 24.9406C148.066 24.5103 146.919 24.2952 145.599 24.2952C144.452 24.2952 143.39 24.4816 142.415 24.8546C141.468 25.2275 140.651 25.7725 139.962 26.4897C139.274 27.2069 138.729 28.0818 138.327 29.1145C137.954 30.1186 137.768 31.2517 137.768 32.5139C137.768 33.8048 137.954 34.9666 138.327 35.9993C138.729 37.0034 139.274 37.864 139.962 38.5811C140.651 39.2983 141.468 39.8577 142.415 40.2593C143.39 40.6322 144.452 40.8187 145.599 40.8187C146.89 40.8187 148.038 40.6179 149.042 40.2163C150.074 39.8147 150.964 39.2266 151.71 38.452L157.476 44.2181C155.955 45.5376 154.248 46.5704 152.355 47.3162C150.462 48.0334 148.238 48.392 145.685 48.392ZM175.677 48.478C173.267 48.478 171.044 48.0764 169.007 47.2732C166.999 46.47 165.235 45.3512 163.715 43.9169C162.223 42.4825 161.061 40.79 160.229 38.8393C159.397 36.8886 158.981 34.7801 158.981 32.5139C158.981 30.219 159.383 28.1105 160.186 26.1885C161.018 24.2665 162.18 22.5883 163.672 21.154C165.163 19.7196 166.913 18.6152 168.921 17.8407C170.958 17.0374 173.181 16.6358 175.591 16.6358C178.001 16.6358 180.209 17.0374 182.217 17.8407C184.254 18.6152 186.018 19.7196 187.51 21.154C189.002 22.5883 190.149 24.2808 190.953 26.2315C191.784 28.1535 192.2 30.262 192.2 32.5569C192.2 34.8232 191.784 36.9316 190.953 38.8823C190.149 40.8043 189.002 42.4969 187.51 43.9599C186.018 45.3942 184.269 46.513 182.261 47.3162C180.252 48.0908 178.058 48.478 175.677 48.478ZM175.591 40.9048C177.197 40.9048 178.589 40.5605 179.765 39.872C180.941 39.1836 181.845 38.2082 182.476 36.946C183.107 35.6838 183.422 34.2064 183.422 32.5139C183.422 31.2517 183.236 30.1186 182.863 29.1145C182.519 28.0818 182.002 27.2069 181.314 26.4897C180.625 25.7438 179.793 25.1845 178.818 24.8115C177.871 24.4099 176.796 24.2091 175.591 24.2091C173.984 24.2091 172.593 24.5534 171.417 25.2418C170.241 25.9016 169.337 26.8626 168.706 28.1248C168.075 29.3584 167.759 30.8214 167.759 32.5139C167.759 33.8048 167.932 34.9666 168.276 35.9993C168.649 37.0321 169.179 37.9213 169.868 38.6672C170.556 39.3844 171.374 39.9437 172.321 40.3454C173.296 40.7183 174.386 40.9048 175.591 40.9048ZM197.035 47.8756V17.2383H203.059L205.641 23.6927V47.8756H197.035ZM218.12 47.8756L200.349 25.543L203.059 17.2383L220.831 39.5708L218.12 47.8756ZM218.12 47.8756L215.968 41.0769V17.2383H224.574V47.8756H218.12ZM240.243 48.392C237.633 48.392 235.352 48.019 233.402 47.2732C231.48 46.4987 229.701 45.2795 228.066 43.6156L233.445 38.2369C234.563 39.2983 235.74 40.1159 236.973 40.6896C238.207 41.2346 239.526 41.5072 240.932 41.5072C242.108 41.5072 242.997 41.3351 243.6 40.9908C244.202 40.6179 244.503 40.1159 244.503 39.4848C244.503 38.8537 244.245 38.3373 243.729 37.9357C243.213 37.5054 242.524 37.1325 241.663 36.8169C240.832 36.4727 239.899 36.1284 238.866 35.7842C237.862 35.4399 236.858 35.024 235.854 34.5363C234.85 34.0486 233.918 33.4606 233.057 32.7721C232.226 32.0549 231.551 31.18 231.035 30.1472C230.519 29.0858 230.26 27.7949 230.26 26.2745C230.26 24.2952 230.734 22.5883 231.68 21.154C232.627 19.7196 233.961 18.6296 235.682 17.8837C237.403 17.1092 239.426 16.7219 241.749 16.7219C244.044 16.7219 246.167 17.0948 248.118 17.8407C250.097 18.5578 251.732 19.5906 253.023 20.9388L247.602 26.3176C246.655 25.3996 245.708 24.7255 244.762 24.2952C243.815 23.8362 242.782 23.6067 241.663 23.6067C240.774 23.6067 240.057 23.7501 239.512 24.037C238.996 24.3239 238.737 24.7542 238.737 25.3279C238.737 25.9303 238.996 26.4323 239.512 26.8339C240.028 27.2069 240.702 27.5511 241.534 27.8667C242.395 28.1822 243.327 28.5121 244.331 28.8563C245.364 29.2006 246.382 29.6165 247.386 30.1042C248.39 30.5632 249.308 31.1656 250.14 31.9115C251.001 32.6286 251.689 33.5323 252.206 34.6224C252.722 35.7125 252.98 37.0321 252.98 38.5811C252.98 41.708 251.862 44.132 249.624 45.8532C247.415 47.5457 244.288 48.392 240.243 48.392ZM271.229 48.392C268.533 48.392 266.18 47.8469 264.172 46.7568C262.164 45.6381 260.601 44.1033 259.482 42.1526C258.363 40.2019 257.804 37.9644 257.804 35.4399V17.2383H266.41V36.2145C266.41 37.1898 266.625 38.0217 267.055 38.7102C267.485 39.3987 268.059 39.9294 268.776 40.3023C269.522 40.6466 270.34 40.8187 271.229 40.8187C272.147 40.8187 272.95 40.6466 273.639 40.3023C274.356 39.9294 274.915 39.413 275.317 38.7533C275.719 38.0648 275.919 37.2329 275.919 36.2575V17.2383H284.568V35.483C284.568 38.0074 284.009 40.245 282.89 42.1957C281.8 44.1177 280.251 45.6381 278.243 46.7568C276.264 47.8469 273.926 48.392 271.229 48.392ZM290.372 47.8756V17.2383H298.978V47.8756H290.372ZM297.386 47.8756V40.5605H311.715V47.8756H297.386ZM320.997 47.8756V17.2383H329.603V47.8756H320.997ZM311.832 24.5533V17.2383H338.811V24.5533H311.832ZM343.337 47.8756V17.2383H351.943V47.8756H343.337ZM358.327 47.8756V17.2383H364.351L366.933 23.6927V47.8756H358.327ZM379.412 47.8756L361.64 25.543L364.351 17.2383L382.123 39.5708L379.412 47.8756ZM379.412 47.8756L377.26 41.0769V17.2383H385.866V47.8756H379.412ZM407.33 48.392C404.949 48.392 402.74 48.0047 400.704 47.2302C398.696 46.4269 396.931 45.3082 395.411 43.8738C393.919 42.4395 392.757 40.7613 391.926 38.8393C391.094 36.9173 390.678 34.8232 390.678 32.5569C390.678 30.262 391.108 28.1535 391.969 26.2315C392.858 24.3095 394.077 22.6457 395.626 21.24C397.204 19.8057 399.025 18.7013 401.091 17.9267C403.156 17.1235 405.365 16.7219 407.718 16.7219C410.558 16.7219 413.096 17.2096 415.334 18.1849C417.6 19.1603 419.436 20.4798 420.842 22.1437L415.033 27.9527C413.971 26.7192 412.867 25.8012 411.719 25.1988C410.572 24.5964 409.195 24.2952 407.588 24.2952C406.068 24.2952 404.691 24.6394 403.458 25.3279C402.224 25.9877 401.234 26.9343 400.489 28.1679C399.771 29.4014 399.413 30.8501 399.413 32.5139C399.413 34.1777 399.743 35.6407 400.402 36.903C401.091 38.1365 402.038 39.0975 403.242 39.786C404.447 40.4745 405.853 40.8187 407.459 40.8187C409.008 40.8187 410.314 40.5175 411.375 39.9151C412.436 39.3126 413.24 38.452 413.785 37.3333C414.359 36.2145 414.645 34.8949 414.645 33.3745L420.54 37.1181L406.298 36.6878V29.803H423.294V31.0939C423.294 34.7658 422.62 37.8926 421.272 40.4745C419.952 43.0563 418.088 45.0213 415.678 46.3696C413.297 47.7178 410.514 48.392 407.33 48.392ZM437.116 48.392C434.505 48.392 432.225 48.019 430.274 47.2732C428.352 46.4987 426.573 45.2795 424.938 43.6156L430.317 38.2369C431.436 39.2983 432.612 40.1159 433.845 40.6896C435.079 41.2346 436.399 41.5072 437.804 41.5072C438.98 41.5072 439.87 41.3351 440.472 40.9908C441.075 40.6179 441.376 40.1159 441.376 39.4848C441.376 38.8537 441.118 38.3373 440.601 37.9357C440.085 37.5054 439.396 37.1325 438.536 36.8169C437.704 36.4727 436.772 36.1284 435.739 35.7842C434.735 35.4399 433.731 35.024 432.727 34.5363C431.723 34.0486 430.79 33.4606 429.93 32.7721C429.098 32.0549 428.424 31.18 427.907 30.1472C427.391 29.0858 427.133 27.7949 427.133 26.2745C427.133 24.2952 427.606 22.5883 428.553 21.154C429.499 19.7196 430.833 18.6296 432.555 17.8837C434.276 17.1092 436.298 16.7219 438.622 16.7219C440.917 16.7219 443.04 17.0948 444.99 17.8407C446.97 18.5578 448.605 19.5906 449.896 20.9388L444.474 26.3176C443.527 25.3996 442.581 24.7255 441.634 24.2952C440.687 23.8362 439.655 23.6067 438.536 23.6067C437.646 23.6067 436.929 23.7501 436.384 24.037C435.868 24.3239 435.61 24.7542 435.61 25.3279C435.61 25.9303 435.868 26.4323 436.384 26.8339C436.901 27.2069 437.575 27.5511 438.407 27.8667C439.267 28.1822 440.2 28.5121 441.204 28.8563C442.236 29.2006 443.255 29.6165 444.259 30.1042C445.263 30.5632 446.181 31.1656 447.013 31.9115C447.873 32.6286 448.562 33.5323 449.078 34.6224C449.594 35.7125 449.853 37.0321 449.853 38.5811C449.853 41.708 448.734 44.132 446.496 45.8532C444.287 47.5457 441.161 48.392 437.116 48.392Z" fill="url(#paint5_linear_291_38)"/>
<line opacity="0.2" x1="130.702" y1="61.2067" x2="437.378" y2="61.2067" stroke="white" stroke-width="1.35099"/>
<defs>
<linearGradient id="paint0_linear_291_38" x1="-0.886213" y1="45.1833" x2="63.8071" y2="45.1833" gradientUnits="userSpaceOnUse">
<stop stop-color="#DD00AB"/>
<stop offset="1" stop-color="#7E2AC0"/>
</linearGradient>
<linearGradient id="paint1_linear_291_38" x1="84.4103" y1="103.842" x2="133.301" y2="8.9518" gradientUnits="userSpaceOnUse">
<stop stop-color="#DD00AB"/>
<stop offset="1" stop-color="#7E2AC0"/>
</linearGradient>
<linearGradient id="paint2_linear_291_38" x1="-0.886213" y1="45.1833" x2="63.8071" y2="45.1833" gradientUnits="userSpaceOnUse">
<stop stop-color="#DD00AB"/>
<stop offset="1" stop-color="#7E2AC0"/>
</linearGradient>
<linearGradient id="paint3_linear_291_38" x1="84.4103" y1="103.842" x2="133.301" y2="8.9518" gradientUnits="userSpaceOnUse">
<stop stop-color="#DD00AB"/>
<stop offset="1" stop-color="#7E2AC0"/>
</linearGradient>
<linearGradient id="paint4_linear_291_38" x1="123.852" y1="31.4508" x2="426.691" y2="31.4508" gradientUnits="userSpaceOnUse">
<stop stop-color="#DD00AB"/>
<stop offset="1" stop-color="#7E2AC0"/>
</linearGradient>
<linearGradient id="paint5_linear_291_38" x1="123.852" y1="31.4508" x2="426.691" y2="31.4508" gradientUnits="userSpaceOnUse">
<stop stop-color="#DD00AB"/>
<stop offset="1" stop-color="#7E2AC0"/>
</linearGradient>
</defs>
</svg>
