<svg width="87" height="87" viewBox="0 0 87 87" fill="none" xmlns="http://www.w3.org/2000/svg">
<path d="M80.4181 0H6.57409C3.01549 0 0.11319 2.8984 0.11319 6.4609V57.3519C0.11319 60.9105 3.01159 63.8128 6.57409 63.8128H32.1641L29.7149 76.3718H26.3047C24.0938 76.3718 22.3047 78.1726 22.3047 80.3718V82.403C22.3047 84.6139 24.1055 86.403 26.3047 86.403H60.6837C62.8946 86.403 64.6837 84.6022 64.6837 82.403V80.3718C64.6837 78.1609 62.8829 76.3718 60.6837 76.3718H57.2735L55.2969 66.2198C56.918 66.669 58.625 66.9307 60.3867 66.9307C62.375 66.9307 64.2969 66.6222 66.1055 66.0597L75.2071 83.6687C75.8477 84.907 76.9259 85.8092 78.2579 86.1999C78.7266 86.3405 79.2071 86.4108 79.6876 86.4108C80.586 86.4108 81.4884 86.1725 82.3087 85.692C83.5704 84.9616 84.4376 83.8131 84.7775 82.442C85.1056 81.1022 84.8673 79.7115 84.1173 78.5318L74.6759 63.8128H80.4259C83.9845 63.8128 86.8868 60.9144 86.8868 57.3519V6.46094C86.8751 2.89844 83.9767 0 80.4181 0ZM6.57409 1.8477H80.4141C82.9532 1.8477 85.0352 3.918 85.0352 6.4688V51.8478H79.1446C79.4337 50.5197 79.6055 49.1369 79.6055 47.7189C79.6055 43.6681 78.336 39.9103 76.1836 36.8089L76.1875 11.8709C76.1875 10.3397 74.9492 9.1014 73.418 9.1014H67.8985C66.3673 9.1014 65.129 10.3397 65.129 11.8709V29.1209C64.3087 28.91 63.4688 28.742 62.6173 28.6404V19.2498C62.6173 17.7186 61.379 16.4803 59.8478 16.4803H54.3283C52.7971 16.4803 51.5588 17.7186 51.5588 19.2498V30.6798C50.6799 31.1408 49.84 31.6681 49.0471 32.2579V24.8009C49.0471 23.2697 47.8088 22.0314 46.2776 22.0314H40.7581C39.2269 22.0314 37.9886 23.2697 37.9886 24.8009V42.7499H35.4769V13.7189C35.4769 12.1877 34.2386 10.9494 32.7074 10.9494H27.1879C25.6567 10.9494 24.4184 12.1877 24.4184 13.7189V42.7389H21.9067V28.4889C21.9067 26.9577 20.6684 25.7194 19.1372 25.7194H13.6177C12.0865 25.7194 10.8482 26.9577 10.8482 28.4889V42.7389H9.64904C9.13732 42.7389 8.72716 43.1491 8.72716 43.6608C8.72716 44.1725 9.13732 44.5827 9.64904 44.5827H41.489C41.3172 45.6022 41.2078 46.6413 41.2078 47.7116C41.2078 49.1335 41.3797 50.5124 41.6687 51.8405H1.95773V6.46148C1.95773 3.91848 4.02719 1.8477 6.57409 1.8477ZM74.3361 34.5507C72.3049 32.4023 69.797 30.7304 66.965 29.6991V11.8711C66.965 11.3594 67.3752 10.9492 67.8869 10.9492H73.4064C73.9181 10.9492 74.3282 11.3594 74.3282 11.8711L74.3243 34.5511L74.3361 34.5507ZM60.7581 28.5273C60.637 28.5273 60.5198 28.5078 60.387 28.5078C57.9182 28.5078 55.5589 28.996 53.387 29.8476V19.2576C53.387 18.7458 53.7972 18.3357 54.3089 18.3357H59.8284C60.3401 18.3357 60.7503 18.7458 60.7503 19.2576L60.7464 28.5271L60.7581 28.5273ZM41.8561 42.7383H39.817V24.8003C39.817 24.2886 40.2271 23.8784 40.7389 23.8784H46.2584C46.7701 23.8784 47.1802 24.2886 47.1802 24.8003V33.812C44.6568 36.1987 42.7858 39.2773 41.8561 42.7383ZM33.6061 42.7383H26.235V13.7183C26.235 13.2066 26.6452 12.7964 27.1569 12.7964H32.6764C33.1881 12.7964 33.5982 13.2066 33.5982 13.7183V42.7383H33.6061ZM20.0281 42.7383H12.657V28.4883C12.657 27.9766 13.0672 27.5664 13.5789 27.5664H19.0984C19.6101 27.5664 20.0203 27.9766 20.0203 28.4883L20.0163 42.7383H20.0281ZM1.95809 57.3473V53.6871H42.1381C43.1967 56.9059 45.0795 59.7379 47.5365 61.9566L6.57549 61.9605C4.02859 61.9605 1.95809 59.8903 1.95809 57.3473ZM62.8371 80.3703V82.4015C62.8371 83.5929 61.8683 84.5617 60.6769 84.5617L26.3059 84.5578C25.1145 84.5578 24.1457 83.5891 24.1457 82.3976V80.3664C24.1457 79.175 25.1144 78.2062 26.3059 78.2062H60.6849C61.8763 78.2101 62.8371 79.1789 62.8371 80.3703ZM55.3957 76.3703H31.5987L34.0479 63.8113H49.9269C50.9777 64.5027 52.1066 65.0808 53.2863 65.5496L55.3957 76.3703ZM43.0287 47.7183C43.0287 38.148 50.8178 30.3593 60.3877 30.3593C69.9576 30.3593 77.7467 38.1484 77.7467 47.7183C77.7467 57.2886 69.9576 65.0773 60.3877 65.0773C50.8178 65.0773 43.0287 57.2882 43.0287 47.7183ZM71.9667 63.0073L75.037 67.7964L70.4589 70.4448L67.8573 65.4136C69.3378 64.7886 70.7089 63.9682 71.9667 63.0073ZM82.9787 81.9993C82.7677 82.8704 82.1974 83.6204 81.3771 84.0891C80.5568 84.5579 79.6388 84.6789 78.7677 84.4289C77.9278 84.1789 77.2482 83.6204 76.838 82.8273L71.2989 72.0973L76.0294 69.3668L82.5489 79.5388C83.0372 80.2693 83.1896 81.1478 82.9787 81.9993ZM80.4201 61.9603H73.4904L73.4005 61.8119C75.7794 59.6127 77.6114 56.8314 78.6388 53.6908H85.0372V57.351C85.0372 59.8901 82.967 61.9603 80.4201 61.9603ZM60.3891 32.4173C51.9477 32.4173 45.0881 39.2767 45.0881 47.7183C45.0881 56.1597 51.9475 63.0193 60.3891 63.0193C68.8307 63.0193 75.6901 56.1599 75.6901 47.7183C75.6901 39.2769 68.8268 32.4173 60.3891 32.4173ZM60.3891 61.1673C52.9672 61.1673 46.9401 55.1361 46.9401 47.7183C46.9401 40.2964 52.9713 34.2693 60.3891 34.2693C67.811 34.2693 73.8381 40.3005 73.8381 47.7183C73.8381 55.1402 67.8069 61.1673 60.3891 61.1673ZM67.0766 40.4373C66.2758 40.3865 65.4985 40.6482 64.8969 41.1756L57.3969 47.785L55.5063 45.6952C54.3969 44.4647 52.4946 44.3671 51.268 45.4764C50.6664 46.0155 50.3188 46.7576 50.2797 47.5545C50.2406 48.3553 50.5102 49.1248 51.0492 49.7264L54.9281 54.0272C55.518 54.6874 56.3383 55.0155 57.1664 55.0155C57.8774 55.0155 58.5883 54.7655 59.1469 54.2655L68.8774 45.6952C70.1157 44.5936 70.2368 42.6952 69.147 41.4569C68.6196 40.8475 67.8774 40.488 67.0766 40.4373ZM67.6469 44.3006L57.9164 52.8709C57.4477 53.2928 56.7172 53.242 56.2875 52.7693L52.4086 48.4685C52.1977 48.2381 52.1 47.9373 52.1078 47.6404C52.1273 47.3318 52.2563 47.0389 52.4867 46.8396C52.7055 46.6404 52.9867 46.5389 53.2563 46.5389C53.5766 46.5389 53.8852 46.6678 54.1156 46.9178L56.6156 49.6873C56.9555 50.0662 57.5375 50.0974 57.9164 49.7576L66.0961 42.5467C66.3266 42.3475 66.6274 42.2459 66.936 42.2654C67.2446 42.285 67.5258 42.4256 67.7368 42.6561C68.1782 43.1482 68.1274 43.8788 67.6469 44.3006Z" fill="white"/>
</svg>
