<svg width="54" height="62" viewBox="0 0 54 62" fill="none" xmlns="http://www.w3.org/2000/svg">
<path d="M46.0926 46.1185L42.4117 49.7611C39.6994 52.4233 36.1788 55.8488 31.8499 60.0376C30.5488 61.2963 28.8098 62 27 62C25.1902 62 23.4512 61.2963 22.1501 60.0376L11.3247 49.5005C9.96234 48.1642 8.82325 47.0369 7.90744 46.1185C4.13162 42.3401 1.56031 37.5263 0.518667 32.2858C-0.522976 27.0453 0.0118273 21.6134 2.05545 16.677C4.09907 11.7406 7.55973 7.52135 11.9998 4.55288C16.4399 1.58441 21.66 0 27 0C32.34 0 37.5601 1.58441 42.0002 4.55288C46.4403 7.52135 49.9009 11.7406 51.9446 16.677C53.9882 21.6134 54.523 27.0453 53.4813 32.2858C52.4397 37.5263 49.8684 42.3401 46.0926 46.1185ZM34.7524 27.8679C34.7524 25.8106 33.9356 23.8376 32.4818 22.3829C31.0279 20.9281 29.0561 20.1109 27 20.1109C24.9439 20.1109 22.9721 20.9281 21.5182 22.3829C20.0644 23.8376 19.2476 25.8106 19.2476 27.8679C19.2476 29.9251 20.0644 31.8982 21.5182 33.3529C22.9721 34.8076 24.9439 35.6248 27 35.6248C29.0561 35.6248 31.0279 34.8076 32.4818 33.3529C33.9356 31.8982 34.7524 29.9251 34.7524 27.8679Z" fill="url(#paint0_linear_185_677)"/>
<defs>
<linearGradient id="paint0_linear_185_677" x1="-0.693555" y1="30.5122" x2="49.936" y2="30.5122" gradientUnits="userSpaceOnUse">
<stop stop-color="#DD00AB"/>
<stop offset="1" stop-color="#7E2AC0"/>
</linearGradient>
</defs>
</svg>
