<svg width="451" height="103" viewBox="0 0 451 103" fill="none" xmlns="http://www.w3.org/2000/svg">
<path d="M8.1032 77.9433C2.70107 69.9802 0 59.2545 0 45.766C0 32.2775 2.70107 21.5924 8.1032 13.7106C13.5872 5.74752 22.3861 1.76599 34.5 1.76599C46.6139 1.76599 55.3719 5.74752 60.774 13.7106C66.258 21.5924 69 32.2775 69 45.766C69 59.2545 66.258 69.9802 60.774 77.9433C55.3719 85.8251 46.6139 89.766 34.5 89.766C22.3861 89.766 13.5872 85.8251 8.1032 77.9433ZM45.6726 63.9267C47.4733 59.6201 48.3737 53.5665 48.3737 45.766C48.3737 37.9654 47.4733 31.9525 45.6726 27.7272C43.8719 23.4207 40.1477 21.2674 34.5 21.2674C28.8523 21.2674 25.1281 23.4207 23.3274 27.7272C21.5267 31.9525 20.6263 37.9654 20.6263 45.766C20.6263 53.5665 21.5267 59.6201 23.3274 63.9267C25.1281 68.152 28.8523 70.2646 34.5 70.2646C40.1477 70.2646 43.8719 68.152 45.6726 63.9267Z" fill="url(#paint0_linear_291_85)"/>
<line x1="83.7536" y1="101.749" x2="135.899" y2="0.541975" stroke="url(#paint1_linear_291_85)" stroke-width="2"/>
<path d="M8.1032 77.9433C2.70107 69.9802 0 59.2545 0 45.766C0 32.2775 2.70107 21.5924 8.1032 13.7106C13.5872 5.74752 22.3861 1.76599 34.5 1.76599C46.6139 1.76599 55.3719 5.74752 60.774 13.7106C66.258 21.5924 69 32.2775 69 45.766C69 59.2545 66.258 69.9802 60.774 77.9433C55.3719 85.8251 46.6139 89.766 34.5 89.766C22.3861 89.766 13.5872 85.8251 8.1032 77.9433ZM45.6726 63.9267C47.4733 59.6201 48.3737 53.5665 48.3737 45.766C48.3737 37.9654 47.4733 31.9525 45.6726 27.7272C43.8719 23.4207 40.1477 21.2674 34.5 21.2674C28.8523 21.2674 25.1281 23.4207 23.3274 27.7272C21.5267 31.9525 20.6263 37.9654 20.6263 45.766C20.6263 53.5665 21.5267 59.6201 23.3274 63.9267C25.1281 68.152 28.8523 70.2646 34.5 70.2646C40.1477 70.2646 43.8719 68.152 45.6726 63.9267Z" fill="url(#paint2_linear_291_85)"/>
<line x1="83.7536" y1="101.749" x2="135.899" y2="0.541975" stroke="url(#paint3_linear_291_85)" stroke-width="2"/>
<path d="M145.685 48.2824C143.333 48.2824 141.139 47.8951 139.102 47.1205C137.094 46.3173 135.329 45.1985 133.809 43.7642C132.289 42.3299 131.098 40.6517 130.238 38.7297C129.406 36.779 128.99 34.6705 128.99 32.4043C128.99 30.1093 129.406 28.0009 130.238 26.0789C131.098 24.1569 132.274 22.493 133.766 21.0874C135.286 19.6817 137.051 18.5917 139.059 17.8171C141.067 17.0139 143.247 16.6123 145.599 16.6123C147.98 16.6123 150.16 16.9852 152.14 17.7311C154.119 18.4769 155.84 19.5096 157.303 20.8292L151.58 26.5952C150.892 25.8494 150.046 25.2613 149.042 24.831C148.066 24.4007 146.919 24.1856 145.599 24.1856C144.452 24.1856 143.39 24.372 142.415 24.7449C141.468 25.1179 140.651 25.6629 139.962 26.3801C139.274 27.0972 138.729 27.9722 138.327 29.0049C137.954 30.0089 137.768 31.1421 137.768 32.4043C137.768 33.6952 137.954 34.857 138.327 35.8897C138.729 36.8937 139.274 37.7543 139.962 38.4715C140.651 39.1887 141.468 39.7481 142.415 40.1497C143.39 40.5226 144.452 40.7091 145.599 40.7091C146.89 40.7091 148.038 40.5083 149.042 40.1067C150.074 39.705 150.964 39.117 151.71 38.3424L157.476 44.1084C155.955 45.428 154.248 46.4607 152.355 47.2066C150.462 47.9238 148.238 48.2824 145.685 48.2824ZM175.677 48.3684C173.267 48.3684 171.044 47.9668 169.007 47.1636C166.999 46.3603 165.235 45.2416 163.715 43.8072C162.223 42.3729 161.061 40.6804 160.229 38.7297C159.397 36.779 158.981 34.6705 158.981 32.4043C158.981 30.1093 159.383 28.0009 160.186 26.0789C161.018 24.1569 162.18 22.4787 163.672 21.0444C165.163 19.61 166.913 18.5056 168.921 17.7311C170.958 16.9278 173.181 16.5262 175.591 16.5262C178.001 16.5262 180.209 16.9278 182.217 17.7311C184.254 18.5056 186.018 19.61 187.51 21.0444C189.002 22.4787 190.149 24.1712 190.953 26.1219C191.784 28.0439 192.2 30.1524 192.2 32.4473C192.2 34.7136 191.784 36.822 190.953 38.7727C190.149 40.6947 189.002 42.3872 187.51 43.8503C186.018 45.2846 184.269 46.4034 182.261 47.2066C180.252 47.9811 178.058 48.3684 175.677 48.3684ZM175.591 40.7951C177.197 40.7951 178.589 40.4509 179.765 39.7624C180.941 39.0739 181.845 38.0986 182.476 36.8364C183.107 35.5742 183.422 34.0968 183.422 32.4043C183.422 31.1421 183.236 30.0089 182.863 29.0049C182.519 27.9722 182.002 27.0972 181.314 26.3801C180.625 25.6342 179.793 25.0748 178.818 24.7019C177.871 24.3003 176.796 24.0995 175.591 24.0995C173.984 24.0995 172.593 24.4437 171.417 25.1322C170.241 25.792 169.337 26.753 168.706 28.0152C168.075 29.2487 167.759 30.7118 167.759 32.4043C167.759 33.6952 167.932 34.857 168.276 35.8897C168.649 36.9224 169.179 37.8117 169.868 38.5576C170.556 39.2747 171.374 39.8341 172.321 40.2357C173.296 40.6087 174.386 40.7951 175.591 40.7951ZM197.035 47.766V17.1286H203.059L205.641 23.5831V47.766H197.035ZM218.12 47.766L200.349 25.4334L203.059 17.1286L220.831 39.4612L218.12 47.766ZM218.12 47.766L215.968 40.9673V17.1286H224.574V47.766H218.12ZM240.243 48.2824C237.633 48.2824 235.352 47.9094 233.402 47.1636C231.48 46.389 229.701 45.1698 228.066 43.506L233.445 38.1273C234.563 39.1887 235.74 40.0062 236.973 40.58C238.207 41.125 239.526 41.3976 240.932 41.3976C242.108 41.3976 242.997 41.2254 243.6 40.8812C244.202 40.5083 244.503 40.0062 244.503 39.3751C244.503 38.744 244.245 38.2277 243.729 37.8261C243.213 37.3958 242.524 37.0228 241.663 36.7073C240.832 36.363 239.899 36.0188 238.866 35.6746C237.862 35.3303 236.858 34.9144 235.854 34.4267C234.85 33.939 233.918 33.3509 233.057 32.6625C232.226 31.9453 231.551 31.0704 231.035 30.0376C230.519 28.9762 230.26 27.6853 230.26 26.1649C230.26 24.1856 230.734 22.4787 231.68 21.0444C232.627 19.61 233.961 18.5199 235.682 17.7741C237.403 16.9995 239.426 16.6123 241.749 16.6123C244.044 16.6123 246.167 16.9852 248.118 17.7311C250.097 18.4482 251.732 19.4809 253.023 20.8292L247.602 26.208C246.655 25.29 245.708 24.6158 244.762 24.1856C243.815 23.7266 242.782 23.4971 241.663 23.4971C240.774 23.4971 240.057 23.6405 239.512 23.9274C238.996 24.2142 238.737 24.6445 238.737 25.2183C238.737 25.8207 238.996 26.3227 239.512 26.7243C240.028 27.0972 240.702 27.4415 241.534 27.757C242.395 28.0726 243.327 28.4025 244.331 28.7467C245.364 29.091 246.382 29.5069 247.386 29.9946C248.39 30.4536 249.308 31.056 250.14 31.8019C251.001 32.519 251.689 33.4227 252.206 34.5128C252.722 35.6028 252.98 36.9224 252.98 38.4715C252.98 41.5984 251.862 44.0224 249.624 45.7436C247.415 47.4361 244.288 48.2824 240.243 48.2824ZM271.229 48.2824C268.533 48.2824 266.18 47.7373 264.172 46.6472C262.164 45.5284 260.601 43.9937 259.482 42.043C258.363 40.0923 257.804 37.8547 257.804 35.3303V17.1286H266.41V36.1049C266.41 37.0802 266.625 37.9121 267.055 38.6006C267.485 39.2891 268.059 39.8198 268.776 40.1927C269.522 40.537 270.34 40.7091 271.229 40.7091C272.147 40.7091 272.95 40.537 273.639 40.1927C274.356 39.8198 274.915 39.3034 275.317 38.6436C275.719 37.9552 275.919 37.1232 275.919 36.1479V17.1286H284.568V35.3734C284.568 37.8978 284.009 40.1353 282.89 42.086C281.8 44.008 280.251 45.5284 278.243 46.6472C276.264 47.7373 273.926 48.2824 271.229 48.2824ZM290.372 47.766V17.1286H298.978V47.766H290.372ZM297.386 47.766V40.4509H311.715V47.766H297.386ZM320.997 47.766V17.1286H329.603V47.766H320.997ZM311.832 24.4437V17.1286H338.811V24.4437H311.832ZM343.337 47.766V17.1286H351.943V47.766H343.337ZM358.327 47.766V17.1286H364.351L366.933 23.5831V47.766H358.327ZM379.412 47.766L361.64 25.4334L364.351 17.1286L382.123 39.4612L379.412 47.766ZM379.412 47.766L377.26 40.9673V17.1286H385.866V47.766H379.412ZM407.33 48.2824C404.949 48.2824 402.74 47.8951 400.704 47.1205C398.696 46.3173 396.931 45.1985 395.411 43.7642C393.919 42.3299 392.757 40.6517 391.926 38.7297C391.094 36.8077 390.678 34.7136 390.678 32.4473C390.678 30.1524 391.108 28.0439 391.969 26.1219C392.858 24.1999 394.077 22.5361 395.626 21.1304C397.204 19.6961 399.025 18.5917 401.091 17.8171C403.156 17.0139 405.365 16.6123 407.718 16.6123C410.558 16.6123 413.096 17.0999 415.334 18.0753C417.6 19.0506 419.436 20.3702 420.842 22.034L415.033 27.8431C413.971 26.6096 412.867 25.6916 411.719 25.0892C410.572 24.4868 409.195 24.1856 407.588 24.1856C406.068 24.1856 404.691 24.5298 403.458 25.2183C402.224 25.8781 401.234 26.8247 400.489 28.0583C399.771 29.2918 399.413 30.7405 399.413 32.4043C399.413 34.0681 399.743 35.5311 400.402 36.7933C401.091 38.0269 402.038 38.9879 403.242 39.6764C404.447 40.3648 405.853 40.7091 407.459 40.7091C409.008 40.7091 410.314 40.4079 411.375 39.8054C412.436 39.203 413.24 38.3424 413.785 37.2236C414.359 36.1049 414.645 34.7853 414.645 33.2649L420.54 37.0085L406.298 36.5782V29.6934H423.294V30.9843C423.294 34.6562 422.62 37.783 421.272 40.3648C419.952 42.9466 418.088 44.9117 415.678 46.2599C413.297 47.6082 410.514 48.2824 407.33 48.2824ZM437.116 48.2824C434.505 48.2824 432.225 47.9094 430.274 47.1636C428.352 46.389 426.573 45.1698 424.938 43.506L430.317 38.1273C431.436 39.1887 432.612 40.0062 433.845 40.58C435.079 41.125 436.399 41.3976 437.804 41.3976C438.98 41.3976 439.87 41.2254 440.472 40.8812C441.075 40.5083 441.376 40.0062 441.376 39.3751C441.376 38.744 441.118 38.2277 440.601 37.8261C440.085 37.3958 439.396 37.0228 438.536 36.7073C437.704 36.363 436.772 36.0188 435.739 35.6746C434.735 35.3303 433.731 34.9144 432.727 34.4267C431.723 33.939 430.79 33.3509 429.93 32.6625C429.098 31.9453 428.424 31.0704 427.907 30.0376C427.391 28.9762 427.133 27.6853 427.133 26.1649C427.133 24.1856 427.606 22.4787 428.553 21.0444C429.499 19.61 430.833 18.5199 432.555 17.7741C434.276 16.9995 436.298 16.6123 438.622 16.6123C440.917 16.6123 443.04 16.9852 444.99 17.7311C446.97 18.4482 448.605 19.4809 449.896 20.8292L444.474 26.208C443.527 25.29 442.581 24.6158 441.634 24.1856C440.687 23.7266 439.655 23.4971 438.536 23.4971C437.646 23.4971 436.929 23.6405 436.384 23.9274C435.868 24.2142 435.61 24.6445 435.61 25.2183C435.61 25.8207 435.868 26.3227 436.384 26.7243C436.901 27.0972 437.575 27.4415 438.407 27.757C439.267 28.0726 440.2 28.4025 441.204 28.7467C442.236 29.091 443.255 29.5069 444.259 29.9946C445.263 30.4536 446.181 31.056 447.013 31.8019C447.873 32.519 448.562 33.4227 449.078 34.5128C449.594 35.6028 449.853 36.9224 449.853 38.4715C449.853 41.5984 448.734 44.0224 446.496 45.7436C444.287 47.4361 441.161 48.2824 437.116 48.2824Z" fill="url(#paint4_linear_291_85)"/>
<path d="M133.182 85.1065C133.069 85.7712 132.453 86.29 131.804 86.29C131.14 86.29 130.718 85.7712 130.832 85.1065C130.945 84.4418 131.561 83.9231 132.226 83.9231C132.874 83.9231 133.296 84.4418 133.182 85.1065ZM138.714 85.1065C138.601 85.7712 137.985 86.29 137.336 86.29C136.671 86.29 136.25 85.7712 136.363 85.1065C136.477 84.4418 137.093 83.9231 137.758 83.9231C138.406 83.9231 138.828 84.4418 138.714 85.1065ZM144.246 85.1065C144.132 85.7712 143.516 86.29 142.868 86.29C142.203 86.29 141.782 85.7712 141.895 85.1065C142.009 84.4418 142.625 83.9231 143.289 83.9231C143.938 83.9231 144.359 84.4418 144.246 85.1065ZM154.152 86.1765L156.275 74.1797H158.123L157.394 78.2813C158.14 77.5356 159.226 77.0978 160.377 77.0978C162.371 77.0978 163.7 78.411 163.263 80.9076L162.322 86.1765H160.49L161.382 81.1832C161.658 79.5458 160.928 78.7028 159.583 78.7028C158.221 78.7028 157.167 79.5458 156.891 81.1832V81.1508L156 86.1765H154.152ZM171.392 78.6542C170.111 78.6542 168.927 79.5296 168.522 81.0049H173.483C173.71 79.5296 172.77 78.6542 171.392 78.6542ZM174.715 83.5178C173.937 85.0741 172.316 86.3224 170.127 86.3224C167.566 86.3224 165.977 84.5067 166.479 81.702C166.982 78.8974 169.106 77.0978 171.748 77.0978C174.293 77.0978 175.785 78.8649 175.331 81.4588C175.282 81.7344 175.201 82.0263 175.104 82.3343H168.279C168.101 83.842 169.025 84.7661 170.403 84.7661C171.537 84.7661 172.267 84.2149 172.721 83.5178H174.715ZM177.928 86.1765L180.052 74.1797H181.9L179.776 86.1765H177.928ZM187.018 78.5569C187.715 77.8112 188.931 77.0978 190.39 77.0978C192.74 77.0978 194.264 78.9136 193.778 81.6696C193.292 84.4256 191.119 86.3224 188.768 86.3224C187.293 86.3224 186.369 85.5767 185.899 84.8796L184.926 90.424H183.078L185.396 77.2437H187.245L187.018 78.5569ZM191.897 81.6696C192.238 79.7404 191.103 78.7028 189.709 78.7028C188.331 78.7028 186.807 79.789 186.466 81.702C186.126 83.6312 187.261 84.7174 188.639 84.7174C190.033 84.7174 191.557 83.5988 191.897 81.6696ZM203.436 83.7123C203.436 85.3335 201.847 86.3224 199.723 86.3224C197.713 86.3224 196.189 85.139 196.432 83.4367H198.232C198.151 84.2473 198.751 84.8633 199.837 84.8633C200.81 84.8633 201.62 84.5391 201.62 83.7771C201.62 82.1884 197.178 82.6099 197.178 79.7242C197.178 78.1516 198.621 77.0978 200.712 77.0978C202.739 77.0978 204.149 78.2489 203.939 79.9673H202.188C202.269 79.1243 201.669 78.5569 200.599 78.5569C199.675 78.5569 199.043 78.9784 199.043 79.6431C199.043 81.3291 203.436 80.9401 203.436 83.7123ZM213.374 81.702C213.86 78.9136 216 77.0978 218.561 77.0978C220.75 77.0978 221.982 78.184 222.16 80.0646H220.166C220.004 79.2054 219.388 78.6542 218.286 78.6542C216.794 78.6542 215.611 79.7566 215.27 81.702C214.93 83.6637 215.724 84.7661 217.216 84.7661C218.318 84.7661 219.08 84.2797 219.583 83.3556H221.577C220.766 85.1065 219.129 86.3224 216.94 86.3224C214.379 86.3224 212.871 84.5067 213.374 81.702ZM233.924 80.8752C233.924 83.9393 231.525 86.3224 228.444 86.3224C226.158 86.3224 224.635 84.7985 224.635 82.5613C224.635 79.5296 226.937 77.0978 230.049 77.0978C232.335 77.0978 233.924 78.6218 233.924 80.8752ZM226.548 82.4802C226.548 83.9879 227.472 84.7661 228.671 84.7661C230.584 84.7661 232.011 82.9666 232.011 80.9887C232.011 79.4324 230.99 78.6542 229.79 78.6542C227.845 78.6542 226.548 80.4699 226.548 82.4802ZM242.836 86.1765L243.727 81.1832C244.003 79.5458 243.273 78.7028 241.928 78.7028C240.566 78.7028 239.512 79.5458 239.237 81.1832V81.1346L238.345 86.1765H236.497L238.069 77.2437H239.917L239.739 78.2813C240.469 77.5356 241.539 77.0978 242.609 77.0978C244.7 77.0978 246.046 78.411 245.608 80.9076L244.668 86.1765H242.836ZM249.165 77.2437H251.143L252.391 84.5229L256.201 77.2437H258.195L253.218 86.1765H250.981L249.165 77.2437ZM264.699 78.6542C263.418 78.6542 262.235 79.5296 261.829 81.0049H266.79C267.017 79.5296 266.077 78.6542 264.699 78.6542ZM268.022 83.5178C267.244 85.0741 265.623 86.3224 263.434 86.3224C260.873 86.3224 259.284 84.5067 259.787 81.702C260.289 78.8974 262.413 77.0978 265.055 77.0978C267.601 77.0978 269.092 78.8649 268.638 81.4588C268.59 81.7344 268.509 82.0263 268.411 82.3343H261.586C261.408 83.842 262.332 84.7661 263.71 84.7661C264.845 84.7661 265.574 84.2149 266.028 83.5178H268.022ZM273.083 86.1765H271.235L272.808 77.2437H274.656L274.38 78.8163C275.077 77.7787 276.083 77.0978 277.363 77.0978L277.023 79.0108H276.553C275.191 79.0108 274.251 79.5783 273.926 81.4102L273.083 86.1765ZM279.808 83.6961L280.683 78.7515H279.63L279.889 77.2437H280.959L281.348 75.0227H283.212L282.823 77.2437H284.98L284.72 78.7515H282.548L281.672 83.6961C281.559 84.3608 281.77 84.6364 282.548 84.6364H283.683L283.407 86.1765H281.948C280.359 86.1765 279.5 85.5118 279.808 83.6961ZM293.213 86.1765L294.786 77.2437H296.634L295.061 86.1765H293.213ZM295.937 76.0603C295.272 76.0603 294.851 75.5415 294.964 74.8768C295.078 74.2121 295.694 73.6933 296.358 73.6933C297.007 73.6933 297.428 74.2121 297.315 74.8768C297.201 75.5415 296.585 76.0603 295.937 76.0603ZM299.287 81.6696C299.774 78.9136 301.962 77.0978 304.329 77.0978C305.496 77.0978 306.631 77.649 307.166 78.4921L307.928 74.1797H309.793L307.669 86.1765H305.804L306.048 84.8309C305.334 85.6415 304.151 86.3224 302.692 86.3224C300.341 86.3224 298.801 84.4256 299.287 81.6696ZM306.599 81.702C306.939 79.789 305.821 78.7028 304.426 78.7028C303.048 78.7028 301.525 79.7404 301.184 81.6696C300.844 83.5988 301.978 84.7174 303.356 84.7174C304.751 84.7174 306.258 83.6312 306.599 81.702ZM316.808 78.6542C315.527 78.6542 314.344 79.5296 313.939 81.0049H318.899C319.126 79.5296 318.186 78.6542 316.808 78.6542ZM320.132 83.5178C319.353 85.0741 317.732 86.3224 315.544 86.3224C312.982 86.3224 311.393 84.5067 311.896 81.702C312.398 78.8974 314.522 77.0978 317.165 77.0978C319.71 77.0978 321.201 78.8649 320.748 81.4588C320.699 81.7344 320.618 82.0263 320.521 82.3343H313.695C313.517 83.842 314.441 84.7661 315.819 84.7661C316.954 84.7661 317.684 84.2149 318.137 83.5178H320.132ZM323.523 81.6696C324.009 78.9136 326.198 77.0978 328.549 77.0978C330.056 77.0978 330.964 77.8112 331.386 78.5407L331.613 77.2437H333.477L331.904 86.1765H330.04L330.283 84.8471C329.586 85.6091 328.386 86.3224 326.895 86.3224C324.577 86.3224 323.036 84.4256 323.523 81.6696ZM330.834 81.702C331.175 79.789 330.056 78.7028 328.662 78.7028C327.284 78.7028 325.76 79.7404 325.42 81.6696C325.079 83.5988 326.214 84.7174 327.592 84.7174C328.986 84.7174 330.494 83.6312 330.834 81.702ZM342.957 83.7123C342.957 85.3335 341.368 86.3224 339.244 86.3224C337.234 86.3224 335.71 85.139 335.953 83.4367H337.753C337.672 84.2473 338.271 84.8633 339.358 84.8633C340.33 84.8633 341.141 84.5391 341.141 83.7771C341.141 82.1884 336.699 82.6099 336.699 79.7242C336.699 78.1516 338.142 77.0978 340.233 77.0978C342.26 77.0978 343.67 78.2489 343.459 79.9673H341.708C341.789 79.1243 341.19 78.5569 340.12 78.5569C339.195 78.5569 338.563 78.9784 338.563 79.6431C338.563 81.3291 342.957 80.9401 342.957 83.7123ZM353.445 83.6961L354.321 78.7515H353.267L353.527 77.2437H354.597L354.986 75.0227H356.85L356.461 77.2437H358.617L358.358 78.7515H356.185L355.31 83.6961C355.196 84.3608 355.407 84.6364 356.185 84.6364H357.32L357.045 86.1765H355.585C353.997 86.1765 353.137 85.5118 353.445 83.6961ZM369.756 80.8752C369.756 83.9393 367.356 86.3224 364.276 86.3224C361.99 86.3224 360.466 84.7985 360.466 82.5613C360.466 79.5296 362.768 77.0978 365.881 77.0978C368.167 77.0978 369.756 78.6218 369.756 80.8752ZM362.379 82.4802C362.379 83.9879 363.303 84.7661 364.503 84.7661C366.416 84.7661 367.843 82.9666 367.843 80.9887C367.843 79.4324 366.821 78.6542 365.622 78.6542C363.676 78.6542 362.379 80.4699 362.379 82.4802ZM378.989 81.6696C379.475 78.9136 381.663 77.0978 384.014 77.0978C385.522 77.0978 386.43 77.8112 386.851 78.5407L387.078 77.2437H388.943L387.37 86.1765H385.506L385.749 84.8471C385.052 85.6091 383.852 86.3224 382.361 86.3224C380.042 86.3224 378.502 84.4256 378.989 81.6696ZM386.3 81.702C386.641 79.789 385.522 78.7028 384.128 78.7028C382.75 78.7028 381.226 79.7404 380.885 81.6696C380.545 83.5988 381.68 84.7174 383.058 84.7174C384.452 84.7174 385.96 83.6312 386.3 81.702ZM391.597 81.702C392.083 78.9136 394.223 77.0978 396.785 77.0978C398.974 77.0978 400.206 78.184 400.384 80.0646H398.39C398.228 79.2054 397.612 78.6542 396.509 78.6542C395.018 78.6542 393.834 79.7566 393.494 81.702C393.153 83.6637 393.948 84.7661 395.439 84.7661C396.542 84.7661 397.304 84.2797 397.806 83.3556H399.8C398.99 85.1065 397.352 86.3224 395.164 86.3224C392.602 86.3224 391.095 84.5067 391.597 81.702ZM403.49 83.6961L404.366 78.7515H403.312L403.571 77.2437H404.641L405.03 75.0227H406.895L406.506 77.2437H408.662L408.403 78.7515H406.23L405.355 83.6961C405.241 84.3608 405.452 84.6364 406.23 84.6364H407.365L407.089 86.1765H405.63C404.042 86.1765 403.182 85.5118 403.49 83.6961ZM410.414 86.1765L411.986 77.2437H413.835L412.262 86.1765H410.414ZM413.138 76.0603C412.473 76.0603 412.051 75.5415 412.165 74.8768C412.278 74.2121 412.894 73.6933 413.559 73.6933C414.208 73.6933 414.629 74.2121 414.516 74.8768C414.402 75.5415 413.786 76.0603 413.138 76.0603ZM425.696 80.8752C425.696 83.9393 423.297 86.3224 420.217 86.3224C417.931 86.3224 416.407 84.7985 416.407 82.5613C416.407 79.5296 418.709 77.0978 421.822 77.0978C424.108 77.0978 425.696 78.6218 425.696 80.8752ZM418.32 82.4802C418.32 83.9879 419.244 84.7661 420.444 84.7661C422.357 84.7661 423.783 82.9666 423.783 80.9887C423.783 79.4324 422.762 78.6542 421.562 78.6542C419.617 78.6542 418.32 80.4699 418.32 82.4802ZM434.608 86.1765L435.5 81.1832C435.775 79.5458 435.046 78.7028 433.7 78.7028C432.338 78.7028 431.285 79.5458 431.009 81.1832V81.1346L430.117 86.1765H428.269L429.842 77.2437H431.69L431.512 78.2813C432.241 77.5356 433.311 77.0978 434.381 77.0978C436.472 77.0978 437.818 78.411 437.38 80.9076L436.44 86.1765H434.608ZM442.526 85.1065C442.413 85.7712 441.797 86.29 441.148 86.29C440.483 86.29 440.062 85.7712 440.175 85.1065C440.289 84.4418 440.905 83.9231 441.57 83.9231C442.218 83.9231 442.64 84.4418 442.526 85.1065Z" fill="#A29AFA"/>
<line opacity="0.2" x1="130.702" y1="61.0971" x2="437.378" y2="61.0971" stroke="white" stroke-width="1.35099"/>
<path d="M145.685 48.2824C143.333 48.2824 141.139 47.8951 139.102 47.1205C137.094 46.3173 135.329 45.1985 133.809 43.7642C132.289 42.3299 131.098 40.6517 130.238 38.7297C129.406 36.779 128.99 34.6705 128.99 32.4043C128.99 30.1093 129.406 28.0009 130.238 26.0789C131.098 24.1569 132.274 22.493 133.766 21.0874C135.286 19.6817 137.051 18.5917 139.059 17.8171C141.067 17.0139 143.247 16.6123 145.599 16.6123C147.98 16.6123 150.16 16.9852 152.14 17.7311C154.119 18.4769 155.84 19.5096 157.303 20.8292L151.58 26.5952C150.892 25.8494 150.046 25.2613 149.042 24.831C148.066 24.4007 146.919 24.1856 145.599 24.1856C144.452 24.1856 143.39 24.372 142.415 24.7449C141.468 25.1179 140.651 25.6629 139.962 26.3801C139.274 27.0972 138.729 27.9722 138.327 29.0049C137.954 30.0089 137.768 31.1421 137.768 32.4043C137.768 33.6952 137.954 34.857 138.327 35.8897C138.729 36.8937 139.274 37.7543 139.962 38.4715C140.651 39.1887 141.468 39.7481 142.415 40.1497C143.39 40.5226 144.452 40.7091 145.599 40.7091C146.89 40.7091 148.038 40.5083 149.042 40.1067C150.074 39.705 150.964 39.117 151.71 38.3424L157.476 44.1084C155.955 45.428 154.248 46.4607 152.355 47.2066C150.462 47.9238 148.238 48.2824 145.685 48.2824ZM175.677 48.3684C173.267 48.3684 171.044 47.9668 169.007 47.1636C166.999 46.3603 165.235 45.2416 163.715 43.8072C162.223 42.3729 161.061 40.6804 160.229 38.7297C159.397 36.779 158.981 34.6705 158.981 32.4043C158.981 30.1093 159.383 28.0009 160.186 26.0789C161.018 24.1569 162.18 22.4787 163.672 21.0444C165.163 19.61 166.913 18.5056 168.921 17.7311C170.958 16.9278 173.181 16.5262 175.591 16.5262C178.001 16.5262 180.209 16.9278 182.217 17.7311C184.254 18.5056 186.018 19.61 187.51 21.0444C189.002 22.4787 190.149 24.1712 190.953 26.1219C191.784 28.0439 192.2 30.1524 192.2 32.4473C192.2 34.7136 191.784 36.822 190.953 38.7727C190.149 40.6947 189.002 42.3872 187.51 43.8503C186.018 45.2846 184.269 46.4034 182.261 47.2066C180.252 47.9811 178.058 48.3684 175.677 48.3684ZM175.591 40.7951C177.197 40.7951 178.589 40.4509 179.765 39.7624C180.941 39.0739 181.845 38.0986 182.476 36.8364C183.107 35.5742 183.422 34.0968 183.422 32.4043C183.422 31.1421 183.236 30.0089 182.863 29.0049C182.519 27.9722 182.002 27.0972 181.314 26.3801C180.625 25.6342 179.793 25.0748 178.818 24.7019C177.871 24.3003 176.796 24.0995 175.591 24.0995C173.984 24.0995 172.593 24.4437 171.417 25.1322C170.241 25.792 169.337 26.753 168.706 28.0152C168.075 29.2487 167.759 30.7118 167.759 32.4043C167.759 33.6952 167.932 34.857 168.276 35.8897C168.649 36.9224 169.179 37.8117 169.868 38.5576C170.556 39.2747 171.374 39.8341 172.321 40.2357C173.296 40.6087 174.386 40.7951 175.591 40.7951ZM197.035 47.766V17.1286H203.059L205.641 23.5831V47.766H197.035ZM218.12 47.766L200.349 25.4334L203.059 17.1286L220.831 39.4612L218.12 47.766ZM218.12 47.766L215.968 40.9673V17.1286H224.574V47.766H218.12ZM240.243 48.2824C237.633 48.2824 235.352 47.9094 233.402 47.1636C231.48 46.389 229.701 45.1698 228.066 43.506L233.445 38.1273C234.563 39.1887 235.74 40.0062 236.973 40.58C238.207 41.125 239.526 41.3976 240.932 41.3976C242.108 41.3976 242.997 41.2254 243.6 40.8812C244.202 40.5083 244.503 40.0062 244.503 39.3751C244.503 38.744 244.245 38.2277 243.729 37.8261C243.213 37.3958 242.524 37.0228 241.663 36.7073C240.832 36.363 239.899 36.0188 238.866 35.6746C237.862 35.3303 236.858 34.9144 235.854 34.4267C234.85 33.939 233.918 33.3509 233.057 32.6625C232.226 31.9453 231.551 31.0704 231.035 30.0376C230.519 28.9762 230.26 27.6853 230.26 26.1649C230.26 24.1856 230.734 22.4787 231.68 21.0444C232.627 19.61 233.961 18.5199 235.682 17.7741C237.403 16.9995 239.426 16.6123 241.749 16.6123C244.044 16.6123 246.167 16.9852 248.118 17.7311C250.097 18.4482 251.732 19.4809 253.023 20.8292L247.602 26.208C246.655 25.29 245.708 24.6158 244.762 24.1856C243.815 23.7266 242.782 23.4971 241.663 23.4971C240.774 23.4971 240.057 23.6405 239.512 23.9274C238.996 24.2142 238.737 24.6445 238.737 25.2183C238.737 25.8207 238.996 26.3227 239.512 26.7243C240.028 27.0972 240.702 27.4415 241.534 27.757C242.395 28.0726 243.327 28.4025 244.331 28.7467C245.364 29.091 246.382 29.5069 247.386 29.9946C248.39 30.4536 249.308 31.056 250.14 31.8019C251.001 32.519 251.689 33.4227 252.206 34.5128C252.722 35.6028 252.98 36.9224 252.98 38.4715C252.98 41.5984 251.862 44.0224 249.624 45.7436C247.415 47.4361 244.288 48.2824 240.243 48.2824ZM271.229 48.2824C268.533 48.2824 266.18 47.7373 264.172 46.6472C262.164 45.5284 260.601 43.9937 259.482 42.043C258.363 40.0923 257.804 37.8547 257.804 35.3303V17.1286H266.41V36.1049C266.41 37.0802 266.625 37.9121 267.055 38.6006C267.485 39.2891 268.059 39.8198 268.776 40.1927C269.522 40.537 270.34 40.7091 271.229 40.7091C272.147 40.7091 272.95 40.537 273.639 40.1927C274.356 39.8198 274.915 39.3034 275.317 38.6436C275.719 37.9552 275.919 37.1232 275.919 36.1479V17.1286H284.568V35.3734C284.568 37.8978 284.009 40.1353 282.89 42.086C281.8 44.008 280.251 45.5284 278.243 46.6472C276.264 47.7373 273.926 48.2824 271.229 48.2824ZM290.372 47.766V17.1286H298.978V47.766H290.372ZM297.386 47.766V40.4509H311.715V47.766H297.386ZM320.997 47.766V17.1286H329.603V47.766H320.997ZM311.832 24.4437V17.1286H338.811V24.4437H311.832ZM343.337 47.766V17.1286H351.943V47.766H343.337ZM358.327 47.766V17.1286H364.351L366.933 23.5831V47.766H358.327ZM379.412 47.766L361.64 25.4334L364.351 17.1286L382.123 39.4612L379.412 47.766ZM379.412 47.766L377.26 40.9673V17.1286H385.866V47.766H379.412ZM407.33 48.2824C404.949 48.2824 402.74 47.8951 400.704 47.1205C398.696 46.3173 396.931 45.1985 395.411 43.7642C393.919 42.3299 392.757 40.6517 391.926 38.7297C391.094 36.8077 390.678 34.7136 390.678 32.4473C390.678 30.1524 391.108 28.0439 391.969 26.1219C392.858 24.1999 394.077 22.5361 395.626 21.1304C397.204 19.6961 399.025 18.5917 401.091 17.8171C403.156 17.0139 405.365 16.6123 407.718 16.6123C410.558 16.6123 413.096 17.0999 415.334 18.0753C417.6 19.0506 419.436 20.3702 420.842 22.034L415.033 27.8431C413.971 26.6096 412.867 25.6916 411.719 25.0892C410.572 24.4868 409.195 24.1856 407.588 24.1856C406.068 24.1856 404.691 24.5298 403.458 25.2183C402.224 25.8781 401.234 26.8247 400.489 28.0583C399.771 29.2918 399.413 30.7405 399.413 32.4043C399.413 34.0681 399.743 35.5311 400.402 36.7933C401.091 38.0269 402.038 38.9879 403.242 39.6764C404.447 40.3648 405.853 40.7091 407.459 40.7091C409.008 40.7091 410.314 40.4079 411.375 39.8054C412.436 39.203 413.24 38.3424 413.785 37.2236C414.359 36.1049 414.645 34.7853 414.645 33.2649L420.54 37.0085L406.298 36.5782V29.6934H423.294V30.9843C423.294 34.6562 422.62 37.783 421.272 40.3648C419.952 42.9466 418.088 44.9117 415.678 46.2599C413.297 47.6082 410.514 48.2824 407.33 48.2824ZM437.116 48.2824C434.505 48.2824 432.225 47.9094 430.274 47.1636C428.352 46.389 426.573 45.1698 424.938 43.506L430.317 38.1273C431.436 39.1887 432.612 40.0062 433.845 40.58C435.079 41.125 436.399 41.3976 437.804 41.3976C438.98 41.3976 439.87 41.2254 440.472 40.8812C441.075 40.5083 441.376 40.0062 441.376 39.3751C441.376 38.744 441.118 38.2277 440.601 37.8261C440.085 37.3958 439.396 37.0228 438.536 36.7073C437.704 36.363 436.772 36.0188 435.739 35.6746C434.735 35.3303 433.731 34.9144 432.727 34.4267C431.723 33.939 430.79 33.3509 429.93 32.6625C429.098 31.9453 428.424 31.0704 427.907 30.0376C427.391 28.9762 427.133 27.6853 427.133 26.1649C427.133 24.1856 427.606 22.4787 428.553 21.0444C429.499 19.61 430.833 18.5199 432.555 17.7741C434.276 16.9995 436.298 16.6123 438.622 16.6123C440.917 16.6123 443.04 16.9852 444.99 17.7311C446.97 18.4482 448.605 19.4809 449.896 20.8292L444.474 26.208C443.527 25.29 442.581 24.6158 441.634 24.1856C440.687 23.7266 439.655 23.4971 438.536 23.4971C437.646 23.4971 436.929 23.6405 436.384 23.9274C435.868 24.2142 435.61 24.6445 435.61 25.2183C435.61 25.8207 435.868 26.3227 436.384 26.7243C436.901 27.0972 437.575 27.4415 438.407 27.757C439.267 28.0726 440.2 28.4025 441.204 28.7467C442.236 29.091 443.255 29.5069 444.259 29.9946C445.263 30.4536 446.181 31.056 447.013 31.8019C447.873 32.519 448.562 33.4227 449.078 34.5128C449.594 35.6028 449.853 36.9224 449.853 38.4715C449.853 41.5984 448.734 44.0224 446.496 45.7436C444.287 47.4361 441.161 48.2824 437.116 48.2824Z" fill="url(#paint5_linear_291_85)"/>
<line opacity="0.2" x1="130.702" y1="61.0971" x2="437.378" y2="61.0971" stroke="white" stroke-width="1.35099"/>
<path fill-rule="evenodd" clip-rule="evenodd" d="M91.8845 88.1219C89.2182 87.5934 86.6801 86.7922 84.2704 85.7185C79.6012 83.6039 75.8889 80.5831 73.1333 76.656C70.3778 72.7289 69 68.1221 69 62.8357C69 58.0779 70.1099 53.962 72.3296 50.488C74.5494 47.0141 77.6877 44.2953 81.7444 42.3318C78.3 40.4438 75.621 38.1026 73.7074 35.3083C71.8704 32.4386 70.9519 28.8513 70.9519 24.5466C70.9519 20.6195 72.0235 16.919 74.1667 13.4451C76.3864 9.97111 79.6778 7.17684 84.0407 5.06226C88.4037 2.94767 93.7235 1.89038 100 1.89038C106.277 1.89038 111.596 2.98543 115.959 5.17553C120.322 7.29012 123.575 10.0844 125.719 13.5583C126.685 15.1249 127.434 16.7375 127.964 18.3961L109.135 54.7844C108.87 54.4323 108.581 54.0952 108.267 53.7732C106.353 51.7341 103.559 50.7146 99.8852 50.7146C96.2877 50.7146 93.379 51.6964 91.1593 53.6599C89.0161 55.6234 87.9444 58.3422 87.9444 61.8162C87.9444 65.0636 88.9778 67.7445 91.0444 69.8591C93.1511 71.9376 96.0342 72.9946 99.6938 73.0301L91.8845 88.1219ZM92.9963 34.6287C91.0827 32.8162 90.1259 30.475 90.1259 27.6052C90.1259 24.5089 91.0444 22.0922 92.8815 20.3552C94.7951 18.6182 97.1679 17.7498 100 17.7498C102.985 17.7498 105.358 18.6182 107.119 20.3552C108.956 22.0922 109.874 24.4711 109.874 27.4919C109.874 30.3617 108.917 32.7029 107.004 34.5154C105.09 36.3279 102.756 37.2341 100 37.2341C97.2444 37.2341 94.9099 36.3656 92.9963 34.6287Z" fill="url(#paint6_linear_291_85)"/>
<defs>
<linearGradient id="paint0_linear_291_85" x1="-0.886209" y1="45.0736" x2="63.8071" y2="45.0736" gradientUnits="userSpaceOnUse">
<stop stop-color="#DD00AB"/>
<stop offset="1" stop-color="#7E2AC0"/>
</linearGradient>
<linearGradient id="paint1_linear_291_85" x1="84.4103" y1="103.733" x2="133.301" y2="8.84218" gradientUnits="userSpaceOnUse">
<stop stop-color="#DD00AB"/>
<stop offset="1" stop-color="#7E2AC0"/>
</linearGradient>
<linearGradient id="paint2_linear_291_85" x1="-0.886209" y1="45.0736" x2="63.8071" y2="45.0736" gradientUnits="userSpaceOnUse">
<stop stop-color="#DD00AB"/>
<stop offset="1" stop-color="#7E2AC0"/>
</linearGradient>
<linearGradient id="paint3_linear_291_85" x1="84.4103" y1="103.733" x2="133.301" y2="8.84218" gradientUnits="userSpaceOnUse">
<stop stop-color="#DD00AB"/>
<stop offset="1" stop-color="#7E2AC0"/>
</linearGradient>
<linearGradient id="paint4_linear_291_85" x1="123.852" y1="31.3411" x2="426.691" y2="31.3411" gradientUnits="userSpaceOnUse">
<stop stop-color="#DD00AB"/>
<stop offset="1" stop-color="#7E2AC0"/>
</linearGradient>
<linearGradient id="paint5_linear_291_85" x1="123.852" y1="31.3411" x2="426.691" y2="31.3411" gradientUnits="userSpaceOnUse">
<stop stop-color="#DD00AB"/>
<stop offset="1" stop-color="#7E2AC0"/>
</linearGradient>
<linearGradient id="paint6_linear_291_85" x1="68.2427" y1="44.3277" x2="123.527" y2="44.3277" gradientUnits="userSpaceOnUse">
<stop stop-color="#DD00AB"/>
<stop offset="1" stop-color="#7E2AC0"/>
</linearGradient>
</defs>
</svg>
