<svg width="236" height="75" viewBox="0 0 236 75" fill="none" xmlns="http://www.w3.org/2000/svg">
<g clip-path="url(#clip0_140_2)">
<path d="M100.343 52.5413L97.9936 49.5193C97.0952 49.7253 96.1968 49.794 95.2984 49.794C93.0179 49.794 90.9447 49.3133 89.0097 48.283C87.0747 47.2528 85.5543 45.8105 84.4486 43.8874C83.3429 42.033 82.7209 39.9039 82.7209 37.5001C82.7209 35.1649 83.2738 33.0358 84.3795 31.1127C85.4852 29.2583 87.0056 27.7473 88.8715 26.6484C90.7374 25.5495 92.8797 25.0687 95.1602 25.0001C97.4407 25.0001 99.5139 25.4808 101.449 26.511C103.384 27.5413 104.835 28.9836 106.01 30.9067C107.116 32.761 107.669 34.8902 107.669 37.2253C107.669 39.2858 107.254 41.2089 106.425 42.8572C105.595 44.5742 104.421 46.0165 102.969 47.1154L104.628 49.0385C106.148 50.7556 104.904 53.4341 102.555 53.5028C101.656 53.6402 100.896 53.2281 100.343 52.5413ZM90.5991 42.5825C91.774 43.8187 93.3634 44.4369 95.2984 44.4369C97.2334 44.4369 98.7538 43.7501 99.9286 42.4451C101.103 41.1402 101.656 39.4231 101.656 37.3627C101.656 35.2336 101.034 33.5165 99.8595 32.2803C98.6846 31.044 97.1643 30.4259 95.1602 30.4259C93.2252 30.4259 91.6357 31.1127 90.4609 32.349C89.2861 33.5852 88.7332 35.3023 88.7332 37.5001C88.8024 39.6292 89.4243 41.2775 90.5991 42.5825Z" fill="#1E2A2D"/>
<path d="M129.506 33.0358L129.644 46.7034C129.644 48.1457 128.47 49.3132 127.018 49.3132H126.327C124.876 49.3132 123.701 48.1457 123.701 46.7034C123.079 47.5275 122.319 48.2143 121.283 48.7638C120.246 49.3132 119.14 49.588 117.896 49.588C116.445 49.588 115.132 49.3132 113.957 48.6264C112.852 48.0083 111.953 47.0468 111.331 45.8105C110.709 44.5742 110.364 43.1319 110.364 41.4836L110.295 33.1731C110.295 31.5935 111.608 30.2198 113.197 30.2198C114.787 30.2198 116.169 31.5248 116.169 33.1045L116.238 40.5907C116.238 41.8957 116.583 42.8572 117.274 43.544C117.965 44.2308 118.864 44.5742 119.97 44.5742C121.144 44.5742 122.043 44.2308 122.665 43.4753C123.356 42.7885 123.632 41.7583 123.632 40.4534L123.563 32.9671C123.563 31.3874 124.876 30.0138 126.466 30.0138H126.535C128.124 30.1512 129.506 31.3874 129.506 33.0358Z" fill="#1E2A2D"/>
<path d="M133.584 27.1978C132.893 26.5797 132.616 25.8242 132.547 24.9313C132.547 24.0385 132.893 23.283 133.514 22.6648C134.136 22.0467 135.035 21.772 136.071 21.7033C137.108 21.7033 137.937 21.978 138.559 22.5962C139.25 23.2143 139.527 23.9698 139.596 24.8626C139.596 25.7555 139.25 26.511 138.628 27.1291C138.006 27.7473 137.108 28.022 136.141 28.0907C135.104 28.0907 134.206 27.7473 133.584 27.1978ZM139.112 32.967L139.25 46.2912C139.25 47.9396 137.937 49.2445 136.348 49.2445C134.689 49.2445 133.376 47.9396 133.376 46.3599L133.238 33.0357C133.238 31.3874 134.551 30.0824 136.141 30.0824C137.73 30.0137 139.043 31.3187 139.112 32.967Z" fill="#1E2A2D"/>
<path d="M142.844 34.3407C143.673 32.8297 144.779 31.6621 146.23 30.9066C147.681 30.0824 149.34 29.6703 151.275 29.6703C153.694 29.6703 155.698 30.2885 157.356 31.5247C159.015 32.761 160.051 34.5467 160.604 36.8132L154.316 36.8819C153.763 35.4396 152.726 34.6841 151.206 34.6841C150.1 34.6841 149.271 35.0962 148.649 35.989C148.027 36.8132 147.681 38.0495 147.681 39.5605C147.681 41.1401 148.027 42.3077 148.649 43.1319C149.271 43.9561 150.169 44.3682 151.275 44.3682C152.795 44.3682 153.832 43.6127 154.316 42.1704L160.604 42.1017C160.121 44.3682 159.084 46.1539 157.425 47.3901C155.767 48.6951 153.763 49.3132 151.413 49.3819C149.547 49.3819 147.82 49.0385 146.368 48.2143C144.917 47.3901 143.742 46.2912 142.913 44.7802C142.084 43.2692 141.669 41.5522 141.669 39.5605C141.669 37.6374 142.015 35.8517 142.844 34.3407Z" fill="#1E2A2D"/>
<path d="M174.08 47.8022L168.966 40.9341L169.036 46.0165C169.036 47.6649 167.722 48.9698 166.133 48.9698C164.474 48.9698 163.161 47.6649 163.161 46.0852L163.023 26.511C163.023 24.8627 164.336 23.5577 165.926 23.5577C167.584 23.5577 168.897 24.8627 168.897 26.4424L168.966 37.5687L173.942 30.838C174.426 30.1511 175.255 29.7391 176.154 29.7391C178.503 29.7391 179.816 32.4176 178.296 34.272L174.08 39.4231L178.365 44.4369C179.885 46.2226 178.641 48.9698 176.292 48.9698C175.462 48.9011 174.633 48.4891 174.08 47.8022Z" fill="#1E2A2D"/>
<path d="M187.211 23.8324L187.418 47.1841C187.418 48.0769 186.727 48.8324 185.759 48.8324C184.861 48.8324 184.101 48.1456 184.101 47.1841L183.893 23.8324C183.893 22.9396 184.584 22.1841 185.552 22.1841C186.45 22.1841 187.211 22.9396 187.211 23.8324Z" fill="#1E2A2D"/>
<path d="M192.048 25.2061C191.633 24.794 191.357 24.2445 191.357 23.6264C191.357 23.0083 191.564 22.4588 191.979 22.0467C192.394 21.6346 192.946 21.3599 193.568 21.3599C194.19 21.3599 194.674 21.566 195.089 21.9781C195.503 22.3901 195.711 22.9396 195.711 23.5577C195.711 24.1759 195.503 24.7253 195.089 25.1374C194.674 25.5495 194.19 25.8242 193.568 25.8242C193.016 25.8929 192.532 25.6868 192.048 25.2061ZM195.296 30.7006L195.434 47.1154C195.434 48.0083 194.743 48.7638 193.776 48.7638C192.877 48.7638 192.117 48.077 192.117 47.1154L191.979 30.7006C191.979 29.8077 192.67 29.0522 193.637 29.0522C194.536 29.0522 195.296 29.8077 195.296 30.7006Z" fill="#1E2A2D"/>
<path d="M215.614 30.7006C217.134 32.1429 217.894 34.2033 217.894 36.9506L217.963 46.978C217.963 47.8709 217.272 48.6264 216.374 48.6264C215.475 48.6264 214.715 47.9396 214.715 47.0467L214.646 37.5C214.646 35.5082 214.093 33.9973 213.126 32.967C212.158 31.9368 210.776 31.3874 209.048 31.4561C207.321 31.4561 205.939 32.0055 204.902 33.1044C203.865 34.2033 203.382 35.783 203.382 37.8434L203.451 47.1154C203.451 48.0083 202.76 48.7637 201.861 48.7637H201.792C200.894 48.7637 200.134 48.0769 200.134 47.1841L199.995 30.7006C199.995 29.8077 200.686 29.0522 201.654 29.0522C202.552 29.0522 203.313 29.739 203.313 30.7006V31.8681C203.934 30.8379 204.833 30.0824 205.939 29.533C207.044 28.9835 208.288 28.7088 209.67 28.7088C212.158 28.5714 214.093 29.2583 215.614 30.7006Z" fill="#1E2A2D"/>
<path d="M233.167 47.9396L225.772 39.8352L225.841 46.9094C225.841 47.8022 225.15 48.5577 224.183 48.5577C223.284 48.5577 222.524 47.8709 222.524 46.9094L222.317 23.5577C222.317 22.6649 223.008 21.9094 223.975 21.9094C224.874 21.9094 225.634 22.5962 225.634 23.5577L225.772 37.5687L232.821 29.3269C233.167 28.9835 233.581 28.7775 234.065 28.7775C235.516 28.7775 236.276 30.4945 235.309 31.5247L228.675 38.5989L235.516 45.7418C236.484 46.772 235.793 48.489 234.341 48.489C233.927 48.489 233.443 48.283 233.167 47.9396Z" fill="#1E2A2D"/>
<path d="M21.9069 53.1594C21.8378 53.1594 21.6996 53.228 21.6305 53.228C21.6996 53.228 21.7687 53.228 21.9069 53.1594Z" fill="#FE9001"/>
<path d="M21.9069 53.1594C21.8378 53.1594 21.6996 53.228 21.6305 53.228C21.6996 53.228 21.7687 53.228 21.9069 53.1594Z" fill="#FE9001"/>
<path d="M38.4235 15.6594C38.2853 15.5907 38.2162 15.522 38.0779 15.4533C38.0779 15.4533 38.0088 15.4533 38.0088 15.3846C37.9397 15.3159 37.8015 15.2473 37.7324 15.1786C37.7324 15.1786 37.6633 15.1786 37.6633 15.1099C37.5251 15.0412 37.456 14.9725 37.3178 14.9039C34.5535 14.6978 31.7892 15.1099 29.2323 16.0714C29.4396 15.7967 29.716 15.522 29.9233 15.2473C30.1307 14.9725 30.338 14.7665 30.5453 14.5605C30.6835 14.4231 30.7526 14.2857 30.8908 14.1484C30.9599 14.011 31.0981 13.9423 31.1673 13.8736C31.3055 13.7363 31.3746 13.5989 31.5128 13.5302C31.7201 13.3242 31.8583 13.1868 32.0656 12.9808C32.2039 12.8434 32.273 12.7747 32.4112 12.6374C32.6185 12.4313 32.8258 12.2253 33.0331 12.0192C33.3096 11.7445 33.5169 11.5385 33.7933 11.2637L33.8624 11.1951C34.0697 10.989 34.3462 10.783 34.5535 10.5769L34.6226 10.5083C34.5535 10.3022 34.5535 10.1648 34.5535 10.0275C34.5535 9.9588 34.5535 9.9588 34.5535 9.89012C32.273 11.8819 30.1998 14.1484 28.2648 16.5522C27.5046 16.8269 26.7444 17.239 26.0533 17.5824C25.9151 17.3764 25.7078 17.1703 25.4314 17.1017L26.2607 12.5C26.8826 12.5 27.4355 12.0879 27.5737 11.4011C27.6428 10.989 27.5046 10.6456 27.2282 10.3022L30.8908 5.49452C31.029 5.5632 31.1673 5.63188 31.3055 5.63188C31.5819 5.70056 31.8583 5.63188 32.0656 5.42584L34.4844 7.55496C34.4844 7.48628 34.4844 7.48628 34.4844 7.41759C34.4844 7.28023 34.5535 7.07419 34.5535 6.93683L32.4803 5.15111L35.1755 5.35715C35.2446 5.21979 35.3137 5.01375 35.4519 4.87639L32.4803 4.60166C32.4803 4.12089 32.1348 3.7088 31.5819 3.64012C31.3055 3.57144 31.0982 3.64012 30.8908 3.77748L29.0249 2.12913C29.1632 1.92309 29.3014 1.71704 29.3014 1.511C32.8258 0.824188 36.4885 0.686825 40.1512 1.09891C40.6349 0.96155 41.1878 0.824188 41.7406 0.824188C41.6715 0.824188 41.6024 0.824188 41.5333 0.755506C37.3869 0.137374 33.2405 0.206056 29.3705 0.96155C29.2323 0.480781 28.8176 0.068693 28.3339 1.16359e-05C27.6428 -0.137351 26.9517 0.343418 26.8826 1.09891C26.8826 1.23628 26.8826 1.37364 26.8826 1.511C20.2484 3.29672 14.2361 6.93683 9.67502 12.0192C9.60591 12.0192 9.5368 11.9506 9.4677 11.9506C8.77663 11.8132 8.08556 12.294 8.01645 13.0495C7.94735 13.3242 8.01645 13.5989 8.15467 13.805C4.69932 18.2006 2.21148 23.4203 1.10577 29.2583C0.622017 29.3956 0.207376 29.8077 0.138269 30.2885C0.069162 30.7692 0.345589 31.3187 0.760231 31.5934C0.207376 36.2638 0.55291 40.8654 1.72773 45.1236C1.38219 45.3297 1.17487 45.6044 1.10577 46.0165C0.967551 46.7033 1.4513 47.3901 2.21148 47.4588C2.28058 47.4588 2.4188 47.4588 2.4879 47.4588C5.11396 55.2198 10.3661 61.8132 17.415 66.0714C17.1386 65.728 16.8621 65.3159 16.6548 64.9725C12.4393 62.1566 8.77663 58.4478 6.08146 54.1209C4.76843 51.9918 3.73183 49.794 2.90254 47.4588L10.1588 55.7692C10.0206 55.9066 9.95145 56.1126 9.88234 56.3874C9.74412 57.0742 10.2279 57.761 10.988 57.8297C11.4718 57.8984 11.8864 57.6923 12.1629 57.3489L15.7564 59.2033C15.8255 58.9973 15.8255 58.8599 15.8946 58.7225L12.4393 56.9368C12.4393 56.8681 12.4393 56.7995 12.5084 56.7995C12.5775 56.25 12.3011 55.7692 11.8864 55.4945L16.102 43.0632H16.1711C16.2402 43.0632 16.3093 43.0632 16.4475 43.0632C16.8621 44.2308 17.415 45.3984 18.1061 46.4973C18.1061 49.2445 18.3825 51.9918 18.8662 54.6703C19.0044 54.533 19.1427 54.4643 19.35 54.3269C19.35 54.2583 19.35 54.2583 19.35 54.1896C19.2809 53.8462 19.2809 53.5714 19.2118 53.228V53.1594C19.2118 52.9533 19.1427 52.8159 19.1427 52.6099C19.1427 52.5412 19.1427 52.4039 19.0736 52.3352C19.0736 52.1978 19.0044 51.9918 19.0044 51.8544C19.0044 51.717 18.9353 51.5797 18.9353 51.3736C18.9353 51.2363 18.8662 51.0302 18.8662 50.8929C18.7971 50.4121 18.7971 49.8627 18.728 49.3819C18.728 49.2445 18.728 49.1072 18.728 48.9011C18.728 48.6951 18.728 48.489 18.728 48.283C18.728 48.2143 18.728 48.2143 18.728 48.1456C18.728 47.8709 18.728 47.5275 18.728 47.2528V47.1841C20.1793 49.5192 22.1834 51.5797 24.533 53.0907C24.6021 53.0907 24.6021 53.0907 24.6712 53.0907C24.7403 53.0907 24.8785 53.0907 24.9476 53.1594C25.2241 53.228 25.5005 53.228 25.7769 53.2967C22.8744 51.5797 20.4557 49.1758 18.728 46.2912C18.1061 45.1923 17.5532 44.0247 17.0695 42.8572C17.415 42.6511 17.7605 42.3077 17.8296 41.8956C17.9678 41.2088 17.4841 40.522 16.7239 40.4533C16.5857 40.4533 16.4475 40.4533 16.3784 40.4533C15.8255 38.1868 15.6873 35.783 16.0329 33.3105C16.6548 33.3105 17.1386 32.8297 17.2768 32.2116C17.3459 31.6621 17.0695 31.1127 16.5166 30.8379C17.4841 26.0302 20.3866 21.978 24.1875 19.2995C24.3257 19.4368 24.533 19.5055 24.7403 19.5055C25.4314 19.6429 26.1225 19.1621 26.1916 18.4066C26.1916 18.2692 26.1916 18.1319 26.1916 17.9945C26.9517 17.5824 27.781 17.1703 28.5412 16.8956C31.5819 15.728 34.9681 15.2473 38.4235 15.6594ZM26.7444 9.9588L28.1266 2.54122C28.3339 2.54122 28.4721 2.47254 28.6794 2.40386L30.5453 4.12089C30.4762 4.25825 30.4071 4.32693 30.4071 4.4643C30.4071 4.67034 30.4071 4.87639 30.4762 5.08243L26.7444 9.9588ZM14.9962 16.4148L12.923 25.2747L9.60591 14.4918C9.88234 14.4231 10.1588 14.217 10.297 13.9423L14.6507 15.3846C14.5816 15.7967 14.7198 16.1401 14.9962 16.4148ZM14.7198 32.6923L7.60181 40.1786C7.4636 40.1099 7.32538 39.9725 7.11806 39.9725C6.91074 39.9725 6.77253 39.9725 6.63432 40.0412L1.65862 31.7308C2.14237 31.5934 2.4879 31.1813 2.55701 30.7006C2.55701 30.5632 2.55701 30.4258 2.55701 30.2885L12.0938 26.8544C12.232 27.0605 12.5084 27.2665 12.7848 27.2665C12.923 27.2665 13.0613 27.2665 13.1304 27.2665L14.9271 30.8379C14.6507 31.044 14.5125 31.3187 14.4434 31.6621C14.3743 32.0742 14.5125 32.4176 14.7198 32.6923ZM1.52041 29.2583C2.55701 23.6951 4.90664 18.6127 8.36199 14.217C8.56931 14.3544 8.77663 14.4918 8.98395 14.4918H9.05306L12.3702 25.4121C12.0938 25.5495 11.9555 25.8242 11.8864 26.0989C11.8864 26.1676 11.8864 26.2363 11.8864 26.3736L2.34969 29.8077C2.21148 29.533 1.86594 29.3269 1.52041 29.2583ZM2.97165 45.1923C2.83344 45.1236 2.69522 45.055 2.4879 44.9863C2.34969 44.9863 2.28058 44.9863 2.14237 44.9863C0.967551 40.728 0.622017 36.2638 1.10577 31.7995L6.21967 40.3159C6.08146 40.4533 6.01235 40.6594 5.94325 40.8654C5.87414 41.2088 6.01235 41.4835 6.21967 41.6896L2.97165 45.1923ZM11.3336 55.2198C11.0572 55.2198 10.7807 55.2198 10.5734 55.3572L3.31719 47.0467C3.4554 46.9094 3.52451 46.7033 3.59361 46.4973C3.66272 46.1539 3.52451 45.8105 3.38629 45.5357L6.70342 41.9643C6.77253 41.9643 6.84164 42.033 6.91074 42.033C7.39449 42.1017 7.80913 41.8269 8.01645 41.4835L15.0654 41.8956C15.1345 42.1703 15.3418 42.4451 15.5491 42.6511L11.3336 55.2198ZM15.6873 40.522C15.4109 40.728 15.1345 41.0028 15.0654 41.3462L8.01645 40.8654C8.01645 40.728 7.94735 40.6594 7.94735 40.522L15.0654 32.967C15.1345 33.0357 15.2036 33.0357 15.2727 33.1044C14.9962 35.6456 15.1345 38.1181 15.6873 40.522ZM19.8337 22.6648C17.8987 25 16.5857 27.6786 15.8255 30.6319C15.6873 30.6319 15.5491 30.6319 15.48 30.7006L13.6832 27.0605C13.8905 26.9231 13.9596 26.717 14.0288 26.4423C14.0979 25.9616 13.8905 25.5495 13.4759 25.3434L15.48 16.6896C15.5491 16.7583 15.6873 16.7583 15.7564 16.7583C16.3093 16.8269 16.8621 16.5522 17.0695 16.0714L23.6346 18.2692C23.6346 18.4753 23.7037 18.6813 23.8419 18.8187C22.3216 19.9863 20.9394 21.2912 19.8337 22.6648ZM25.7769 12.3627L24.8785 16.9643C24.3257 16.9643 23.8419 17.3077 23.7037 17.8572L17.2077 15.728C17.2077 15.5907 17.2077 15.4533 17.2077 15.3159L25.3623 12.1566C25.5005 12.1566 25.6387 12.294 25.7769 12.3627ZM27.5737 2.47254L26.1916 9.89012C25.5696 9.89012 25.0859 10.3709 24.9476 10.989C24.8785 11.1951 24.9476 11.4698 25.0167 11.6758L16.8621 14.8352C16.6548 14.5605 16.3784 14.4231 16.0329 14.3544C15.48 14.2857 14.9962 14.4918 14.7198 14.9725L10.3661 13.5302C10.4352 13.0495 10.2279 12.6374 9.95145 12.3627C11.5409 10.6456 13.2686 9.13463 15.1345 7.69232C18.728 5.08243 22.6671 3.15935 26.8826 2.06045C27.1591 2.19781 27.3664 2.40386 27.5737 2.47254Z" fill="#FE9001"/>
<path d="M60.0539 62.0879L60.6068 62.8434C63.3019 66.3462 62.4035 71.4286 58.6027 73.8324C55.2164 75.9616 50.6554 75.0687 48.3057 71.8407L46.7854 69.7116C41.7406 71.2912 36.212 71.772 30.6144 70.9478C28.4721 70.6044 26.468 70.1236 24.4639 69.4368C24.0492 69.2995 23.5655 69.1621 23.1508 68.9561C21.0776 68.2006 19.1426 67.239 17.3459 66.0714C17.0694 65.728 16.793 65.316 16.5857 64.9725C15.6873 63.4616 15.3418 61.6758 15.6182 59.7528C15.6182 59.5467 15.6873 59.3407 15.7564 59.1346C15.8255 58.9286 15.8255 58.7912 15.8946 58.6539C16.3784 57.0055 17.415 55.6319 18.728 54.6017C18.8662 54.4643 19.0044 54.3956 19.2117 54.2583C19.7646 53.9149 20.3175 53.6401 20.9394 53.4341C21.1467 53.3654 21.3541 53.2967 21.5614 53.228H21.6305C21.6996 53.228 21.8378 53.1594 21.9069 53.1594C21.976 53.1594 22.0451 53.1594 22.1142 53.0907C22.1833 53.0907 22.1833 53.0907 22.2524 53.0907C22.9435 52.9533 23.6346 52.9533 24.3948 53.022C24.4639 53.022 24.4639 53.022 24.533 53.022C24.6021 53.022 24.7403 53.022 24.8094 53.0907C25.0858 53.1594 25.3623 53.1594 25.6387 53.228C26.5371 53.7775 27.5737 54.2583 28.5412 54.6704C29.9233 55.2198 31.4437 55.6319 33.0331 55.9066C34.3461 56.1127 35.6592 56.1813 36.9031 56.1127C42.3625 55.9066 47.4765 53.5028 51.07 49.7253C53.7652 46.8407 55.7002 43.1319 56.3912 38.9423C57.9116 29.1209 52.1066 19.9176 43.0536 16.6896C41.8788 16.2775 40.5658 15.9341 39.2527 15.728C38.9763 15.6594 38.769 15.6594 38.4926 15.6594C38.3543 15.5907 38.2852 15.522 38.147 15.4533C38.147 15.4533 38.0779 15.4533 38.0779 15.3846C38.0088 15.316 37.8706 15.2473 37.8015 15.1786C37.8015 15.1786 37.7324 15.1786 37.7324 15.1099C37.5942 15.0412 37.5251 14.9726 37.3869 14.9039C37.3177 14.8352 37.1795 14.7665 37.1104 14.6291L37.0413 14.5605C36.9722 14.4918 36.9031 14.4231 36.834 14.3544L36.7649 14.2857C36.6958 14.2171 36.6267 14.1484 36.5576 14.0797C36.5576 14.0797 36.5576 14.0797 36.4885 14.011C36.4194 13.9423 36.2811 13.805 36.212 13.7363C36.1429 13.5989 36.0047 13.4616 35.9356 13.3242C35.8665 13.2555 35.7974 13.1868 35.7974 13.1182C35.7974 13.0495 35.7283 13.0495 35.7283 12.9808C35.6592 12.9121 35.6592 12.8434 35.5901 12.7748C35.5901 12.7061 35.521 12.7061 35.521 12.6374C35.4519 12.5687 35.3828 12.4313 35.3828 12.3627C35.2445 12.1566 35.1754 11.8819 35.0372 11.6759C35.0372 11.6072 34.9681 11.5385 34.9681 11.5385C34.9681 11.4698 34.899 11.4011 34.899 11.3324C34.899 11.2638 34.8299 11.1951 34.8299 11.1264C34.7608 10.9204 34.6917 10.6456 34.6226 10.4396C34.5535 10.3022 34.5535 10.1649 34.5535 10.0275C34.5535 9.95882 34.5535 9.95882 34.5535 9.89014C34.4153 9.13464 34.4153 8.44783 34.5535 7.69233C34.5535 7.62365 34.5535 7.62365 34.5535 7.55497C34.5535 7.41761 34.6226 7.21156 34.6226 7.0742C34.7608 6.45607 34.9681 5.90662 35.1754 5.42585C35.2445 5.28849 35.3136 5.08244 35.4519 4.94508C36.4885 3.09069 38.2161 1.71706 40.2202 1.16761C40.704 1.03025 41.2568 0.892883 41.8097 0.892883C43.4683 1.16761 45.1268 1.51102 46.7163 1.99178C46.9927 2.06047 47.3382 2.19783 47.6147 2.26651C49.4806 2.88464 51.2082 3.64014 52.9359 4.53299C65.9971 11.4011 73.8753 25.9616 71.4565 41.2775C70.4199 48.1456 67.4483 54.2583 63.1637 59.1346C62.1271 60.1649 61.1596 61.1264 60.0539 62.0879Z" fill="#FE9001"/>
</g>
<defs>
<clipPath id="clip0_140_2">
<rect width="236" height="75" fill="white"/>
</clipPath>
</defs>
</svg>
