<svg width="39" height="62" viewBox="0 0 39 62" fill="none" xmlns="http://www.w3.org/2000/svg">
<path d="M0 7.75C0 5.69457 0.821783 3.72333 2.28457 2.26992C3.74735 0.816516 5.73131 0 7.8 0L31.2 0C33.2687 0 35.2526 0.816516 36.7154 2.26992C38.1782 3.72333 39 5.69457 39 7.75V54.25C39 56.3054 38.1782 58.2767 36.7154 59.7301C35.2526 61.1835 33.2687 62 31.2 62H7.8C5.73131 62 3.74735 61.1835 2.28457 59.7301C0.821783 58.2767 0 56.3054 0 54.25V7.75ZM23.4 50.375C23.4 49.3473 22.9891 48.3617 22.2577 47.635C21.5263 46.9083 20.5343 46.5 19.5 46.5C18.4657 46.5 17.4737 46.9083 16.7423 47.635C16.0109 48.3617 15.6 49.3473 15.6 50.375C15.6 51.4027 16.0109 52.3883 16.7423 53.115C17.4737 53.8417 18.4657 54.25 19.5 54.25C20.5343 54.25 21.5263 53.8417 22.2577 53.115C22.9891 52.3883 23.4 51.4027 23.4 50.375Z" fill="url(#paint0_linear_185_679)"/>
<defs>
<linearGradient id="paint0_linear_185_679" x1="-0.500901" y1="30.5122" x2="36.0649" y2="30.5122" gradientUnits="userSpaceOnUse">
<stop stop-color="#DD00AB"/>
<stop offset="1" stop-color="#7E2AC0"/>
</linearGradient>
</defs>
</svg>
