<svg width="65" height="86" viewBox="0 0 65 86" fill="none" xmlns="http://www.w3.org/2000/svg">
<path d="M64.1556 33.4695C64.0371 32.9905 63.6175 32.6588 63.125 32.6588H56.8497V12.5108C56.8497 11.9212 56.3754 11.4421 55.7916 11.4421H50.1275C49.5437 11.4421 49.0694 11.9212 49.0694 12.5108V32.6588H45.7129V20.8666C45.7129 20.277 45.2386 19.798 44.6548 19.798H38.9907C38.4069 19.798 37.9326 20.277 37.9326 20.8666V32.6588H34.5761V18.3147C34.5761 17.7251 34.1018 17.2461 33.518 17.2461H27.8539C27.2701 17.2461 26.7958 17.7251 26.7958 18.3147V32.668H23.4393V26.21C23.4393 25.6204 22.965 25.1413 22.3812 25.1413H16.7171C16.1333 25.1413 15.659 25.6204 15.659 26.21V32.668H9.44757C8.96416 32.668 8.53547 32.9997 8.41689 33.4787C7.92436 35.5055 7.55039 37.6797 7.30412 39.9368L0.718725 50.4761C-0.311954 52.1343 -0.229864 54.2348 0.93763 55.976C2.0504 57.6343 3.89285 58.4726 5.85388 58.2239L6.83895 58.1041L7.99732 68.2104C8.17062 69.7305 8.90943 71.0202 10.1225 71.9415C11.3356 72.8628 12.7676 73.2036 14.2635 72.9457L21.3414 71.702V84.9313C21.3414 85.5209 21.8157 86 22.3995 86H51.5321C52.1159 86 52.5902 85.5209 52.5902 84.9313V68.4407C57.926 62.2959 61.6018 56.0681 63.4989 49.9049C65.2502 44.2207 65.4691 38.6931 64.1556 33.4695ZM51.1946 13.5794H54.7427V32.6588H51.1946V13.5794ZM40.0487 21.9445H43.5968V32.6588H40.0487V21.9445ZM28.9028 19.3834H32.4509V32.6588H28.9028V19.3834ZM17.7568 27.2786H21.3049V32.668H17.7568V27.2786ZM50.7295 67.3168C50.5562 67.5102 50.4649 67.7682 50.4649 68.0261V83.8442H23.4484V70.4214C23.4484 70.1082 23.3116 69.8042 23.0744 69.6015C22.8373 69.3988 22.518 69.3159 22.2079 69.362L13.8895 70.8268C12.9592 70.9926 12.1383 70.7899 11.3812 70.2188C10.6242 69.6476 10.2046 68.9105 10.0952 67.9616L8.8091 56.7867C8.77262 56.5011 8.6358 56.2432 8.40777 56.0681C8.18887 55.8931 7.90611 55.8102 7.62336 55.847L5.58025 56.105C4.40363 56.2524 3.34559 55.7733 2.67975 54.7784C1.97743 53.7373 1.91358 52.5581 2.49733 51.6184L9.21042 40.8673C9.30163 40.7291 9.34724 40.5725 9.36548 40.4066C9.56615 38.4628 9.86714 36.5742 10.2593 34.8054H62.2858C63.8729 42.0926 62.9608 53.4241 50.7295 67.3168ZM19.5263 19.9085C21.232 19.9085 22.6275 18.5082 22.6275 16.7762C22.6275 16.4906 22.5819 16.2142 22.5089 15.9471L28.9119 11.35C29.4136 11.7001 30.0155 11.9027 30.6723 11.9027C31.7485 11.9027 32.7063 11.3408 33.2626 10.4932L38.7444 11.8106C38.9268 13.3675 40.2311 14.5744 41.8182 14.5744C43.5238 14.5744 44.9193 13.1741 44.9193 11.4421C44.9193 11.1381 44.8737 10.8341 44.7917 10.5577L51.2585 5.73948C51.751 6.07113 52.3348 6.2646 52.9732 6.2646C54.6789 6.2646 56.0744 4.86427 56.0744 3.1323C56.0744 1.40032 54.688 0 52.9732 0C51.2676 0 49.8721 1.40032 49.8721 3.1323C49.8721 3.43632 49.9177 3.74033 49.9998 4.01671L43.5329 8.83492C43.0404 8.50327 42.4567 8.3098 41.8182 8.3098C40.7419 8.3098 39.7842 8.87177 39.2278 9.71934L33.7461 8.40193C33.5636 6.84499 32.2593 5.63814 30.6723 5.63814C28.9666 5.63814 27.5711 7.03846 27.5711 8.77043C27.5711 9.05603 27.6167 9.33241 27.6897 9.59957L21.2867 14.1967C20.785 13.8466 20.1831 13.6439 19.5263 13.6439C17.8207 13.6439 16.4252 15.0442 16.4252 16.7762C16.4252 18.5082 17.8207 19.9085 19.5263 19.9085ZM52.9641 2.13733C53.5023 2.13733 53.9401 2.57954 53.9401 3.12309C53.9401 3.66663 53.5023 4.11805 52.9641 4.11805C52.426 4.11805 51.9882 3.67584 51.9882 3.1323C51.9882 2.58875 52.426 2.13733 52.9641 2.13733ZM41.8182 10.4471C42.3563 10.4471 42.7941 10.8893 42.7941 11.4329C42.7941 11.9764 42.3563 12.4186 41.8182 12.4186C41.28 12.4186 40.8422 11.9764 40.8422 11.4329C40.8422 10.8893 41.28 10.4471 41.8182 10.4471ZM30.6723 7.77547C31.2104 7.77547 31.6482 8.21768 31.6482 8.76122C31.6482 9.30477 31.2104 9.74697 30.6723 9.74697C30.1341 9.74697 29.6963 9.30477 29.6963 8.76122C29.6963 8.21768 30.1341 7.77547 30.6723 7.77547ZM19.5263 15.7813C20.0645 15.7813 20.5023 16.2235 20.5023 16.767C20.5023 17.3106 20.0645 17.7528 19.5263 17.7528C18.9882 17.7528 18.5504 17.3106 18.5504 16.767C18.5504 16.2327 18.9882 15.7813 19.5263 15.7813Z" fill="white"/>
</svg>
