<svg width="89" height="85" viewBox="0 0 89 85" fill="none" xmlns="http://www.w3.org/2000/svg">
<path d="M79.5705 0H9.42882C4.66134 0 0.782959 3.83329 0.782959 8.54479V76.454C0.782959 81.1667 4.66134 85 9.42882 85H79.5705C84.338 85 88.217 81.1667 88.217 76.454V8.54479C88.217 3.83329 84.338 0 79.5705 0ZM85.4847 76.4539C85.4847 79.6766 82.8318 82.2993 79.5705 82.2993H9.42882C6.16821 82.2993 3.51527 79.6766 3.51527 76.4539V21.9446H85.4847V76.4539ZM85.4847 19.2441H3.51527V8.54479C3.51527 5.3221 6.16821 2.70068 9.42882 2.70068H79.5705C82.8318 2.70054 85.4847 5.32196 85.4847 8.54479V19.2441Z" fill="white"/>
<path d="M74.0411 5.7439C71.238 5.7439 68.9574 7.99871 68.9574 10.7692C68.9574 13.5397 71.238 15.7932 74.0411 15.7932C76.8442 15.7932 79.1249 13.5397 79.1249 10.7692C79.1249 7.99871 76.8442 5.7439 74.0411 5.7439ZM74.0411 13.0926C72.7444 13.0926 71.6897 12.0509 71.6897 10.7692C71.6897 9.48752 72.7444 8.44444 74.0411 8.44444C75.3379 8.44444 76.3925 9.48752 76.3925 10.7692C76.3925 12.0509 75.338 13.0926 74.0411 13.0926Z" fill="white"/>
<path d="M59.7112 5.7439C56.9081 5.7439 54.6274 7.99871 54.6274 10.7692C54.6274 13.5397 56.9081 15.7932 59.7112 15.7932C62.5143 15.7932 64.7949 13.5397 64.7949 10.7692C64.7949 7.99871 62.5141 5.7439 59.7112 5.7439ZM59.7112 13.0926C58.4144 13.0926 57.3598 12.0509 57.3598 10.7692C57.3598 9.48752 58.4144 8.44444 59.7112 8.44444C61.0079 8.44444 62.0626 9.48752 62.0626 10.7692C62.0626 12.0509 61.0079 13.0926 59.7112 13.0926Z" fill="white"/>
<path d="M45.3812 5.7439C42.5781 5.7439 40.2974 7.99871 40.2974 10.7692C40.2974 13.5397 42.5781 15.7932 45.3812 15.7932C48.1843 15.7932 50.4649 13.5397 50.4649 10.7692C50.4649 7.99871 48.1843 5.7439 45.3812 5.7439ZM45.3812 13.0926C44.0844 13.0926 43.0297 12.0509 43.0297 10.7692C43.0297 9.48752 44.0844 8.44444 45.3812 8.44444C46.6779 8.44444 47.7326 9.48752 47.7326 10.7692C47.7326 12.0509 46.6779 13.0926 45.3812 13.0926Z" fill="white"/>
<path d="M20.7603 64.2499C22.8236 64.2499 24.5695 62.9438 25.2383 61.1301H30.1059C30.8603 61.1301 31.472 60.5262 31.472 59.7799V53.7221H36.3082V68.0306H30.5969C30.0042 66.0859 28.1965 64.6562 26.0387 64.6562C23.4024 64.6562 21.2571 66.7766 21.2571 69.3822C21.2571 71.9878 23.4024 74.1081 26.0387 74.1081C28.1976 74.1081 30.0059 72.6771 30.5977 70.7311H37.6744C38.4288 70.7311 39.0405 70.1271 39.0405 69.3808V53.7221H43.0023V69.4675C41.0334 70.0525 39.5855 71.8397 39.5855 73.9737C39.5855 76.5793 41.7308 78.6996 44.367 78.6996C47.0033 78.6996 49.1486 76.5793 49.1486 73.9737C49.1486 71.8408 47.702 70.0544 45.7346 69.4686V53.7221H50.1059V69.3808C50.1059 70.1271 50.7176 70.7311 51.472 70.7311H58.4013C58.9931 72.6771 60.8014 74.1081 62.9603 74.1081C65.5966 74.1081 67.7419 71.9878 67.7419 69.3822C67.7419 66.7766 65.5966 64.6562 62.9603 64.6562C60.8025 64.6562 58.9949 66.0859 58.4021 68.0306H52.8382V53.7221H57.2509V59.7799C57.2509 60.5262 57.8626 61.1301 58.617 61.1301H63.7607C64.4295 62.944 66.1756 64.2499 68.2387 64.2499C70.875 64.2499 73.0203 62.1296 73.0203 59.524C73.0203 56.9184 70.875 54.798 68.2387 54.798C65.9853 54.798 64.1024 56.3523 63.5995 58.4296H59.9831V53.6565C61.7772 53.4386 63.4781 52.6311 64.75 51.3617C69.5665 46.6509 66.6507 38.5524 60.0645 37.7443C60.2616 31.6155 55.2025 26.3486 48.8418 26.3486C44.9874 26.3486 41.4633 28.2923 39.414 31.4279C34.8224 28.0932 27.8243 32.2702 29.0031 37.9973C25.3235 38.8003 21.8789 40.4262 21.8789 45.7073C21.8789 49.7019 24.8597 53.0143 28.7397 53.6153V58.4295H25.3993C24.8966 56.3523 23.0136 54.7979 20.7601 54.7979C18.1239 54.7979 15.9786 56.9182 15.9786 59.5239C15.9786 62.1295 18.1241 64.2499 20.7603 64.2499ZM26.0388 71.4075C24.9089 71.4075 23.9896 70.4989 23.9896 69.3821C23.9896 68.2652 24.9089 67.3567 26.0388 67.3567C27.164 67.3567 28.0788 68.258 28.0867 69.3681C28.0866 69.3725 28.0841 69.3763 28.0841 69.3807C28.0841 69.3854 28.0868 69.3895 28.0868 69.3942C28.08 70.5052 27.1647 71.4075 26.0388 71.4075ZM60.9118 69.3768C60.9148 68.2626 61.8323 67.3567 62.9604 67.3567C64.0904 67.3567 65.0097 68.2652 65.0097 69.3821C65.0097 70.4989 64.0904 71.4075 62.9604 71.4075C61.8316 71.4075 60.9135 70.5009 60.9115 69.3856L60.9124 69.3808L60.9118 69.3768ZM68.239 57.4986C69.369 57.4986 70.2882 58.4072 70.2882 59.524C70.2882 60.6408 69.369 61.5494 68.239 61.5494C67.1091 61.5494 66.1898 60.6408 66.1898 59.524C66.1898 58.4072 67.1089 57.4986 68.239 57.4986ZM46.4164 73.9735C46.4164 75.0903 45.4971 75.9989 44.3672 75.9989C43.2372 75.9989 42.3179 75.0903 42.3179 73.9735C42.3179 72.8567 43.2372 71.9481 44.3672 71.9481C45.4971 71.9481 46.4164 72.8567 46.4164 73.9735ZM24.6113 45.7075C24.6113 42.4096 26.0495 41.2096 31.0219 40.3618C31.9186 40.2077 32.4122 39.2522 32.0211 38.4459C30.0182 34.3304 35.9156 30.8209 38.6624 34.4662C39.2856 35.2932 40.6 35.1531 41.0152 34.1867C42.3566 31.0655 45.4292 29.0493 48.8419 29.0493C54.0993 29.0493 58.1012 33.7885 57.2149 38.7979C57.1449 39.1908 57.255 39.5943 57.5144 39.9002C58.058 40.5384 58.7849 40.3489 59.0133 40.3815C63.8169 40.3815 66.1961 46.1493 62.8184 49.451C61.8185 50.4492 60.4316 51.0215 59.0133 51.0215H44.5273C44.4728 51.0149 44.4248 50.9899 44.3686 50.9899C44.3123 50.9899 44.2643 51.015 44.2098 51.0215H30.0005C27.0287 51.0216 24.6113 48.6374 24.6113 45.7075ZM20.7603 57.4986C21.8902 57.4986 22.8095 58.4072 22.8095 59.524C22.8095 60.6408 21.8902 61.5494 20.7603 61.5494C19.6303 61.5494 18.711 60.6408 18.711 59.524C18.711 58.4072 19.6303 57.4986 20.7603 57.4986Z" fill="white"/>
</svg>
