<svg width="81" height="81" viewBox="0 0 81 81" fill="none" xmlns="http://www.w3.org/2000/svg">
<path d="M40.5017 81C37.4353 81 35.0538 78.0204 32.9852 77.5998C30.9061 77.1826 27.558 79.0078 24.7315 77.8119C21.978 76.6472 21.0288 73.0245 19.36 71.8981C17.6877 70.7751 13.9746 71.2514 11.8608 69.1375C9.74695 67.0237 10.2268 63.3036 9.10025 61.6383C7.9773 59.9695 4.34766 59.0169 3.18643 56.2668C1.99041 53.4437 3.81919 50.0922 3.39851 48.0166C2.98131 45.948 -0.00167847 43.5699 -0.00167847 40.5C-0.00167847 38.6817 1.04482 37.1103 1.96609 35.7231C3.64185 33.2025 3.71483 32.8896 3.1412 29.8926C2.83178 28.2552 2.48063 26.4055 3.1864 24.7332C4.3511 21.9796 7.97379 21.0305 9.10022 19.3617C10.2232 17.6894 9.74688 13.9763 11.8607 11.8625C13.9746 9.74863 17.6946 10.2284 19.36 9.10193C21.0288 7.97898 21.9814 4.34934 24.7315 3.18811C27.5581 1.99565 30.9061 3.82087 32.9817 3.40019C35.0503 2.98299 37.4283 0 40.4982 0C43.5647 0 45.9462 2.97956 48.0148 3.40019C50.0939 3.81739 53.442 1.99216 56.265 3.18811C59.0186 4.35281 59.9677 7.97551 61.6365 9.10193C63.3123 10.2284 67.0219 9.7486 69.1357 11.8659C71.2461 13.9763 70.7803 17.7102 71.8997 19.3652C73.0227 21.034 76.6523 21.9866 77.8136 24.7367C79.0096 27.5598 77.1808 30.9113 77.6015 32.9868C78.0187 35.0555 81.0017 37.4335 81.0017 40.5034C81.0017 43.5699 78.0221 45.9514 77.6015 48.02C77.1843 50.099 79.0095 53.4472 77.8136 56.2702C76.6489 59.0238 73.0262 59.9729 71.8997 61.6417C70.7768 63.314 71.2531 67.0271 69.1392 69.1409C67.0253 71.2547 63.3053 70.7749 61.64 71.9014C59.9712 73.0244 59.0186 76.654 56.2685 77.8153C53.4419 79.0077 50.0939 77.1825 48.0183 77.6032C45.9566 78.0204 43.5682 81 40.5017 81ZM33.531 74.8741C36.2881 75.4338 38.5617 78.2187 40.4983 78.2187C42.4383 78.2187 44.719 75.4234 47.4655 74.8741C50.2156 74.3178 53.4107 76.0005 55.1838 75.2496C56.8561 74.5438 57.8191 71.1193 60.0859 69.5895C62.3388 68.0667 65.8781 68.4596 67.1714 67.1697C68.4612 65.8798 68.0649 62.3544 69.5912 60.0842C70.3665 58.9369 71.559 58.1651 72.7167 57.4211C75.6093 55.5611 75.8005 55.1821 75.126 51.6254C74.4238 47.9227 74.6185 46.8971 76.7184 43.7334C78.7106 40.733 78.7279 40.2741 76.7184 37.2563C75.9501 36.0986 75.1504 34.8992 74.8758 33.5258C74.3195 30.7758 76.0022 27.5807 75.2513 25.8076C74.5455 24.1353 71.121 23.1757 69.5912 20.9054C68.0684 18.6526 68.4613 15.1133 67.1714 13.82C65.8815 12.5302 62.3561 12.9265 60.0859 11.4002C58.9386 10.6249 58.1668 9.4324 57.4228 8.27465C55.5628 5.38204 55.1838 5.19086 51.6271 5.86533C50.2573 6.12608 48.8423 6.39379 47.4655 6.11565C44.7085 5.5559 42.4348 2.77109 40.4983 2.77109C38.5583 2.77109 36.2775 5.56632 33.531 6.11565C30.781 6.67192 27.5858 4.98923 25.8127 5.74016C24.1404 6.44593 23.1809 9.87045 20.9106 11.4002C19.7633 12.1755 18.3691 12.4398 17.0167 12.6935C13.6131 13.3367 13.3384 13.6288 12.6952 17.0151C12.4414 18.364 12.1737 19.7582 11.4019 20.909C9.87207 23.1758 6.45453 24.1319 5.74179 25.8111C4.9943 27.5842 6.67356 30.7827 6.11728 33.5294C5.55753 36.2864 2.77271 38.5601 2.77271 40.4966C2.77271 42.4366 5.56795 44.7173 6.11728 47.4639C6.39541 48.8407 6.1277 50.2557 5.86695 51.6255C5.19248 55.1787 5.38369 55.5611 8.27627 57.4211C9.43055 58.1651 10.6265 58.9369 11.4018 60.0843C12.9246 62.3371 12.5317 65.8764 13.8216 67.1697C15.1115 68.4596 18.6369 68.0632 20.9071 69.5896C23.1739 71.1194 24.13 74.5369 25.8092 75.2496C27.5858 76.0006 30.7774 74.3178 33.531 74.8741Z" fill="white"/>
<path d="M40.5018 70.1834C39.0693 70.1834 37.8803 69.3942 36.8304 68.6953C35.0955 67.5445 34.9564 67.5098 32.8947 67.8992C31.6571 68.1321 30.256 68.3998 28.9383 67.8436C26.8175 66.9501 26.0944 64.273 24.9853 63.529C23.8832 62.7849 21.1331 63.1152 19.5061 61.4846C17.8755 59.8541 18.2058 57.1075 17.4618 56.0054C16.7143 54.8964 14.0477 54.1767 13.1472 52.0524C12.2293 49.876 13.5574 47.4041 13.2793 46.0099C12.9977 44.6227 10.8109 42.86 10.8109 40.4959C10.8109 39.0635 11.6001 37.8745 12.2989 36.8245C13.4497 35.0897 13.4844 34.9506 13.0951 32.8889C12.8621 31.6512 12.5944 30.2501 13.1507 28.9324C14.0442 26.8117 16.7212 26.0885 17.4653 24.9794C18.2093 23.8773 17.879 21.1273 19.5096 19.5002C20.497 18.5128 21.8633 18.2556 23.0663 18.0261C25.0515 17.6507 25.1453 17.5811 26.2405 15.8846C26.9045 14.8519 27.6555 13.6838 28.9419 13.1415C31.1183 12.2237 33.5903 13.5517 34.9844 13.2736C36.3716 12.992 38.1343 10.8052 40.4984 10.8052C42.8591 10.8052 44.6322 12.992 46.0125 13.2736C47.4066 13.5552 49.8786 12.2236 52.055 13.1415C53.3379 13.6838 54.0923 14.852 54.7564 15.8846C55.8481 17.5811 55.9524 17.6507 57.9306 18.0261C59.1336 18.2556 60.5033 18.5129 61.4873 19.5002C63.1178 21.1308 62.7875 23.8774 63.5316 24.9794C64.2791 26.0885 66.9457 26.8082 67.8462 28.9324C68.764 31.1088 67.4359 33.5808 67.7141 34.9749C67.8218 35.5069 68.246 36.1431 68.6945 36.821C69.3899 37.8675 70.1826 39.06 70.1826 40.4924C70.1826 41.9249 69.3934 43.1138 68.6945 44.1638C67.5437 45.8987 67.509 46.0378 67.8984 48.0994C68.1313 49.3371 68.399 50.7382 67.8427 52.0559C66.9492 54.1767 64.2722 54.8998 63.5281 56.0089C62.7841 57.111 63.1144 59.861 61.4838 61.4881C59.8533 63.1187 57.1066 62.7884 56.0046 63.5324C54.8955 64.2799 54.1759 66.95 52.0516 67.847C49.8752 68.7648 47.4032 67.4368 46.0091 67.7149C44.6288 67.993 42.866 70.1834 40.5018 70.1834ZM38.3706 66.3799C39.125 66.8841 39.9073 67.402 40.5018 67.402C41.7186 67.402 43.4117 65.4064 45.4664 64.9893C47.5351 64.572 49.8506 65.7646 50.977 65.2848C52.0235 64.8432 52.7571 62.3713 54.4572 61.2275C56.1538 60.0836 58.7197 60.3305 59.5262 59.5239C60.3258 58.7242 60.0929 56.1445 61.2298 54.4549C62.3737 52.7618 64.8456 52.0177 65.2871 50.9747C65.7565 49.8725 64.5779 47.5154 64.9916 45.4641C65.2071 44.3968 65.8051 43.4998 66.3823 42.6271C67.7347 40.5968 67.7347 40.3986 66.3823 38.3682C65.8051 37.499 65.2072 36.602 64.9916 35.5312C64.5744 33.4626 65.7669 31.1471 65.2871 30.0206C65.0785 29.5269 64.3276 29.0402 63.6009 28.5743C61.2403 27.0516 60.757 26.3423 60.2355 23.5818C60.0756 22.73 59.9053 21.8539 59.5263 21.4714C58.7267 20.6718 56.1469 20.9047 54.4573 19.7678C52.7642 18.6239 52.0201 16.1521 50.9771 15.7105C50.4382 15.4811 49.5169 15.6549 48.6234 15.8253C45.8003 16.3641 44.9729 16.166 42.6296 14.6153C41.8751 14.1112 41.0928 13.5932 40.4984 13.5932C39.2815 13.5932 37.5884 15.5889 35.5337 16.006C33.4651 16.4232 31.1496 15.2307 30.0232 15.7105C29.5295 15.9191 29.0427 16.67 28.5769 17.3967C27.0541 19.7573 26.3448 20.2406 23.5843 20.7621C22.7325 20.922 21.8564 21.0923 21.474 21.4713C21.0915 21.8537 20.9281 22.7299 20.7647 23.5817C20.2397 26.3387 19.7634 27.0514 17.3993 28.5742C16.6727 29.0436 15.9217 29.5268 15.7131 30.0205C15.4837 30.5594 15.661 31.4807 15.8279 32.3742C16.3668 35.1973 16.1686 36.0248 14.618 38.368C14.1139 39.1225 13.5959 39.9048 13.5959 40.4992C13.5959 41.723 15.5915 43.4022 16.0086 45.4639C16.2242 46.5312 16.0226 47.5951 15.8279 48.6208C15.6575 49.5108 15.4837 50.4321 15.7131 50.9744C16.1547 52.0209 18.6266 52.7545 19.7704 54.4547C20.9143 56.1512 20.6674 58.7171 21.474 59.5236C22.2737 60.3233 24.8534 60.0903 26.543 61.2273C28.2362 62.3711 28.9802 64.843 30.0232 65.2846C30.5621 65.5105 31.4834 65.3367 32.3769 65.1698C35.2243 64.6275 36.0516 64.8432 38.3706 66.3799Z" fill="white"/>
<path d="M30.9615 53.0538L24.8981 46.9905C23.059 45.1583 23.0207 42.1475 24.8981 40.27C26.7546 38.4135 29.7585 38.41 31.6186 40.27L34.3339 42.9853L49.3843 27.9349C51.2166 26.0957 54.2274 26.0575 56.1048 27.9349C57.9578 29.7879 57.9578 32.8023 56.1048 34.6554L37.7025 53.0577C35.846 54.9142 32.8284 54.9209 30.9615 53.0538ZM26.8659 42.2382C26.0976 43.0065 26.0976 44.2546 26.8659 45.023L32.9292 51.0863C33.6976 51.8547 34.9526 51.8686 35.7419 51.0863L54.1442 32.684C54.9126 31.9157 54.9126 30.6676 54.1442 29.8992C53.3759 29.1308 52.1278 29.1308 51.3594 29.8992L35.3184 45.9376C34.776 46.4799 33.8964 46.4799 33.3506 45.9376L29.6514 42.2384C28.8692 41.4631 27.6273 41.4768 26.8659 42.2382Z" fill="white"/>
</svg>
