<svg width="111" height="85" viewBox="0 0 111 85" fill="none" xmlns="http://www.w3.org/2000/svg">
<path d="M11.3933 19.6688L28.0004 25.0501V41.1577C28.0004 43.3614 29.2556 45.2607 31.2711 46.1008C38.5971 49.1689 48.3369 51.2508 55.506 51.263C62.675 51.2508 72.4148 49.1689 79.7287 46.1008C81.7443 45.2485 82.9994 43.3614 82.9994 41.1577V25.0501L89.3116 23.0047V31.2472C87.5736 31.8925 86.3185 33.5727 86.3185 35.5572C86.3185 36.7382 86.765 37.7974 87.4892 38.6131C86.765 39.4288 86.3185 40.4881 86.3185 41.669V48.0609C86.3185 49.668 87.6099 50.9708 89.203 50.9708H92.5703C94.1634 50.9708 95.4548 49.668 95.4548 48.0609V41.669C95.4548 40.4881 95.0082 39.4288 94.2841 38.6131C95.0082 37.7974 95.4548 36.7382 95.4548 35.5572C95.4548 33.5727 94.1996 31.9047 92.4617 31.2472V21.982L99.6187 19.6566C101.019 19.2061 101.924 18.0617 101.924 16.7468C101.924 15.4319 101.019 14.2874 99.6187 13.8369L58.3422 0.456564C56.4594 -0.152188 54.5646 -0.152188 52.6818 0.456564L11.3933 13.8491C9.99324 14.2996 9.08806 15.444 9.08806 16.7589C9.08806 18.0738 9.99324 19.2061 11.3933 19.6688ZM90.8927 36.9817C90.1082 36.9817 89.4806 36.3364 89.4806 35.5572C89.4806 34.778 90.1202 34.1327 90.8927 34.1327C91.6651 34.1327 92.3047 34.778 92.3047 35.5572C92.3047 36.3364 91.6772 36.9817 90.8927 36.9817ZM92.3168 47.7809H89.4806V41.6569C89.4806 40.8655 90.1202 40.2324 90.8927 40.2324C91.6651 40.2324 92.3047 40.8777 92.3047 41.6569V47.7809H92.3168ZM79.8615 41.1577C79.8615 42.0708 79.3666 42.8257 78.5339 43.1788C71.5458 46.1008 62.3009 48.0731 55.506 48.0975C48.711 48.0853 39.454 46.1008 32.478 43.1788C31.6453 42.8257 31.1504 42.0708 31.1504 41.1577V26.0728L52.6697 33.0491C53.6111 33.3535 54.5525 33.5118 55.506 33.5118C56.4594 33.5118 57.4008 33.3657 58.3422 33.0491L79.8615 26.0728V41.1577ZM53.6352 3.47597C54.8784 3.0742 56.1336 3.0742 57.3767 3.47597L98.3152 16.7468L89.8789 19.4861L55.7111 15.1762C54.8542 15.0666 54.0577 15.6875 53.9611 16.552C53.8525 17.4164 54.468 18.2199 55.3249 18.3295L82.7822 21.7994L57.3887 30.0297C56.1456 30.4315 54.8904 30.4315 53.6473 30.0297L12.7088 16.7589L53.6352 3.47597ZM109.431 74.2616H107.307L103.746 62.7197C103.095 60.6256 101.2 59.2133 99.0273 59.2133C99.0273 59.2133 99.0273 59.2133 99.0152 59.2133L73.8752 59.2498C63.9181 59.3837 58.3784 64.4607 55.506 68.6124C52.6335 64.4607 47.0817 59.3959 37.1126 59.2498L11.9847 59.2133C11.9847 59.2133 11.9847 59.2133 11.9726 59.2133C9.80014 59.2133 7.90528 60.6256 7.25355 62.7197L3.69316 74.2616H1.56899C0.70001 74.2616 0 74.9678 0 75.8444C0 76.721 0.70001 77.4271 1.56899 77.4271L40.9264 77.4636C44.9575 77.9385 45.8265 79.156 47.7093 81.8101C47.9748 82.1876 48.2524 82.5772 48.5662 82.9911C49.5197 84.2817 50.9318 85 52.5249 85H58.475C60.0681 85 61.4802 84.2938 62.4336 82.9911C62.7354 82.5772 63.025 82.1876 63.2906 81.8101C65.1733 79.1682 66.0423 77.9507 70.0734 77.4636L109.431 77.4271C110.3 77.4271 111 76.721 111 75.8444C111.012 74.9678 110.3 74.2616 109.431 74.2616ZM69.9889 74.2981C69.9286 74.2981 69.8682 74.2981 69.8079 74.3103C64.3164 74.9434 62.7354 77.1593 60.7319 79.9595C60.4784 80.3248 60.2008 80.7022 59.9112 81.0918C59.5491 81.5788 59.0663 81.8223 58.475 81.8223H52.5249C51.9214 81.8223 51.4387 81.5788 51.0887 81.0918C50.799 80.69 50.5214 80.3126 50.268 79.9595C48.2645 77.1593 46.6834 74.9434 41.192 74.3103C41.1316 74.2981 41.0713 74.2981 41.0109 74.2981L7.0001 74.2616L8.33977 69.903H27.1435C28.0125 69.903 28.7125 69.1968 28.7125 68.3202C28.7125 67.4436 28.0125 66.7374 27.1435 66.7374H9.31737L10.2708 63.6572C10.5122 62.8658 11.176 62.3788 11.9847 62.3788L37.0885 62.4153C47.3593 62.5614 52.1749 68.7098 54.118 72.3745C54.3956 72.8858 54.9266 73.2146 55.506 73.2146C56.0853 73.2146 56.6163 72.898 56.8939 72.3745C58.8491 68.722 63.6526 62.5614 73.8993 62.4153L99.0273 62.3788C99.848 62.3788 100.5 62.8658 100.741 63.6572L101.695 66.7374H83.8684C82.9994 66.7374 82.2994 67.4436 82.2994 68.3202C82.2994 69.1968 82.9994 69.903 83.8684 69.903H102.672L104.012 74.2616L69.9889 74.2981Z" fill="white"/>
</svg>
