<svg width="95" height="85" viewBox="0 0 95 85" fill="none" xmlns="http://www.w3.org/2000/svg">
<path d="M58.5865 13.8019L61.0122 16.0693V16.0737C61.3725 16.4165 61.8076 16.6714 62.2865 16.8164C62.7655 16.9526 63.2753 16.9746 63.763 16.8823L66.0657 16.4692V16.4736C69.1857 15.9243 72.1695 17.9808 72.7671 21.0921L73.3999 24.3571C73.4921 24.8449 73.6943 25.3107 73.9931 25.7061C74.3007 26.1016 74.6962 26.4136 75.1444 26.6246L77.2405 27.6441C80.088 29.0327 81.3009 32.4471 79.965 35.321L78.5545 38.3311V38.3355C78.3347 38.7838 78.2249 39.2759 78.2381 39.7768C78.2512 40.2734 78.3875 40.7612 78.6248 41.1962L79.7277 43.2615C81.213 46.0563 80.1848 49.5322 77.4119 51.0615L74.4985 52.6742C73.602 53.1444 72.9957 54.0277 72.877 55.034L72.5562 57.3455C72.1167 60.4787 69.2429 62.6846 66.1009 62.2979L62.8007 61.8936C61.7988 61.7442 60.788 62.1001 60.0982 62.8428L58.4723 64.5215C56.2752 66.8021 52.6541 66.8944 50.3383 64.7324L47.9127 62.4649C47.1876 61.753 46.1549 61.4498 45.1618 61.652L42.8591 62.0562C39.7392 62.6012 36.7554 60.549 36.149 57.4377L35.5206 54.1728L35.525 54.1772C35.4371 53.685 35.235 53.2192 34.9318 52.8237C34.6286 52.4282 34.2331 52.1162 33.7849 51.9009L31.6844 50.877V50.8814C28.8324 49.4972 27.6152 46.0784 28.9598 43.2089L30.3704 40.1987C30.5857 39.7461 30.6956 39.2495 30.6868 38.7486C30.6692 38.252 30.5374 37.7642 30.3001 37.3292L29.1971 35.2683C27.7118 32.4734 28.7445 29.0019 31.513 27.4727L34.4176 25.8687V25.8643C35.3184 25.3985 35.9248 24.5153 36.0391 23.5045L36.3643 21.193H36.3687C36.8081 18.0598 39.6776 15.8539 42.824 16.2363L46.1198 16.6449C46.612 16.7152 47.1173 16.6625 47.5919 16.5043C48.0621 16.3329 48.484 16.0561 48.8268 15.6913L50.4483 14.0127H50.4439C52.6454 11.7277 56.2665 11.6353 58.5779 13.8018L58.5865 13.8019ZM69.5988 69.215C69.2385 68.5954 69.4494 67.8044 70.0691 67.4441C70.6887 67.0837 71.4796 67.2947 71.84 67.9143L75.1314 73.6181V73.6137C75.4873 74.2333 75.2808 75.0287 74.6611 75.389C74.0415 75.7494 73.2462 75.5384 72.8859 74.9188L69.5988 69.215ZM81.9689 57.7854C81.4196 57.3987 81.257 56.6517 81.5953 56.0717C81.9337 55.4872 82.6588 55.2587 83.274 55.5443L88.9735 58.8401C89.5931 59.2005 89.804 59.9914 89.4437 60.611C89.0834 61.2306 88.2924 61.4416 87.6728 61.0812L81.9689 57.7854ZM86.974 41.7064C86.2577 41.7064 85.6733 41.1264 85.6733 40.4057C85.6733 39.6851 86.2578 39.1006 86.974 39.1006H93.5656C94.2819 39.1006 94.8663 39.685 94.8663 40.4057C94.8663 41.1265 94.2818 41.7064 93.5656 41.7064H86.974ZM83.2652 25.2719C82.6455 25.6279 81.8546 25.4125 81.4986 24.7929C81.1383 24.1689 81.3536 23.378 81.9776 23.022L87.6815 19.7306C88.2967 19.3747 89.0877 19.5856 89.4436 20.2052C89.7996 20.8248 89.5886 21.6158 88.969 21.9718L83.2652 25.2719ZM71.8446 12.8929C71.4843 13.5125 70.6889 13.7234 70.0693 13.3631C69.4497 13.0028 69.2388 12.2118 69.5991 11.5922L72.8905 5.89711C73.2465 5.2775 74.0374 5.06218 74.657 5.42251C75.2766 5.77846 75.492 6.5694 75.1316 7.18903L71.8446 12.8929ZM21.9472 39.1055C22.6678 39.1055 23.2478 39.69 23.2478 40.4107C23.2478 41.1314 22.6678 41.7114 21.9472 41.7114H15.36C14.6437 41.7114 14.0593 41.1313 14.0593 40.4107C14.0593 39.6901 14.6438 39.1055 15.36 39.1055H21.9472ZM26.9479 23.022C27.5675 23.378 27.7829 24.1733 27.4269 24.7929C27.071 25.4125 26.28 25.6279 25.6604 25.2719L19.9565 21.9761C19.3369 21.6202 19.126 20.8292 19.4819 20.2096C19.8379 19.59 20.6288 19.3747 21.2441 19.7306L26.9479 23.022ZM39.3315 11.5925C39.6874 12.2121 39.4765 13.0074 38.8569 13.3678C38.2329 13.7281 37.4375 13.5172 37.0816 12.8932L33.7858 7.18929C33.5001 6.57847 33.733 5.84901 34.3175 5.51063C34.9063 5.17226 35.6534 5.33925 36.0356 5.89733L39.3315 11.5925ZM55.7704 7.88798L55.766 7.88358C55.766 8.60425 55.1816 9.18876 54.4654 9.18876C53.7447 9.18876 53.1602 8.60431 53.1602 7.88358V1.30517C53.1602 0.584505 53.7446 0 54.4654 0C55.1817 0 55.766 0.584449 55.766 1.30517L55.7704 7.88798ZM10.8206 50.8647V53.7254H15.7818H17.1397C20.9276 53.6815 22.9402 53.6551 26.069 56.7795L36.2508 66.9744L36.2551 66.97C38.1491 68.8684 38.1491 71.9488 36.2551 73.8516C36.1145 73.9966 35.9607 74.1284 35.8025 74.2515C36.2859 74.2735 36.7825 74.2691 37.2747 74.2691H37.7493L58.8163 74.2647C61.7825 74.2647 64.1862 76.6684 64.1862 79.6345C64.1862 82.6007 61.7825 85 58.8163 85H29.2772C24.4874 85 23.0021 83.2554 22.1275 82.2139C22.0484 82.1304 21.9781 82.0426 21.9254 81.9898L12.482 71.8212H10.8252V74.6776C10.8252 75.3983 10.2408 75.9783 9.52006 75.9783H1.43443C0.718151 75.9783 0.133759 75.3982 0.133759 74.6776V50.878C0.133759 50.1574 0.718207 49.5729 1.43443 49.5729H9.52006C10.2363 49.5729 10.8207 50.1573 10.8207 50.878L10.8206 50.8647ZM8.21471 73.3638V52.1651H2.73932V73.3683L8.21471 73.3638ZM21.5511 66.0297C21.2786 65.7924 21.116 65.454 21.1028 65.0893C21.0897 64.7289 21.2259 64.3774 21.4808 64.1225C21.74 63.8676 22.0872 63.727 22.4519 63.7402C22.8122 63.7534 23.1506 63.916 23.3879 64.1884L30.1948 70.9909L30.2124 70.9821L31.4823 72.2389V72.2433C32.3876 72.8805 33.6223 72.7838 34.4134 72.006C35.2923 71.114 35.2923 69.6858 34.4134 68.7981L24.2185 58.6032C21.8587 56.2523 20.2284 56.2654 17.1524 56.3005L15.7725 56.3093L10.8201 56.3137V69.2113H13.0393C13.3997 69.2157 13.7424 69.3651 13.9885 69.6288L23.8187 80.2103C23.9198 80.3158 24.0077 80.4213 24.1044 80.5311C24.6976 81.2255 25.6775 82.3899 29.2766 82.3899H58.8157C60.3229 82.3591 61.5271 81.1287 61.5271 79.6215C61.5271 78.1187 60.323 76.8882 58.8157 76.8575H37.7531C36.4304 76.8575 37.7883 76.8487 37.2917 76.8575H37.2873C34.9275 76.8575 32.4755 76.8751 30.665 75.0822L29.8345 74.2604H29.8301C29.6719 74.133 29.5181 73.9968 29.3731 73.8518L21.5511 66.0297ZM55.6249 27.9308L58.8987 34.0433L66.0219 35.4495H66.0263C66.7294 35.5901 67.1864 36.2713 67.0502 36.9788C67.0019 37.2468 66.8657 37.4929 66.6635 37.6775L61.8825 42.6563L62.7437 49.8719V49.8763C62.8009 50.3597 62.5812 50.8343 62.1769 51.1023C61.7726 51.3747 61.2541 51.4011 60.8278 51.1682L54.6055 48.158L48.0139 51.2077C47.3635 51.5021 46.5945 51.2209 46.2914 50.5749C46.1771 50.3332 46.142 50.0607 46.1903 49.8015L47.1395 42.9331L42.2002 37.6027C41.9673 37.3522 41.8443 37.0182 41.8575 36.6755C41.8707 36.3327 42.0201 36.0075 42.2749 35.7746C42.4551 35.6076 42.6792 35.4978 42.9209 35.4494L49.7893 34.2102L53.3311 27.8735C53.4981 27.5747 53.7794 27.3506 54.109 27.2583C54.4429 27.166 54.7945 27.2056 55.0977 27.3726C55.3262 27.5044 55.5108 27.6977 55.6294 27.9306L55.6249 27.9308ZM56.908 35.8055L54.4384 31.2001L51.7622 36.0119C51.5733 36.3546 51.2393 36.5919 50.857 36.6579L45.7068 37.5851L49.3936 41.5664C49.6968 41.852 49.8419 42.2651 49.7891 42.6782L49.0772 47.8592L54.0736 45.5477C54.4252 45.3851 54.8338 45.3895 55.181 45.5565L59.883 47.8284L59.2326 42.3573C59.1887 41.9706 59.3205 41.5883 59.5886 41.3071L63.2007 37.5367L57.8044 36.4689V36.4733C57.4221 36.3986 57.0925 36.1525 56.9123 35.8097L56.908 35.8055ZM54.4647 21.2069C60.0807 21.2069 65.3759 23.8171 68.7944 28.273C72.2132 32.7288 73.3689 38.5206 71.9144 43.9481C70.4598 49.3707 66.5664 53.8134 61.3767 55.9627C56.1869 58.1115 50.294 57.7248 45.4293 54.9168C40.5647 52.1088 37.2865 47.2003 36.5527 41.6288C35.8188 36.0612 37.7173 30.4715 41.6897 26.4993C45.0733 23.1068 49.6699 21.2041 54.4636 21.2085L54.4647 21.2069ZM65.3979 28.3345C60.1818 23.114 51.9997 22.3054 45.8608 26.4054C39.7263 30.5053 37.3358 38.3671 40.1613 45.1866C42.9825 52.0066 50.2332 55.8824 57.471 54.4455C64.7129 53.0042 69.9243 46.6499 69.9243 39.2676C69.9287 35.1677 68.2982 31.2349 65.3979 28.3345ZM59.2458 17.9638L56.8201 15.6963L56.8113 15.6919C55.5326 14.4966 53.5287 14.5494 52.3115 15.8106L50.6988 17.4892C49.4464 18.8251 47.6227 19.471 45.8122 19.225L42.512 18.8163C40.7718 18.5922 39.1811 19.8139 38.9438 21.5453L38.6186 23.8655C38.3857 25.6804 37.2915 27.2711 35.6787 28.1412L32.7653 29.7452H32.7697C31.2449 30.5977 30.6736 32.5136 31.491 34.056L32.5896 36.1213C33.0202 36.9167 33.2619 37.8 33.2839 38.7008C33.3015 39.6017 33.1125 40.4938 32.7258 41.3067L31.3108 44.3125C30.9593 45.0771 30.9154 45.9515 31.1922 46.747C31.4778 47.538 32.0579 48.1883 32.8181 48.5531L34.9142 49.577L34.9098 49.5726C36.5666 50.3592 37.7485 51.8928 38.0738 53.6946L38.7066 56.9595C39.0361 58.682 40.6884 59.8159 42.4154 59.5038L44.7181 59.0995H44.7137C46.5111 58.7612 48.361 59.3105 49.6794 60.576L52.1139 62.8435V62.8479C53.3926 64.0432 55.3965 63.9904 56.6137 62.7293L58.2352 61.0506C59.4833 59.7191 61.3025 59.0731 63.1129 59.3148L66.4131 59.7191C68.1533 59.9388 69.744 58.7215 69.9814 56.9858L70.3021 54.6743H70.3065C70.5438 52.8594 71.638 51.2687 73.2464 50.3942L76.1554 48.7902C77.6847 47.9377 78.2515 46.0218 77.4298 44.4794L76.3356 42.4185C75.4567 40.8145 75.4083 38.8811 76.1993 37.2331L77.6099 34.2229C78.3394 32.6365 77.6758 30.7558 76.1071 29.9824L74.0066 28.9629C72.3498 28.1807 71.1766 26.6471 70.847 24.8454L70.2142 21.5804H70.2186C69.8847 19.8623 68.2324 18.7284 66.5098 19.0317L64.2071 19.4404H64.2115C63.3238 19.6074 62.4141 19.559 61.5529 19.3042C60.6872 19.0405 59.8962 18.5835 59.2414 17.9639L59.2458 17.9638Z" fill="white"/>
</svg>
