<svg width="201" height="201" viewBox="0 0 201 201" fill="none" xmlns="http://www.w3.org/2000/svg">
<rect width="201" height="201" rx="33" fill="#4B49AC"/>
<path d="M144.549 138.3C144.251 138.817 143.824 139.246 143.309 139.545C142.795 139.843 142.211 140 141.617 140H60.3813C59.7875 139.999 59.2042 139.842 58.6901 139.543C58.1761 139.245 57.7493 138.815 57.4526 138.299C57.1559 137.782 56.9998 137.196 57 136.6C57.0002 136.003 57.1565 135.417 57.4535 134.901C63.8973 123.712 73.8275 115.689 85.4162 111.886C79.6839 108.458 75.2302 103.236 72.7392 97.0205C70.2481 90.8049 69.8574 83.9399 71.6271 77.4798C73.3967 71.0196 77.2288 65.3215 82.535 61.2604C87.8411 57.1994 94.3278 55 100.999 55C107.67 55 114.157 57.1994 119.463 61.2604C124.769 65.3215 128.601 71.0196 130.371 77.4798C132.14 83.9399 131.75 90.8049 129.259 97.0205C126.768 103.236 122.314 108.458 116.582 111.886C128.17 115.689 138.101 123.712 144.544 134.901C144.842 135.417 144.999 136.003 145 136.6C145.001 137.197 144.845 137.783 144.549 138.3Z" fill="white"/>
</svg>
