<svg width="201" height="201" viewBox="0 0 201 201" fill="none" xmlns="http://www.w3.org/2000/svg">
<rect width="201" height="201" rx="33" fill="#4B49AC"/>
<path d="M101 97.1111C103.139 97.1111 104.971 96.3502 106.495 94.8283C108.019 93.3065 108.78 91.4748 108.778 89.3333C108.778 87.1944 108.017 85.3641 106.495 83.8422C104.973 82.3204 103.141 81.5581 101 81.5556C98.8611 81.5556 97.0307 82.3178 95.5089 83.8422C93.987 85.3667 93.2248 87.197 93.2222 89.3333C93.2222 91.4722 93.9844 93.3039 95.5089 94.8283C97.0333 96.3528 98.8637 97.1137 101 97.1111ZM81.5556 136V128.222H97.1111V116.167C93.9352 115.454 91.1002 114.109 88.6061 112.134C86.112 110.158 84.2804 107.679 83.1111 104.694C78.25 104.111 74.1835 101.989 70.9117 98.3283C67.6398 94.6676 66.0026 90.373 66 85.4444V81.5556C66 79.4167 66.7622 77.5863 68.2867 76.0644C69.8111 74.5426 71.6415 73.7804 73.7778 73.7778H81.5556V66H120.444V73.7778H128.222C130.361 73.7778 132.193 74.54 133.717 76.0644C135.242 77.5889 136.003 79.4193 136 81.5556V85.4444C136 90.3704 134.363 94.665 131.088 98.3283C127.814 101.992 123.747 104.114 118.889 104.694C117.722 107.676 115.892 110.156 113.398 112.134C110.904 114.112 108.067 115.456 104.889 116.167V128.222H120.444V136H81.5556ZM81.5556 96.3333V81.5556H73.7778V85.4444C73.7778 87.9074 74.4907 90.128 75.9167 92.1061C77.3426 94.0843 79.2222 95.4933 81.5556 96.3333ZM120.444 96.3333C122.778 95.4907 124.657 94.0804 126.083 92.1022C127.509 90.1241 128.222 87.9048 128.222 85.4444V81.5556H120.444V96.3333Z" fill="white"/>
</svg>
