<svg width="201" height="201" viewBox="0 0 201 201" fill="none" xmlns="http://www.w3.org/2000/svg">
<rect width="201" height="201" rx="33" fill="#1d7874"/>
<path d="M131.333 122.429V131H79.3333V122.429C79.3333 122.429 79.3333 105.286 105.333 105.286C131.333 105.286 131.333 122.429 131.333 122.429ZM118.333 83.8571C118.333 81.3142 117.571 78.8284 116.142 76.7141C114.714 74.5998 112.684 72.9518 110.308 71.9787C107.933 71.0056 105.319 70.751 102.797 71.2471C100.275 71.7431 97.959 72.9677 96.1409 74.7658C94.3229 76.5639 93.0847 78.8548 92.5831 81.3488C92.0815 83.8429 92.339 86.428 93.3229 88.7774C94.3068 91.1267 95.9731 93.1347 98.1109 94.5475C100.249 95.9602 102.762 96.7143 105.333 96.7143C108.781 96.7143 112.088 95.3597 114.526 92.9485C116.964 90.5373 118.333 87.2671 118.333 83.8571ZM132.2 105.543C134.569 107.704 136.478 110.31 137.818 113.21C139.157 116.109 139.899 119.243 140 122.429V131H153V122.429C153 122.429 153 107.643 132.2 105.543ZM127 71C125.691 71.0008 124.39 71.2032 123.143 71.6C125.679 75.1956 127.038 79.4736 127.038 83.8571C127.038 88.2406 125.679 92.5187 123.143 96.1143C124.39 96.5111 125.691 96.7135 127 96.7143C130.448 96.7143 133.754 95.3597 136.192 92.9485C138.63 90.5373 140 87.2671 140 83.8571C140 80.4472 138.63 77.177 136.192 74.7658C133.754 72.3546 130.448 71 127 71ZM83.6667 92.4286H70.6667V79.5714H62V92.4286H49V101H62V113.857H70.6667V101H83.6667V92.4286Z" fill="white"/>
</svg>
