<svg width="201" height="201" viewBox="0 0 201 201" fill="none" xmlns="http://www.w3.org/2000/svg">
<rect width="201" height="201" rx="33" fill="#4B49AC"/>
<path d="M120.429 67C124.145 66.9998 127.722 68.4199 130.426 70.9697C133.13 73.5195 134.758 77.0062 134.976 80.7166L135 81.5714V101H115.571L114.717 101.024C111.153 101.233 107.791 102.743 105.267 105.267C102.743 107.791 101.233 111.153 101.024 114.717L101 115.571V135H81.5714C77.8547 135 74.2784 133.58 71.5742 131.03C68.87 128.481 67.2423 124.994 67.0243 121.283L67 120.429V81.5714C66.9998 77.8547 68.4199 74.2784 70.9697 71.5742C73.5195 68.87 77.0062 67.2423 80.7166 67.0243L81.5714 67H120.429ZM134.514 105.862C134.138 107.017 133.548 108.091 132.775 109.029L132.154 109.709L109.709 132.154C108.621 133.242 107.3 134.048 105.862 134.519L105.857 115.571L105.881 114.843C106.055 112.53 107.051 110.356 108.688 108.713C110.326 107.07 112.497 106.068 114.809 105.886L115.571 105.857L134.514 105.862Z" fill="white"/>
</svg>
