<svg xmlns="http://www.w3.org/2000/svg" data-name="Layer 1" viewBox="0 0 95 118.75" x="0px" y="0px"><defs><style>.cls-1{fill-rule:evenodd;}</style></defs><title>a</title><path class="cls-1" d="M75.96,55.521l.018,34.166h0A2.817,2.817,0,0,1,73.17,92.5v0H19.186a2.817,2.817,0,0,1-2.813-2.812V85.075H11.005a2.815,2.815,0,0,1-2.813-2.812V5.313A2.817,2.817,0,0,1,11.005,2.5H64.989A2.817,2.817,0,0,1,67.8,5.313V18.518l7.834,7.8a1.054,1.054,0,0,1,.309.792l0,8.549.606-1.05c.012-.021.026-.042.039-.062a4.972,4.972,0,0,1,6.651-1.809,1.029,1.029,0,0,1,.172.1,4.982,4.982,0,0,1,1.79,6.673,1.065,1.065,0,0,1-.094.16l-.948,1.643,1.662.959a1.953,1.953,0,0,1,.718,2.672c-.011.019-.022.036-.034.054l-3.855,6.677a1.05,1.05,0,0,1-1.821-1.047l3.816-6.609-1.537-.888L75.96,55.521ZM38.28,21.393a8.553,8.553,0,1,0,6.047,2.5,8.527,8.527,0,0,0-6.047-2.5Zm4.555,4a6.442,6.442,0,1,0,1.887,4.555,6.419,6.419,0,0,0-1.887-4.555Zm-2.923-7.012-.4-2.3H37.047l-.4,2.3a1.054,1.054,0,0,1-.866.862,11.036,11.036,0,0,0-3.357,1.4,1.053,1.053,0,0,1-1.166-.029h0l-1.911-1.346L27.6,21.013l1.346,1.911a1.053,1.053,0,0,1,0,1.209,11.023,11.023,0,0,0-1.39,3.373,1.052,1.052,0,0,1-.849.806h0l-2.3.4v2.466l2.3.4a1.054,1.054,0,0,1,.863.865,10.953,10.953,0,0,0,1.4,3.359,1.052,1.052,0,0,1-.029,1.165h0L27.6,38.878l1.744,1.744,1.911-1.346a1.054,1.054,0,0,1,1.21,0,11.023,11.023,0,0,0,3.373,1.39,1.052,1.052,0,0,1,.806.849h0l.4,2.3h2.466l.4-2.3a1.054,1.054,0,0,1,.865-.863,10.961,10.961,0,0,0,3.358-1.4,1.053,1.053,0,0,1,1.166.029h0l1.911,1.346,1.745-1.744-1.346-1.912a1.051,1.051,0,0,1,0-1.209A11.023,11.023,0,0,0,49,32.384a1.052,1.052,0,0,1,.849-.806h0l2.3-.4V28.712l-2.3-.4a1.054,1.054,0,0,1-.862-.865,10.8,10.8,0,0,0-.549-1.706,10.964,10.964,0,0,0-.854-1.652,1.053,1.053,0,0,1,.029-1.166h0l1.346-1.911-1.745-1.745L45.3,20.614a1.053,1.053,0,0,1-1.209,0,11.05,11.05,0,0,0-3.373-1.39,1.052,1.052,0,0,1-.806-.849Zm1.607-3.057a1.637,1.637,0,0,0-1.6-1.351H36.642a1.637,1.637,0,0,0-1.6,1.351l-.352,2.03a12.853,12.853,0,0,0-2.774,1.15l-1.687-1.189a1.618,1.618,0,0,0-1.075-.292l-.054.006a1.623,1.623,0,0,0-.956.465l-2.316,2.316a1.626,1.626,0,0,0-.472,1.011l0,.036a1.616,1.616,0,0,0,.295,1.038l1.189,1.687a13.1,13.1,0,0,0-.657,1.354,12.872,12.872,0,0,0-.493,1.421l-2.03.352a1.637,1.637,0,0,0-1.351,1.6v3.276a1.636,1.636,0,0,0,1.351,1.6l2.03.351a12.833,12.833,0,0,0,1.15,2.775L25.647,38a1.624,1.624,0,0,0-.293,1.071v0a1.625,1.625,0,0,0,.472,1.01L28.142,42.4a1.619,1.619,0,0,0,2.085.179l1.687-1.189a13.1,13.1,0,0,0,1.354.657,12.928,12.928,0,0,0,1.42.493l.352,2.03a1.634,1.634,0,0,0,1.6,1.351h3.276a1.634,1.634,0,0,0,1.6-1.351l.352-2.03a12.833,12.833,0,0,0,2.775-1.15l1.687,1.189a1.612,1.612,0,0,0,2.08-.179l0,0,0,0,2.317-2.316a1.619,1.619,0,0,0,.471-1.01l0-.037a1.617,1.617,0,0,0-.3-1.038l-1.188-1.687a12.931,12.931,0,0,0,1.15-2.774l2.03-.352a1.639,1.639,0,0,0,1.351-1.6V28.307a1.637,1.637,0,0,0-1.351-1.6l-2.03-.352a12.833,12.833,0,0,0-1.15-2.775l1.188-1.687a1.611,1.611,0,0,0,.293-1.071v0a1.619,1.619,0,0,0-.471-1.011l-2.317-2.316a.905.905,0,0,0-.093-.083,1.614,1.614,0,0,0-1.991-.1L44.646,18.5a12.833,12.833,0,0,0-2.775-1.15l-.352-2.03ZM27.54,81.5H64.816a1.055,1.055,0,1,0,0-2.109H27.54a1.055,1.055,0,1,0,0,2.109Zm0-9.377a1.055,1.055,0,1,1,0-2.109H57.487l.244-2.6a1.045,1.045,0,0,1,.137-.432h0l2.442-4.23H27.54a1.055,1.055,0,0,1,0-2.11H61.527L73.85,39.3l-.006-11.21H60.5a2.817,2.817,0,0,1-2.813-2.812V12.034h-38.5a.705.705,0,0,0-.7.7V89.688a.7.7,0,0,0,.7.7H73.17v0a.705.705,0,0,0,.7-.707h0l-.016-30.53L66.475,71.948a1.029,1.029,0,0,1-.34.359l-7.625,5.4a1.05,1.05,0,0,1-1.651-.952h0l.432-4.631Zm0-18.755H64.816a1.055,1.055,0,1,0,0-2.109H27.54a1.055,1.055,0,1,0,0,2.109Zm49.066-14.64L81.573,41.6l.572-.991-4.967-2.868-.572.992Zm3.915,4.69-4.967-2.868L60.694,66.291l4.967,2.868,14.86-25.738Zm-2.29-7.5L83.2,38.785l.114-.2c.01-.02.02-.04.032-.059a2.883,2.883,0,0,0-1-3.883,1.13,1.13,0,0,1-.125-.073,2.889,2.889,0,0,0-3.8,1.017,1.011,1.011,0,0,1-.077.136l-.11.191ZM64.48,70.908l-4.711-2.72-.606,6.486,5.317-3.766Zm7.831-44.932L59.8,13.514v11.76a.705.705,0,0,0,.7.7ZM16.373,82.966V12.737a2.815,2.815,0,0,1,2.813-2.812H58.741a1.054,1.054,0,0,1,.8.365l6.152,6.127V5.313a.707.707,0,0,0-.7-.7H11.005a.705.705,0,0,0-.7.7v76.95a.705.705,0,0,0,.7.7Z"/><text x="0" y="110" fill="#000000" font-size="5px" font-weight="bold" font-family="'Helvetica Neue', Helvetica, Arial-Unicode, Arial, Sans-serif">Created by putrakali735</text><text x="0" y="115" fill="#000000" font-size="5px" font-weight="bold" font-family="'Helvetica Neue', Helvetica, Arial-Unicode, Arial, Sans-serif">from the Noun Project</text></svg>