<svg xmlns="http://www.w3.org/2000/svg" viewBox="0 0 360 640">
  <defs>
    <linearGradient id="bubbleGradient" x1="0%" y1="0%" x2="0%" y2="100%">
      <stop offset="0%" stop-color="#5ab3ff"/>
      <stop offset="100%" stop-color="#1e8df3"/>
    </linearGradient>
    <filter id="shadow" x="-20%" y="-20%" width="140%" height="140%">
      <feDropShadow dx="0" dy="14" stdDeviation="18" flood-color="#0f1f3d" flood-opacity="0.25"/>
    </filter>
  </defs>
  <rect x="32" y="40" width="296" height="520" rx="32" ry="32" fill="#ffffff" filter="url(#shadow)"/>
  <rect x="32" y="40" width="296" height="110" rx="32" ry="32" fill="#3fa9f5"/>
  <circle cx="92" cy="97" r="34" fill="#ffffff" stroke="rgba(255,255,255,0.4)" stroke-width="4"/>
  <path d="M72 84c0 10 8 18 18 18s18-8 18-18" stroke="#3fa9f5" stroke-width="6" stroke-linecap="round" fill="none"/>
  <rect x="142" y="72" width="140" height="18" rx="9" fill="#ffffff" opacity="0.9"/>
  <rect x="142" y="98" width="180" height="14" rx="7" fill="#ffffff" opacity="0.55"/>
  <g fill="#f1f5f9">
    <rect x="56" y="178" width="180" height="56" rx="20"/>
    <rect x="56" y="252" width="210" height="56" rx="20"/>
  </g>
  <rect x="96" y="344" width="200" height="66" rx="20" fill="url(#bubbleGradient)"/>
  <circle cx="108" cy="356" r="20" fill="#ffffff" opacity="0.6"/>
  <rect x="136" y="360" width="140" height="18" rx="9" fill="#ffffff" opacity="0.85"/>
  <rect x="136" y="384" width="104" height="12" rx="6" fill="#ffffff" opacity="0.55"/>
  <g fill="#f1f5f9">
    <rect x="56" y="438" width="220" height="56" rx="20"/>
    <rect x="56" y="512" width="160" height="56" rx="20"/>
  </g>
  <circle cx="262" cy="568" r="28" fill="#3fa9f5"/>
  <path d="M252 568h20" stroke="#ffffff" stroke-width="6" stroke-linecap="round"/>
</svg>
